<svg xmlns="http://www.w3.org/2000/svg" version="1.1" xmlns:xlink="http://www.w3.org/1999/xlink" xmlns:svgjs="http://svgjs.com/svgjs" width="1440" height="1000" preserveAspectRatio="none" viewBox="0 0 1440 1000"><g mask="url(&quot;#SvgjsMask1403&quot;)" fill="none"><g mask="url(&quot;#SvgjsMask1405&quot;)"><path d="M208 496L240 464L272 464L304 464L336 464M240 496L272 528L304 528L336 528M560 496L592 464L624 464L656 464L688 496L720 496M48 496L80 528L112 528M112 496L144 464L176 464L208 464L240 432M784 528L816 496L848 496L880 496L912 496M368 496L400 464L432 464L464 464L496 464L528 464L560 464M-16 496L16 496L48 496L80 496L112 496L144 496L176 496L208 496L240 496L272 496L304 496L336 496L368 496L400 496L432 496L464 496L496 496L528 496L560 496L592 496L624 496L656 496L688 528L720 528L752 528L784 528L816 528L848 528" stroke="url(#SvgjsLinearGradient1404)" stroke-width="5.33"></path><path d="M840 528 a8 8 0 1 0 16 0 a8 8 0 1 0 -16 0zM328 464 a8 8 0 1 0 16 0 a8 8 0 1 0 -16 0zM328 528 a8 8 0 1 0 16 0 a8 8 0 1 0 -16 0zM712 496 a8 8 0 1 0 16 0 a8 8 0 1 0 -16 0zM104 528 a8 8 0 1 0 16 0 a8 8 0 1 0 -16 0zM232 432 a8 8 0 1 0 16 0 a8 8 0 1 0 -16 0zM904 496 a8 8 0 1 0 16 0 a8 8 0 1 0 -16 0zM552 464 a8 8 0 1 0 16 0 a8 8 0 1 0 -16 0z" fill="url(#SvgjsLinearGradient1404)"></path><path d="M1168 592L1200 624L1232 624M1296 592L1328 624L1360 624L1392 624M688 560L720 592L752 592L784 592L816 592L848 592L880 592L912 592L944 592L976 592L1008 624L1040 624L1072 624L1104 624L1136 624L1168 624M432 560L464 528M560 528L592 560L624 560L656 560M1264 592L1296 560L1328 560L1360 560M368 560L400 528L432 528M16 528L48 528M464 560L496 560L528 560L560 560L592 592L624 592L656 592M176 560L208 528M-16 528L16 528L48 560L80 560L112 560L144 560L176 560L208 560L240 560L272 560L304 560L336 560L368 560L400 560L432 560L464 560L496 528L528 528L560 528L592 528L624 528L656 528L688 560L720 560L752 560L784 560L816 560L848 560L880 560L912 560L944 560L976 560L1008 592L1040 592L1072 592L1104 592L1136 592L1168 592L1200 592L1232 592L1264 592L1296 592L1328 592" stroke="url(#SvgjsLinearGradient1404)" stroke-width="5.33"></path><path d="M1320 592 a8 8 0 1 0 16 0 a8 8 0 1 0 -16 0zM1224 624 a8 8 0 1 0 16 0 a8 8 0 1 0 -16 0zM1384 624 a8 8 0 1 0 16 0 a8 8 0 1 0 -16 0zM1160 624 a8 8 0 1 0 16 0 a8 8 0 1 0 -16 0zM456 528 a8 8 0 1 0 16 0 a8 8 0 1 0 -16 0zM648 560 a8 8 0 1 0 16 0 a8 8 0 1 0 -16 0zM1352 560 a8 8 0 1 0 16 0 a8 8 0 1 0 -16 0zM424 528 a8 8 0 1 0 16 0 a8 8 0 1 0 -16 0zM40 528 a8 8 0 1 0 16 0 a8 8 0 1 0 -16 0zM648 592 a8 8 0 1 0 16 0 a8 8 0 1 0 -16 0zM200 528 a8 8 0 1 0 16 0 a8 8 0 1 0 -16 0z" fill="url(#SvgjsLinearGradient1404)"></path><path d="M976 400L1008 432L1040 432M1104 400L1136 368L1168 368L1200 368L1232 400L1264 400L1296 400M304 400L336 432M1040 400L1072 368L1104 368L1136 336L1168 336L1200 336L1232 336L1264 336L1296 336L1328 336L1360 336L1392 304M656 400L688 432L720 464L752 496M176 400L208 432M688 400L720 368L752 368L784 368L816 368L848 368L880 336L912 336L944 368L976 368L1008 336L1040 336M496 432L528 432L560 432L592 432L624 432L656 432M1008 400L1040 368M-16 464L16 464L48 464L80 432L112 432L144 400L176 400L208 400L240 400L272 400L304 400L336 400L368 400L400 400L432 400L464 432L496 432L528 400L560 400L592 400L624 400L656 400L688 400L720 400L752 400L784 400L816 400L848 400L880 400L912 400L944 400L976 400L1008 400L1040 400L1072 400L1104 400L1136 400" stroke="url(#SvgjsLinearGradient1404)" stroke-width="5.33"></path><path d="M1128 400 a8 8 0 1 0 16 0 a8 8 0 1 0 -16 0zM1032 432 a8 8 0 1 0 16 0 a8 8 0 1 0 -16 0zM1288 400 a8 8 0 1 0 16 0 a8 8 0 1 0 -16 0zM328 432 a8 8 0 1 0 16 0 a8 8 0 1 0 -16 0zM1384 304 a8 8 0 1 0 16 0 a8 8 0 1 0 -16 0zM744 496 a8 8 0 1 0 16 0 a8 8 0 1 0 -16 0zM200 432 a8 8 0 1 0 16 0 a8 8 0 1 0 -16 0zM1032 336 a8 8 0 1 0 16 0 a8 8 0 1 0 -16 0zM648 432 a8 8 0 1 0 16 0 a8 8 0 1 0 -16 0zM1032 368 a8 8 0 1 0 16 0 a8 8 0 1 0 -16 0z" fill="url(#SvgjsLinearGradient1404)"></path><path d="M368 592L400 624L432 624L464 624L496 624L528 624L560 624M304 592L336 624L368 624L400 656L432 656M272 592L304 624M240 592L272 624M-16 560L16 560L48 592L80 592L112 592L144 592L176 592L208 592L240 592L272 592L304 592L336 592L368 592L400 592L432 592L464 592L496 592" stroke="url(#SvgjsLinearGradient1404)" stroke-width="5.33"></path><path d="M488 592 a8 8 0 1 0 16 0 a8 8 0 1 0 -16 0zM552 624 a8 8 0 1 0 16 0 a8 8 0 1 0 -16 0zM424 656 a8 8 0 1 0 16 0 a8 8 0 1 0 -16 0zM296 624 a8 8 0 1 0 16 0 a8 8 0 1 0 -16 0zM264 624 a8 8 0 1 0 16 0 a8 8 0 1 0 -16 0z" fill="url(#SvgjsLinearGradient1404)"></path><path d="M656 336L688 368M912 272L944 272L976 272M624 336L656 368M464 368L496 400M784 304L816 336L848 336M528 368L560 336M1136 240L1168 272L1200 272L1232 272L1264 272M720 336L752 336L784 336M560 368L592 368L624 368M-16 432L16 432L48 432L80 400L112 400L144 368L176 368L208 368L240 368L272 368L304 368L336 368L368 368L400 368L432 368L464 368L496 368L528 368L560 368L592 336L624 336L656 336L688 336L720 336L752 304L784 304L816 304L848 304L880 304L912 272L944 240L976 240L1008 240L1040 240L1072 240L1104 240L1136 240L1168 240" stroke="url(#SvgjsLinearGradient1404)" stroke-width="5.33"></path><path d="M1160 240 a8 8 0 1 0 16 0 a8 8 0 1 0 -16 0zM680 368 a8 8 0 1 0 16 0 a8 8 0 1 0 -16 0zM968 272 a8 8 0 1 0 16 0 a8 8 0 1 0 -16 0zM648 368 a8 8 0 1 0 16 0 a8 8 0 1 0 -16 0zM488 400 a8 8 0 1 0 16 0 a8 8 0 1 0 -16 0zM840 336 a8 8 0 1 0 16 0 a8 8 0 1 0 -16 0zM552 336 a8 8 0 1 0 16 0 a8 8 0 1 0 -16 0zM1256 272 a8 8 0 1 0 16 0 a8 8 0 1 0 -16 0zM776 336 a8 8 0 1 0 16 0 a8 8 0 1 0 -16 0zM616 368 a8 8 0 1 0 16 0 a8 8 0 1 0 -16 0z" fill="url(#SvgjsLinearGradient1404)"></path><path d="M-16 592L16 592L48 624L80 624L112 624L144 624L176 624L208 624" stroke="url(#SvgjsLinearGradient1404)" stroke-width="5.33"></path><path d="M200 624 a8 8 0 1 0 16 0 a8 8 0 1 0 -16 0z" fill="url(#SvgjsLinearGradient1404)"></path><path d="M848 272L880 272M496 336L528 336M1200 208L1232 240L1264 240L1296 240L1328 240L1360 240L1392 240M-16 400L16 400L48 400L80 368L112 368L144 336L176 336L208 336L240 336L272 336L304 336L336 336L368 336L400 336L432 336L464 336L496 336L528 304L560 304L592 304L624 304L656 304L688 304L720 304L752 272L784 272L816 272L848 272L880 240L912 240L944 208L976 208L1008 208L1040 208L1072 208L1104 208L1136 208L1168 208L1200 208L1232 208" stroke="url(#SvgjsLinearGradient1404)" stroke-width="5.33"></path><path d="M1224 208 a8 8 0 1 0 16 0 a8 8 0 1 0 -16 0zM872 272 a8 8 0 1 0 16 0 a8 8 0 1 0 -16 0zM520 336 a8 8 0 1 0 16 0 a8 8 0 1 0 -16 0zM1384 240 a8 8 0 1 0 16 0 a8 8 0 1 0 -16 0z" fill="url(#SvgjsLinearGradient1404)"></path><path d="M432 688L464 720M240 656L272 688L304 688L336 688M400 688L432 720M176 656L208 688L240 688M-16 624L16 624L48 656L80 656L112 656L144 656L176 656L208 656L240 656L272 656L304 656L336 656L368 688L400 688L432 688L464 688L496 688" stroke="url(#SvgjsLinearGradient1404)" stroke-width="5.33"></path><path d="M488 688 a8 8 0 1 0 16 0 a8 8 0 1 0 -16 0zM456 720 a8 8 0 1 0 16 0 a8 8 0 1 0 -16 0zM328 688 a8 8 0 1 0 16 0 a8 8 0 1 0 -16 0zM424 720 a8 8 0 1 0 16 0 a8 8 0 1 0 -16 0zM232 688 a8 8 0 1 0 16 0 a8 8 0 1 0 -16 0z" fill="url(#SvgjsLinearGradient1404)"></path><path d="M400 304L432 272L464 272L496 272M304 304L336 272L368 272L400 272M272 304L304 272M112 304L144 272L176 272L208 272L240 272L272 272M80 336L112 336M-16 368L16 368L48 368L80 336L112 304L144 304L176 304L208 304L240 304L272 304L304 304L336 304L368 304L400 304L432 304L464 304L496 304L528 272L560 272L592 272" stroke="url(#SvgjsLinearGradient1404)" stroke-width="5.33"></path><path d="M584 272 a8 8 0 1 0 16 0 a8 8 0 1 0 -16 0zM488 272 a8 8 0 1 0 16 0 a8 8 0 1 0 -16 0zM392 272 a8 8 0 1 0 16 0 a8 8 0 1 0 -16 0zM296 272 a8 8 0 1 0 16 0 a8 8 0 1 0 -16 0zM264 272 a8 8 0 1 0 16 0 a8 8 0 1 0 -16 0zM104 336 a8 8 0 1 0 16 0 a8 8 0 1 0 -16 0z" fill="url(#SvgjsLinearGradient1404)"></path><path d="M656 752L688 784M112 720L144 688M720 752L752 720L784 688L816 688L848 688L880 688L912 688L944 688L976 688M624 752L656 720L688 720L720 720L752 688L784 656M592 752L624 720L656 688L688 688L720 688L752 656L784 624L816 624M80 720L112 688M848 752L880 720L912 720M-16 656L16 656L48 688L80 720L112 720L144 720L176 720L208 720L240 720L272 720L304 720L336 720L368 720L400 752L432 752L464 752L496 752L528 752L560 752L592 752L624 752L656 752L688 752L720 752L752 752L784 752L816 752L848 752L880 752L912 752" stroke="url(#SvgjsLinearGradient1404)" stroke-width="5.33"></path><path d="M904 752 a8 8 0 1 0 16 0 a8 8 0 1 0 -16 0zM680 784 a8 8 0 1 0 16 0 a8 8 0 1 0 -16 0zM136 688 a8 8 0 1 0 16 0 a8 8 0 1 0 -16 0zM968 688 a8 8 0 1 0 16 0 a8 8 0 1 0 -16 0zM776 656 a8 8 0 1 0 16 0 a8 8 0 1 0 -16 0zM808 624 a8 8 0 1 0 16 0 a8 8 0 1 0 -16 0zM104 688 a8 8 0 1 0 16 0 a8 8 0 1 0 -16 0zM904 720 a8 8 0 1 0 16 0 a8 8 0 1 0 -16 0z" fill="url(#SvgjsLinearGradient1404)"></path><path d="M-16 336L16 304" stroke="url(#SvgjsLinearGradient1404)" stroke-width="5.33"></path><path d="M8 304 a8 8 0 1 0 16 0 a8 8 0 1 0 -16 0z" fill="url(#SvgjsLinearGradient1404)"></path><path d="M272 752L304 784L336 784L368 784L400 816L432 816L464 816M560 784L592 816M496 784L528 816L560 816L592 848L624 848M-16 688L16 688L48 720L80 752L112 752L144 752L176 752L208 752L240 752L272 752L304 752L336 752L368 752L400 784L432 784L464 784L496 784L528 784L560 784L592 784L624 784" stroke="url(#SvgjsLinearGradient1404)" stroke-width="5.33"></path><path d="M616 784 a8 8 0 1 0 16 0 a8 8 0 1 0 -16 0zM456 816 a8 8 0 1 0 16 0 a8 8 0 1 0 -16 0zM584 816 a8 8 0 1 0 16 0 a8 8 0 1 0 -16 0zM616 848 a8 8 0 1 0 16 0 a8 8 0 1 0 -16 0z" fill="url(#SvgjsLinearGradient1404)"></path><path d="M1200 176L1232 144L1264 144M656 240L688 240M464 240L496 208M16 272L48 272M624 240L656 208L688 208L720 208L752 208L784 208L816 208M1104 176L1136 144L1168 144M944 176L976 144L1008 144M528 240L560 208L592 208L624 208L656 176L688 176L720 144L752 144L784 144L816 144L848 144M1040 176L1072 144M80 240L112 272M-16 304L16 272L48 240L80 240L112 240L144 240L176 240L208 240L240 240L272 240L304 240L336 240L368 240L400 240L432 240L464 240L496 240L528 240L560 240L592 240L624 240L656 240L688 272L720 272L752 240L784 240L816 240L848 240L880 208L912 208L944 176L976 176L1008 176L1040 176L1072 176L1104 176L1136 176L1168 176L1200 176L1232 176L1264 176L1296 176" stroke="url(#SvgjsLinearGradient1404)" stroke-width="5.33"></path><path d="M1288 176 a8 8 0 1 0 16 0 a8 8 0 1 0 -16 0zM1256 144 a8 8 0 1 0 16 0 a8 8 0 1 0 -16 0zM680 240 a8 8 0 1 0 16 0 a8 8 0 1 0 -16 0zM488 208 a8 8 0 1 0 16 0 a8 8 0 1 0 -16 0zM40 272 a8 8 0 1 0 16 0 a8 8 0 1 0 -16 0zM808 208 a8 8 0 1 0 16 0 a8 8 0 1 0 -16 0zM1160 144 a8 8 0 1 0 16 0 a8 8 0 1 0 -16 0zM1000 144 a8 8 0 1 0 16 0 a8 8 0 1 0 -16 0zM840 144 a8 8 0 1 0 16 0 a8 8 0 1 0 -16 0zM1064 144 a8 8 0 1 0 16 0 a8 8 0 1 0 -16 0zM104 272 a8 8 0 1 0 16 0 a8 8 0 1 0 -16 0z" fill="url(#SvgjsLinearGradient1404)"></path><path d="M80 784L112 816L144 816L176 816M208 784L240 816L272 816L304 816M-16 720L16 720L48 752L80 784L112 784L144 784L176 784L208 784L240 784" stroke="url(#SvgjsLinearGradient1404)" stroke-width="5.33"></path><path d="M232 784 a8 8 0 1 0 16 0 a8 8 0 1 0 -16 0zM168 816 a8 8 0 1 0 16 0 a8 8 0 1 0 -16 0zM296 816 a8 8 0 1 0 16 0 a8 8 0 1 0 -16 0z" fill="url(#SvgjsLinearGradient1404)"></path><path d="M208 208L240 176L272 176M304 208L336 208M48 208L80 176L112 176L144 176M-16 272L16 240L48 208L80 208L112 208L144 208L176 208L208 208L240 208L272 208L304 208L336 176" stroke="url(#SvgjsLinearGradient1404)" stroke-width="5.33"></path><path d="M328 176 a8 8 0 1 0 16 0 a8 8 0 1 0 -16 0zM264 176 a8 8 0 1 0 16 0 a8 8 0 1 0 -16 0zM328 208 a8 8 0 1 0 16 0 a8 8 0 1 0 -16 0zM136 176 a8 8 0 1 0 16 0 a8 8 0 1 0 -16 0z" fill="url(#SvgjsLinearGradient1404)"></path></g></g><defs><mask id="SvgjsMask1403"><rect width="1440" height="1000" fill="#ffffff"></rect></mask><linearGradient x1="0" y1="500" x2="1440" y2="500" gradientUnits="userSpaceOnUse" id="SvgjsLinearGradient1404"><stop stop-color="#3a7cc3" offset="0"></stop><stop stop-color="rgba(181, 22, 180, 1)" offset="1"></stop></linearGradient><mask id="SvgjsMask1405"><rect width="1440" height="1000" fill="white"></rect><path d="M844 528 a4 4 0 1 0 8 0 a4 4 0 1 0 -8 0zM332 464 a4 4 0 1 0 8 0 a4 4 0 1 0 -8 0zM332 528 a4 4 0 1 0 8 0 a4 4 0 1 0 -8 0zM716 496 a4 4 0 1 0 8 0 a4 4 0 1 0 -8 0zM108 528 a4 4 0 1 0 8 0 a4 4 0 1 0 -8 0zM236 432 a4 4 0 1 0 8 0 a4 4 0 1 0 -8 0zM908 496 a4 4 0 1 0 8 0 a4 4 0 1 0 -8 0zM556 464 a4 4 0 1 0 8 0 a4 4 0 1 0 -8 0z" fill="black"></path><path d="M1324 592 a4 4 0 1 0 8 0 a4 4 0 1 0 -8 0zM1228 624 a4 4 0 1 0 8 0 a4 4 0 1 0 -8 0zM1388 624 a4 4 0 1 0 8 0 a4 4 0 1 0 -8 0zM1164 624 a4 4 0 1 0 8 0 a4 4 0 1 0 -8 0zM460 528 a4 4 0 1 0 8 0 a4 4 0 1 0 -8 0zM652 560 a4 4 0 1 0 8 0 a4 4 0 1 0 -8 0zM1356 560 a4 4 0 1 0 8 0 a4 4 0 1 0 -8 0zM428 528 a4 4 0 1 0 8 0 a4 4 0 1 0 -8 0zM44 528 a4 4 0 1 0 8 0 a4 4 0 1 0 -8 0zM652 592 a4 4 0 1 0 8 0 a4 4 0 1 0 -8 0zM204 528 a4 4 0 1 0 8 0 a4 4 0 1 0 -8 0z" fill="black"></path><path d="M1132 400 a4 4 0 1 0 8 0 a4 4 0 1 0 -8 0zM1036 432 a4 4 0 1 0 8 0 a4 4 0 1 0 -8 0zM1292 400 a4 4 0 1 0 8 0 a4 4 0 1 0 -8 0zM332 432 a4 4 0 1 0 8 0 a4 4 0 1 0 -8 0zM1388 304 a4 4 0 1 0 8 0 a4 4 0 1 0 -8 0zM748 496 a4 4 0 1 0 8 0 a4 4 0 1 0 -8 0zM204 432 a4 4 0 1 0 8 0 a4 4 0 1 0 -8 0zM1036 336 a4 4 0 1 0 8 0 a4 4 0 1 0 -8 0zM652 432 a4 4 0 1 0 8 0 a4 4 0 1 0 -8 0zM1036 368 a4 4 0 1 0 8 0 a4 4 0 1 0 -8 0z" fill="black"></path><path d="M492 592 a4 4 0 1 0 8 0 a4 4 0 1 0 -8 0zM556 624 a4 4 0 1 0 8 0 a4 4 0 1 0 -8 0zM428 656 a4 4 0 1 0 8 0 a4 4 0 1 0 -8 0zM300 624 a4 4 0 1 0 8 0 a4 4 0 1 0 -8 0zM268 624 a4 4 0 1 0 8 0 a4 4 0 1 0 -8 0z" fill="black"></path><path d="M1164 240 a4 4 0 1 0 8 0 a4 4 0 1 0 -8 0zM684 368 a4 4 0 1 0 8 0 a4 4 0 1 0 -8 0zM972 272 a4 4 0 1 0 8 0 a4 4 0 1 0 -8 0zM652 368 a4 4 0 1 0 8 0 a4 4 0 1 0 -8 0zM492 400 a4 4 0 1 0 8 0 a4 4 0 1 0 -8 0zM844 336 a4 4 0 1 0 8 0 a4 4 0 1 0 -8 0zM556 336 a4 4 0 1 0 8 0 a4 4 0 1 0 -8 0zM1260 272 a4 4 0 1 0 8 0 a4 4 0 1 0 -8 0zM780 336 a4 4 0 1 0 8 0 a4 4 0 1 0 -8 0zM620 368 a4 4 0 1 0 8 0 a4 4 0 1 0 -8 0z" fill="black"></path><path d="M204 624 a4 4 0 1 0 8 0 a4 4 0 1 0 -8 0z" fill="black"></path><path d="M1228 208 a4 4 0 1 0 8 0 a4 4 0 1 0 -8 0zM876 272 a4 4 0 1 0 8 0 a4 4 0 1 0 -8 0zM524 336 a4 4 0 1 0 8 0 a4 4 0 1 0 -8 0zM1388 240 a4 4 0 1 0 8 0 a4 4 0 1 0 -8 0z" fill="black"></path><path d="M492 688 a4 4 0 1 0 8 0 a4 4 0 1 0 -8 0zM460 720 a4 4 0 1 0 8 0 a4 4 0 1 0 -8 0zM332 688 a4 4 0 1 0 8 0 a4 4 0 1 0 -8 0zM428 720 a4 4 0 1 0 8 0 a4 4 0 1 0 -8 0zM236 688 a4 4 0 1 0 8 0 a4 4 0 1 0 -8 0z" fill="black"></path><path d="M588 272 a4 4 0 1 0 8 0 a4 4 0 1 0 -8 0zM492 272 a4 4 0 1 0 8 0 a4 4 0 1 0 -8 0zM396 272 a4 4 0 1 0 8 0 a4 4 0 1 0 -8 0zM300 272 a4 4 0 1 0 8 0 a4 4 0 1 0 -8 0zM268 272 a4 4 0 1 0 8 0 a4 4 0 1 0 -8 0zM108 336 a4 4 0 1 0 8 0 a4 4 0 1 0 -8 0z" fill="black"></path><path d="M908 752 a4 4 0 1 0 8 0 a4 4 0 1 0 -8 0zM684 784 a4 4 0 1 0 8 0 a4 4 0 1 0 -8 0zM140 688 a4 4 0 1 0 8 0 a4 4 0 1 0 -8 0zM972 688 a4 4 0 1 0 8 0 a4 4 0 1 0 -8 0zM780 656 a4 4 0 1 0 8 0 a4 4 0 1 0 -8 0zM812 624 a4 4 0 1 0 8 0 a4 4 0 1 0 -8 0zM108 688 a4 4 0 1 0 8 0 a4 4 0 1 0 -8 0zM908 720 a4 4 0 1 0 8 0 a4 4 0 1 0 -8 0z" fill="black"></path><path d="M12 304 a4 4 0 1 0 8 0 a4 4 0 1 0 -8 0z" fill="black"></path><path d="M620 784 a4 4 0 1 0 8 0 a4 4 0 1 0 -8 0zM460 816 a4 4 0 1 0 8 0 a4 4 0 1 0 -8 0zM588 816 a4 4 0 1 0 8 0 a4 4 0 1 0 -8 0zM620 848 a4 4 0 1 0 8 0 a4 4 0 1 0 -8 0z" fill="black"></path><path d="M1292 176 a4 4 0 1 0 8 0 a4 4 0 1 0 -8 0zM1260 144 a4 4 0 1 0 8 0 a4 4 0 1 0 -8 0zM684 240 a4 4 0 1 0 8 0 a4 4 0 1 0 -8 0zM492 208 a4 4 0 1 0 8 0 a4 4 0 1 0 -8 0zM44 272 a4 4 0 1 0 8 0 a4 4 0 1 0 -8 0zM812 208 a4 4 0 1 0 8 0 a4 4 0 1 0 -8 0zM1164 144 a4 4 0 1 0 8 0 a4 4 0 1 0 -8 0zM1004 144 a4 4 0 1 0 8 0 a4 4 0 1 0 -8 0zM844 144 a4 4 0 1 0 8 0 a4 4 0 1 0 -8 0zM1068 144 a4 4 0 1 0 8 0 a4 4 0 1 0 -8 0zM108 272 a4 4 0 1 0 8 0 a4 4 0 1 0 -8 0z" fill="black"></path><path d="M236 784 a4 4 0 1 0 8 0 a4 4 0 1 0 -8 0zM172 816 a4 4 0 1 0 8 0 a4 4 0 1 0 -8 0zM300 816 a4 4 0 1 0 8 0 a4 4 0 1 0 -8 0z" fill="black"></path><path d="M332 176 a4 4 0 1 0 8 0 a4 4 0 1 0 -8 0zM268 176 a4 4 0 1 0 8 0 a4 4 0 1 0 -8 0zM332 208 a4 4 0 1 0 8 0 a4 4 0 1 0 -8 0zM140 176 a4 4 0 1 0 8 0 a4 4 0 1 0 -8 0z" fill="black"></path></mask></defs></svg>