<svg xmlns="http://www.w3.org/2000/svg" version="1.1" xmlns:xlink="http://www.w3.org/1999/xlink" xmlns:svgjs="http://svgjs.com/svgjs" width="1440" height="800" preserveAspectRatio="none" viewBox="0 0 1440 800"><g mask="url(&quot;#SvgjsMask1064&quot;)" fill="none"><path d="M1560 800L0 800 L0 576.69Q28.68 533.37, 72 562.05Q125.68 543.73, 144 597.42Q215.81 549.23, 264 621.05Q295.64 532.69, 384 564.33Q427.74 536.07, 456 579.81Q504.24 556.04, 528 604.28Q562.1 518.38, 648 552.47Q690.6 523.07, 720 565.67Q784.7 558.37, 792 623.06Q794.08 553.14, 864 555.22Q917.73 536.95, 936 590.68Q1002.7 537.38, 1056 604.08Q1099.73 575.81, 1128 619.54Q1138 557.54, 1200 567.54Q1272.02 519.56, 1320 591.58Q1361.98 513.56, 1440 555.54Q1529.33 524.87, 1560 614.19z" fill="rgba(0, 148, 181, 0.22)"></path><path d="M1464 800L0 800 L0 674.15Q25.12 627.26, 72 652.38Q101.89 610.27, 144 640.16Q194.87 619.02, 216 669.89Q287.83 621.72, 336 693.55Q339.79 625.34, 408 629.12Q437.81 586.93, 480 616.74Q575.14 591.88, 600 687.02Q647.13 614.14, 720 661.27Q757.45 578.72, 840 616.18Q882.24 586.41, 912 628.65Q980.85 577.5, 1032 646.35Q1114.28 608.63, 1152 690.9Q1202.39 621.29, 1272 671.68Q1306.17 585.85, 1392 620.02Q1443.28 599.3, 1464 650.57z" fill="rgba(0, 148, 181, 0.35)"></path><path d="M1512 800L0 800 L0 761.45Q10.87 700.32, 72 711.18Q120.25 639.43, 192 687.68Q249.22 672.89, 264 730.11Q340.15 686.26, 384 762.42Q411.96 718.38, 456 746.33Q497.19 667.52, 576 708.7Q621.31 682.01, 648 727.32Q698.01 705.33, 720 755.34Q747 710.35, 792 737.35Q814.84 688.19, 864 711.04Q892.58 667.62, 936 696.19Q991.02 679.22, 1008 734.24Q1055.72 709.96, 1080 757.68Q1096.33 702.01, 1152 718.34Q1205.97 652.31, 1272 706.28Q1357.61 671.89, 1392 757.5Q1439.73 685.23, 1512 732.96z" fill="rgba(0, 148, 181, 0.63)"></path><path d="M1488 800L0 800 L0 785.08Q29.24 742.32, 72 771.55Q148.52 728.07, 192 804.59Q235.8 776.39, 264 820.2Q285.64 769.84, 336 791.48Q347.71 731.19, 408 742.9Q478.44 693.34, 528 763.78Q586.13 749.91, 600 808.04Q649.12 737.15, 720 786.27Q762.61 708.88, 840 751.48Q887.72 727.2, 912 774.92Q986.44 729.36, 1032 803.8Q1046.82 746.62, 1104 761.44Q1150.29 735.73, 1176 782.02Q1218.94 704.96, 1296 747.91Q1393.55 725.45, 1416 823Q1432.94 767.94, 1488 784.89z" fill="rgba(0, 148, 181, 1)"></path></g><defs><mask id="SvgjsMask1064"><rect width="1440" height="800" fill="#ffffff"></rect></mask></defs></svg>