<svg xmlns="http://www.w3.org/2000/svg" version="1.1" xmlns:xlink="http://www.w3.org/1999/xlink" xmlns:svgjs="http://svgjs.com/svgjs" width="1440" height="800" preserveAspectRatio="none" viewBox="0 0 1440 800"><g mask="url(&quot;#SvgjsMask1085&quot;)" fill="none"><path d="M -695.3718424016683,691 C -551.37,559.2 -263.37,10.2 24.628157598331697,32 C 312.63,53.8 456.63,773 744.6281575983317,800 C 1032.63,827 1325.55,216.2 1464.6281575983317,167 C 1603.7,117.8 1444.93,476.6 1440,554" stroke="rgba(0, 148, 181, 0.49)" stroke-width="2"></path><path d="M -696.1844286719565,416 C -552.18,377.4 -264.18,173 23.815571328043497,223 C 311.82,273 455.82,650.4 743.8155713280435,666 C 1031.82,681.6 1324.58,332 1463.8155713280435,301 C 1603.05,270 1444.76,469 1440,511" stroke="rgba(0, 148, 181, 0.49)" stroke-width="2"></path><path d="M -509.2924843060748,793 C -365.29,700.2 -77.29,356.2 210.70751569392522,329 C 498.71,301.8 642.71,656.8 930.7075156939252,657 C 1218.71,657.2 1548.85,374.8 1650.7075156939252,330 C 1752.57,285.2 1482.14,412.4 1440,433" stroke="rgba(0, 148, 181, 0.49)" stroke-width="2"></path><path d="M -950.3946902521587,153 C -806.39,241 -518.39,547.6 -230.3946902521587,593 C 57.61,638.4 201.61,416.6 489.60530974784126,380 C 777.61,343.4 1019.53,458.8 1209.6053097478414,410 C 1399.68,361.2 1393.92,190.8 1440,136" stroke="rgba(0, 148, 181, 0.49)" stroke-width="2"></path><path d="M -906.0052051073907,325 C -762.01,368.4 -474.01,551.2 -186.00520510739068,542 C 101.99,532.8 245.99,259.6 533.9947948926093,279 C 821.99,298.4 1072.79,641.2 1253.9947948926092,639 C 1435.2,636.8 1402.8,342.2 1440,268" stroke="rgba(0, 148, 181, 0.49)" stroke-width="2"></path></g><defs><mask id="SvgjsMask1085"><rect width="1440" height="800" fill="#ffffff"></rect></mask></defs></svg>