<svg width="54" height="40" viewBox="0 0 54 40" fill="none" xmlns="http://www.w3.org/2000/svg">
<path d="M0 0H54V40H0V0Z" fill="#012169"/>
<path d="M6.32812 0L26.9156 15.0833L47.4188 0H54V5.16667L33.75 20.0833L54 34.9167V40H47.25L27 25.0833L6.83437 40H0V35L20.1656 20.1667L0 5.33333V0H6.32812Z" fill="white"/>
<path d="M35.775 23.4167L54 36.6667V40L31.1344 23.4167H35.775ZM20.25 25.0833L20.7563 28L4.55625 40H0L20.25 25.0833ZM54 0V0.25L32.9906 15.9167L33.1594 12.25L49.7812 0H54ZM0 0L20.1656 14.6667H15.1031L0 3.5V0Z" fill="#C8102E"/>
<path d="M20.3344 0V40H33.8344V0H20.3344ZM0 13.3333V26.6667H54V13.3333H0Z" fill="white"/>
<path d="M0 16.0833V24.0833H54V16.0833H0ZM23.0344 0V40H31.1344V0H23.0344Z" fill="#C8102E"/>
</svg>
