<svg width="80" height="60" viewBox="0 0 80 60" fill="none" xmlns="http://www.w3.org/2000/svg">
<g clip-path="url(#clip0_202_1076)">
<path fill-rule="evenodd" clip-rule="evenodd" d="M0 0H114V4.61725H0V0ZM0 9.23438H114V13.8516H0V9.23438ZM0 18.457H114V23.0859H0V18.457ZM0 27.6914H114V32.3086H0V27.6914ZM0 36.9258H114V41.543H0V36.9258ZM0 46.1484H114V50.7656H0V46.1484ZM0 55.3828H114V60H0V55.3828Z" fill="#BD3D44"/>
<path fill-rule="evenodd" clip-rule="evenodd" d="M0 4.61725H114V9.23438H0V4.61725ZM0 13.8516H114V18.457H0V13.8516ZM0 23.0742H114V27.6914H0V23.0742ZM0 32.3086H114V36.9258H0V32.3086ZM0 41.543H114V46.1601H0V41.543ZM0 50.7656H114V55.3828H0V50.7656Z" fill="white"/>
<path fill-rule="evenodd" clip-rule="evenodd" d="M0 0H45.5976V32.3086H0V0Z" fill="#192F5D"/>
<path fill-rule="evenodd" clip-rule="evenodd" d="M3.79688 1.38287L4.21875 2.66H5.55475L4.4765 3.44525L4.88675 4.73425L3.79688 3.93738L2.71875 4.7225L3.12888 3.44525L2.03912 2.66H3.3985L3.79688 1.38287ZM11.4024 1.38287L11.8125 2.66H13.1601L12.0702 3.44525L12.4805 4.73425L11.4024 3.93738L10.3125 4.7225L10.7226 3.44525L9.6445 2.66H10.9805L11.4024 1.38287ZM18.9961 1.38287L19.418 2.66013H20.7423L19.6641 3.44537L20.0741 4.73438L18.9844 3.9375L17.9062 4.72262L18.3164 3.44537L17.2265 2.66013H18.5742L18.9961 1.38287ZM26.6016 1.38287L27.0116 2.66013H28.3594L27.2695 3.44537L27.6914 4.73438L26.6015 3.9375L25.5117 4.72262L25.9336 3.44537L24.8438 2.66013H26.1798L26.6016 1.38287ZM34.1954 1.38287L34.6172 2.66013H35.9531L34.875 3.44537L35.2851 4.73438L34.1953 3.9375L33.1171 4.72262L33.5274 3.44537L32.4492 2.66013H33.7851L34.1954 1.38287ZM41.8008 1.38287L42.2109 2.66013H43.5586L42.4688 3.44537L42.8906 4.73438L41.8008 3.9375L40.7109 4.72262L41.1328 3.44537L40.043 2.66013H41.3906L41.8008 1.38287ZM7.6055 4.617L8.01562 5.8945H9.36325L8.27337 6.6795L8.67188 7.957L7.61713 7.17175L6.52738 7.95687L6.914 6.67963L5.85938 5.89437H7.19537L7.6055 4.617ZM15.1993 4.617L15.6211 5.8945H16.957L15.8671 6.6795L16.2891 7.957L15.1991 7.17175L14.1094 7.95687L14.5312 6.67963L13.4414 5.89437H14.789L15.1993 4.617ZM22.8048 4.617L23.2148 5.8945H24.5625L23.4726 6.6795L23.8827 7.957L22.8046 7.17175L21.7149 7.95687L22.125 6.67975L21.0469 5.8945H22.3829L22.8048 4.617ZM30.3985 4.617L30.8204 5.8945H32.1562L31.0664 6.6795L31.4883 7.957L30.3984 7.17175L29.3202 7.95687L29.7305 6.67963L28.6406 5.89437H30L30.3985 4.617ZM38.0039 4.617L38.414 5.8945H39.7617L38.6719 6.6795L39.082 7.957L38.0039 7.17175L36.914 7.95687L37.3242 6.67963L36.2461 5.89437H37.582L38.0039 4.617ZM3.79688 7.84L4.21875 9.14075H5.55475L4.4765 9.92587L4.88675 11.2033L3.79688 10.4064L2.71875 11.2033L3.12888 9.91413L2.03912 9.12912H3.3985L3.79688 7.84ZM11.4024 7.84L11.8125 9.12875H13.1601L12.0702 9.91388L12.4805 11.1914L11.4024 10.3944L10.3125 11.1912L10.7226 9.90225L9.6445 9.11712H10.9805L11.4024 7.84ZM18.9961 7.84L19.418 9.129H20.7423L19.6641 9.91413L20.0741 11.1916L18.9844 10.3946L17.9062 11.1915L18.3164 9.9025L17.2265 9.11738H18.5742L18.9961 7.84ZM26.6016 7.84L27.0116 9.129H28.3594L27.2695 9.91413L27.6914 11.1916L26.6015 10.3946L25.5117 11.1915L25.9336 9.9025L24.8438 9.11738H26.1798L26.6016 7.84ZM34.1954 7.84L34.6172 9.129H35.9531L34.875 9.914L35.2851 11.1915L34.1953 10.3945L33.1171 11.1914L33.5274 9.90238L32.4492 9.11725H33.7851L34.1954 7.84ZM41.8008 7.84L42.2109 9.129H43.5586L42.4688 9.91413L42.8906 11.1916L41.8008 10.3946L40.7109 11.1915L41.1328 9.9025L40.043 9.11738H41.3906L41.8008 7.84ZM7.6055 11.0743L8.01562 12.3516H9.36325L8.27337 13.1366L8.68363 14.4258L7.6055 13.6289L6.51562 14.414L6.92575 13.1368L5.84762 12.3516H7.18375L7.6055 11.0743ZM15.1993 11.0743L15.6211 12.3516H16.957L15.8671 13.1366L16.2891 14.4258L15.1991 13.6289L14.1094 14.414L14.5312 13.1368L13.4414 12.3516H14.789L15.1993 11.0743ZM22.8048 11.0743L23.2148 12.3516H24.5625L23.4726 13.1366L23.8827 14.4258L22.8046 13.6289L21.7149 14.414L22.125 13.1368L21.0469 12.3516H22.3829L22.8048 11.0743ZM30.3985 11.0743L30.8204 12.3516H32.1562L31.0781 13.1366L31.4883 14.4258L30.3984 13.6289L29.3202 14.414L29.7305 13.1368L28.6406 12.3516H30L30.3985 11.0743ZM38.0039 11.0743L38.414 12.3516H39.7617L38.6719 13.1366L39.082 14.4258L38.0039 13.6289L36.914 14.414L37.3242 13.1368L36.2461 12.3516H37.582L38.0039 11.0743ZM3.79688 14.3086L4.21875 15.586H5.55475L4.4765 16.371L4.88675 17.6601L3.79688 16.8633L2.71875 17.6484L3.12888 16.3711L2.03912 15.586H3.3985L3.79688 14.3086ZM11.4024 14.3086L11.8125 15.586H13.1601L12.0702 16.371L12.4805 17.6485L11.4024 16.8633L10.3125 17.6484L10.7226 16.3711L9.6445 15.586H10.9805L11.4024 14.3086ZM18.9961 14.3086L19.418 15.586H20.7423L19.6641 16.371L20.0741 17.6601L18.9844 16.8633L17.9062 17.6484L18.3164 16.3711L17.2265 15.586H18.5742L18.9961 14.3086ZM26.6016 14.3086L27.0116 15.586H28.3594L27.2695 16.371L27.6914 17.6601L26.6015 16.8633L25.5117 17.6484L25.9336 16.3711L24.8438 15.586H26.1798L26.6016 14.3086ZM34.1954 14.3086L34.6172 15.586H35.9531L34.875 16.371L35.2851 17.6601L34.1953 16.8633L33.1171 17.6484L33.5274 16.3711L32.4492 15.586H33.7851L34.1954 14.3086ZM41.8008 14.3086L42.2109 15.586H43.5586L42.4688 16.371L42.8906 17.6601L41.8008 16.8633L40.7109 17.6484L41.1328 16.3711L40.043 15.586H41.3906L41.8008 14.3086ZM7.6055 17.543L8.01562 18.8204H9.36325L8.27337 19.6054L8.68363 20.8829L7.6055 20.086L6.51562 20.8829L6.92575 19.5938L5.84762 18.8086H7.18375L7.6055 17.543ZM15.1993 17.543L15.6211 18.8204H16.957L15.8671 19.6054L16.2891 20.8829L15.1991 20.086L14.1094 20.8829L14.5312 19.5938L13.4414 18.8086H14.789L15.1993 17.543ZM22.8048 17.543L23.2148 18.8204H24.5625L23.4726 19.6054L23.8827 20.8829L22.8046 20.086L21.7149 20.8829L22.125 19.5938L21.0469 18.8086H22.3829L22.8048 17.543ZM30.3985 17.543L30.8204 18.8204H32.1562L31.0781 19.6054L31.4883 20.8829L30.3984 20.086L29.3202 20.8829L29.7305 19.5938L28.6406 18.8086H30L30.3985 17.543ZM38.0039 17.543L38.414 18.8204H39.7617L38.6719 19.6054L39.082 20.8829L38.0039 20.086L36.914 20.8829L37.3242 19.5938L36.2461 18.8086H37.582L38.0039 17.543ZM3.79688 20.7656L4.21875 22.0548H5.55475L4.4765 22.8398L4.88675 24.1055L3.79688 23.3204L2.71875 24.1054L3.12888 22.8281L2.03912 22.043H3.3985L3.79688 20.7656ZM11.4024 20.7656L11.8125 22.0548H13.1601L12.0702 22.8398L12.4923 24.1055L11.4023 23.3204L10.3125 24.1054L10.7344 22.8281L9.6445 22.043H10.9805L11.4024 20.7656ZM18.9961 20.7656L19.418 22.0548H20.7423L19.6641 22.8398L20.0741 24.1055L18.9844 23.3204L17.9062 24.1054L18.3164 22.8281L17.2265 22.043H18.5742L18.9961 20.7656ZM26.6016 20.7656L27.0116 22.0548H28.3594L27.2695 22.8398L27.6914 24.1055L26.6015 23.3204L25.5117 24.1054L25.9336 22.8281L24.8438 22.043H26.1798L26.6016 20.7656ZM34.1954 20.7656L34.6172 22.0548H35.9531L34.875 22.8398L35.2851 24.1055L34.1953 23.3204L33.1171 24.1054L33.5274 22.8281L32.4492 22.043H33.7851L34.1954 20.7656ZM41.8008 20.7656L42.2109 22.0548H43.5586L42.4688 22.8398L42.8906 24.1055L41.8008 23.3204L40.7109 24.1054L41.1328 22.8281L40.043 22.043H41.3906L41.8008 20.7656ZM7.6055 24L8.01562 25.2774H9.36325L8.27337 26.0625L8.68363 27.3516L7.6055 26.5548L6.51562 27.3398L6.92575 26.0625L5.84762 25.2774H7.18375L7.6055 24ZM15.1993 24L15.6211 25.2774H16.957L15.8671 26.0625L16.2891 27.3516L15.1991 26.5548L14.1094 27.3398L14.5312 26.0625L13.4414 25.2774H14.789L15.1993 24ZM22.8048 24L23.2148 25.2774H24.5625L23.4726 26.0625L23.8827 27.3516L22.8046 26.5548L21.7149 27.3398L22.125 26.0625L21.0469 25.2774H22.3829L22.8048 24ZM30.3985 24L30.8204 25.2774H32.1562L31.0781 26.0625L31.4883 27.3516L30.3984 26.5548L29.3202 27.3398L29.7305 26.0625L28.6406 25.2774H30L30.3985 24ZM38.0039 24L38.414 25.2774H39.7617L38.6719 26.0625L39.082 27.3516L38.0039 26.5548L36.914 27.3398L37.3242 26.0625L36.2461 25.2774H37.582L38.0039 24ZM3.79688 27.2344L4.21875 28.5117H5.55475L4.4765 29.2969L4.88675 30.5742L3.79688 29.7891L2.71875 30.5741L3.12888 29.2851L2.03912 28.5H3.3985L3.79688 27.2344ZM11.4024 27.2344L11.8125 28.5117H13.1601L12.0702 29.2969L12.4923 30.5742L11.4023 29.7891L10.3125 30.5741L10.7344 29.2851L9.6445 28.5H10.9805L11.4024 27.2344ZM18.9961 27.2344L19.418 28.5117H20.7423L19.6875 29.2969L20.0976 30.5742L19.0077 29.7891L17.9296 30.5741L18.3399 29.2851L17.25 28.5H18.5976L18.9961 27.2344ZM26.6016 27.2344L27.0116 28.5117H28.3594L27.2695 29.2969L27.6914 30.5742L26.6015 29.7891L25.5117 30.5741L25.9336 29.2851L24.8438 28.5H26.1798L26.6016 27.2344ZM34.1954 27.2344L34.6172 28.5117H35.9531L34.875 29.2969L35.2851 30.5742L34.1953 29.7891L33.1171 30.5741L33.5274 29.2851L32.4492 28.5H33.7851L34.1954 27.2344ZM41.8008 27.2344L42.2109 28.5117H43.5586L42.4688 29.2969L42.8906 30.5742L41.8008 29.7891L40.7109 30.5741L41.1328 29.2851L40.043 28.5H41.3906L41.8008 27.2344Z" fill="white"/>
<mask id="mask0_202_1076" style="mask-type:alpha" maskUnits="userSpaceOnUse" x="0" y="0" width="80" height="60">
<path d="M80 0V60H0L80 0Z" fill="#D9D9D9"/>
</mask>
<g mask="url(#mask0_202_1076)">
<path d="M0 0H80V60H0V0Z" fill="#012169"/>
<path d="M9.375 0L39.875 22.625L70.25 0H80V7.75L50 30.125L80 52.375V60H70L40 37.625L10.125 60H0V52.5L29.875 30.25L0 8V0H9.375Z" fill="white"/>
<path d="M53 35.125L80 55V60L46.125 35.125H53ZM30 37.625L30.75 42L6.75 60H0L30 37.625ZM80 0V0.375L48.875 23.875L49.125 18.375L73.75 0H80ZM0 0L29.875 22H22.375L0 5.25V0Z" fill="#C8102E"/>
<path d="M30.125 0V60H50.125V0H30.125ZM0 20V40H80V20H0Z" fill="white"/>
<path d="M0 24.125V36.125H80V24.125H0ZM34.125 0V60H46.125V0H34.125Z" fill="#C8102E"/>
</g>
</g>
<defs>
<clipPath id="clip0_202_1076">
<rect width="80" height="60" fill="white"/>
</clipPath>
</defs>
</svg>
