<svg width="54" height="40" viewBox="0 0 54 40" fill="none" xmlns="http://www.w3.org/2000/svg">
<path d="M21.6001 0H54.0001V40H21.6001V0Z" fill="#FF0000"/>
<path d="M0 0H21.6V40H0V0Z" fill="#006600"/>
<path fill-rule="evenodd" clip-rule="evenodd" d="M28.6454 25.5166C25.9201 25.4333 13.4579 17.7499 13.3735 16.5166L14.057 15.3916C15.2973 17.1666 28.0379 24.6416 29.2951 24.3749L28.6454 25.5166Z" fill="#FFFF00" stroke="black" stroke-width="0.075" stroke-linecap="round" stroke-linejoin="round"/>
<path fill-rule="evenodd" clip-rule="evenodd" d="M13.9132 15.2332C13.6685 15.8832 17.17 18.0166 21.3719 20.5499C25.5822 23.0749 29.2104 24.6332 29.4719 24.4166L29.5985 24.1832C29.5479 24.2666 29.4297 24.2916 29.2357 24.2332C28.0966 23.9082 25.135 22.5666 21.4647 20.3666C17.786 18.1666 14.5966 16.1416 14.0988 15.2832C14.06 15.2028 14.0426 15.1139 14.0482 15.0249H14.0313L13.9301 15.2082L13.9132 15.2332ZM28.7041 25.5499C28.6619 25.6332 28.5691 25.6332 28.4088 25.6166C27.3963 25.5082 24.3082 24.0249 20.6547 21.8666C16.4022 19.3499 12.8922 17.0666 13.2804 16.4666L13.3816 16.2832L13.3985 16.2916C13.061 17.3082 20.3257 21.4082 20.756 21.6749C24.9579 24.2416 28.5016 25.7499 28.8138 25.3582L28.7041 25.5499Z" fill="#FFFF00" stroke="black" stroke-width="0.075" stroke-linecap="round" stroke-linejoin="round"/>
<path fill-rule="evenodd" clip-rule="evenodd" d="M21.6169 17.2666C24.3337 17.2416 27.6919 16.8999 29.6325 16.1333L29.2106 15.4666C28.0715 16.0916 24.6965 16.5083 21.5915 16.5666C17.9297 16.5333 15.3394 16.1916 14.04 15.3333L13.6519 16.0499C16.0312 17.0499 18.4781 17.2583 21.6169 17.2666Z" fill="#FFFF00"/>
<path d="M21.6169 17.2666C24.3337 17.2416 27.6919 16.8999 29.6325 16.1333L29.2106 15.4666C28.0715 16.0916 24.6965 16.5083 21.5915 16.5666C17.9297 16.5333 15.3394 16.1916 14.04 15.3333L13.6519 16.0499C16.0312 17.0499 18.4781 17.2583 21.6169 17.2666" stroke="black" stroke-width="0.075" stroke-linecap="round" stroke-linejoin="round"/>
<path fill-rule="evenodd" clip-rule="evenodd" d="M29.7419 16.15C29.6744 16.2583 28.4088 16.6833 26.5525 17C24.9162 17.2449 23.2632 17.3647 21.6082 17.3583C20.0225 17.3642 18.4382 17.2639 16.8663 17.0583C14.9172 16.7583 13.9132 16.3416 13.5335 16.1916L13.6263 16.0083C14.6979 16.425 15.7104 16.675 16.8916 16.8583C18.4521 17.0664 20.0251 17.1694 21.5997 17.1666C23.2462 17.1683 24.8904 17.0486 26.5188 16.8083C28.4172 16.5 29.455 16.1083 29.6069 15.9333L29.7419 16.1583V16.15ZM29.3707 15.475C29.1682 15.6416 28.1388 16 26.3332 16.2833C24.7739 16.5061 23.2005 16.6175 21.625 16.6166C19.7688 16.6166 18.2416 16.4833 17.0857 16.3166C15.2463 16.0833 14.2675 15.65 13.9132 15.5333L14.0229 15.35C14.3013 15.4916 15.2379 15.8666 17.1025 16.125C18.6015 16.3233 20.1127 16.4179 21.625 16.4083C23.1893 16.4088 24.7515 16.2974 26.2994 16.075C28.1135 15.825 29.0922 15.375 29.2441 15.2583L29.3707 15.475ZM12.6813 20.5C14.3519 21.3916 18.0729 21.8333 21.5913 21.8666C24.7975 21.875 28.9657 21.3833 30.5266 20.5666L30.4844 19.675C29.995 20.425 25.5232 21.15 21.5575 21.125C17.5919 21.0916 13.9047 20.4916 12.6729 19.7083V20.5" fill="#FFFF00"/>
<path d="M12.6813 20.5C14.3519 21.3916 18.0729 21.8333 21.5913 21.8666C24.7975 21.875 28.9657 21.3833 30.5266 20.5666L30.4844 19.675C29.995 20.425 25.5232 21.15 21.5575 21.125C17.5919 21.0916 13.9047 20.4916 12.6729 19.7083V20.5M29.7419 16.15C29.6744 16.2583 28.4088 16.6833 26.5525 17C24.9162 17.2449 23.2632 17.3647 21.6082 17.3583C20.0225 17.3642 18.4382 17.2639 16.8663 17.0583C14.9172 16.7583 13.9132 16.3416 13.5335 16.1916L13.6263 16.0083C14.6979 16.425 15.7104 16.675 16.8916 16.8583C18.4521 17.0664 20.0251 17.1694 21.5997 17.1666C23.2462 17.1683 24.8904 17.0486 26.5188 16.8083C28.4172 16.5 29.455 16.1083 29.6069 15.9333L29.7419 16.1583V16.15ZM29.3707 15.475C29.1682 15.6416 28.1388 16 26.3332 16.2833C24.7739 16.5061 23.2005 16.6175 21.625 16.6166C19.7688 16.6166 18.2416 16.4833 17.0857 16.3166C15.2463 16.0833 14.2675 15.65 13.9132 15.5333L14.0229 15.35C14.3013 15.4916 15.2379 15.8666 17.1025 16.125C18.6015 16.3233 20.1127 16.4179 21.625 16.4083C23.1893 16.4088 24.7515 16.2974 26.2994 16.075C28.1135 15.825 29.0922 15.375 29.2441 15.2583L29.3707 15.475V15.475Z" stroke="black" stroke-width="0.075" stroke-linecap="round" stroke-linejoin="round"/>
<path fill-rule="evenodd" clip-rule="evenodd" d="M30.6112 20.3749V20.5832C30.3749 20.8666 28.9068 21.2832 27.0674 21.5832C25.24 21.8426 23.3954 21.9652 21.5493 21.9499C19.7988 21.9646 18.0497 21.8448 16.318 21.5916C15.0259 21.4441 13.7632 21.107 12.5718 20.5916V20.3499C13.3902 20.8832 15.6008 21.2832 16.3433 21.3999C17.6765 21.5999 19.3893 21.7499 21.5493 21.7499C23.819 21.7499 25.633 21.5916 27.0337 21.3832C28.3583 21.1916 30.2399 20.6999 30.6112 20.3749ZM30.6112 19.6249V19.8332C30.3749 20.1082 28.9068 20.5249 27.0674 20.8249C25.2402 21.0871 23.3956 21.2125 21.5493 21.1999C19.7989 21.2101 18.0502 21.0903 16.318 20.8416C15.0259 20.6941 13.7632 20.357 12.5718 19.8416V19.5916C13.3902 20.1332 15.6093 20.5249 16.3433 20.6416C18.067 20.8909 19.8073 21.0107 21.5493 20.9999C23.819 20.9999 25.6415 20.8332 27.0337 20.6249C28.3583 20.4416 30.2399 19.9499 30.6112 19.6249ZM21.583 25.3582C17.7355 25.3416 14.4365 24.3249 13.7362 24.1582L14.2424 24.9416C16.609 25.7694 19.1064 26.173 21.6168 26.1332C24.5446 26.0499 27.1012 25.8249 28.8983 24.9582L29.4215 24.1416C28.198 24.7166 24.0215 25.3582 21.5746 25.3582" fill="#FFFF00"/>
<path d="M21.583 25.3582C17.7355 25.3416 14.4365 24.3249 13.7362 24.1582L14.2424 24.9416C16.609 25.7694 19.1064 26.173 21.6168 26.1332C24.5446 26.0499 27.1012 25.8249 28.8983 24.9582L29.4215 24.1416C28.198 24.7166 24.0215 25.3582 21.5746 25.3582M30.6112 20.3749V20.5832C30.3749 20.8666 28.9068 21.2832 27.0674 21.5832C25.24 21.8426 23.3954 21.9652 21.5493 21.9499C19.7988 21.9646 18.0497 21.8448 16.318 21.5916C15.0259 21.4441 13.7632 21.107 12.5718 20.5916V20.3499C13.3902 20.8832 15.6008 21.2832 16.3433 21.3999C17.6765 21.5999 19.3893 21.7499 21.5493 21.7499C23.819 21.7499 25.633 21.5916 27.0337 21.3832C28.3583 21.1916 30.2399 20.6999 30.6112 20.3749V20.3749ZM30.6112 19.6249V19.8332C30.3749 20.1082 28.9068 20.5249 27.0674 20.8249C25.2402 21.0871 23.3956 21.2125 21.5493 21.1999C19.7989 21.2101 18.0502 21.0903 16.318 20.8416C15.0259 20.6941 13.7632 20.357 12.5718 19.8416V19.5916C13.3902 20.1332 15.6093 20.5249 16.3433 20.6416C18.067 20.8909 19.8073 21.0107 21.5493 20.9999C23.819 20.9999 25.6415 20.8332 27.0337 20.6249C28.3583 20.4416 30.2399 19.9499 30.6112 19.6249V19.6249Z" stroke="black" stroke-width="0.075" stroke-linecap="round" stroke-linejoin="round"/>
<path fill-rule="evenodd" clip-rule="evenodd" d="M29.101 24.7749C29.0242 24.8873 28.9455 24.9984 28.8648 25.1082C28.021 25.4082 26.671 25.7249 26.1142 25.8082C24.6199 26.0832 23.1032 26.2227 21.5832 26.2249C18.1745 26.1749 15.3817 25.5165 14.0738 24.9499L13.9642 24.7749L13.981 24.7415L14.1582 24.8165C16.5596 25.6014 19.0707 26.0091 21.6001 26.0249C23.1863 26.0249 24.7642 25.8499 26.0382 25.6249C27.9957 25.2332 28.7888 24.9415 29.0335 24.8082L29.0926 24.7749H29.101ZM29.5482 24.0415C29.4927 24.1391 29.4364 24.2364 29.3795 24.3332C28.9238 24.4999 27.692 24.8499 25.8948 25.0999C24.7135 25.2582 23.9795 25.4165 21.6254 25.4582C18.9344 25.4315 16.2599 25.0389 13.6773 24.2915L13.5845 24.0832C16.2084 24.7994 18.9122 25.1913 21.6338 25.2499C23.7854 25.2082 24.7051 25.0499 25.8779 24.8915C27.9704 24.5749 29.0251 24.2249 29.3373 24.1332C29.3375 24.1277 29.3375 24.1221 29.3373 24.1165L29.5567 24.0332L29.5482 24.0415Z" fill="#FFFF00" stroke="black" stroke-width="0.075" stroke-linecap="round" stroke-linejoin="round"/>
<path fill-rule="evenodd" clip-rule="evenodd" d="M29.5985 19.8C29.6069 22.3 28.3076 24.55 27.2697 25.5333C25.7369 27.0098 23.69 27.8507 21.5491 27.8833C18.9926 27.925 16.5879 26.2833 15.9382 25.5583C14.4848 24.036 13.6575 22.0337 13.6179 19.9417C13.7697 17.2083 14.8582 15.3083 16.4276 14C17.9521 12.7605 19.8699 12.0908 21.8444 12.1083C22.9971 12.1635 24.1254 12.4559 25.157 12.9668C26.1886 13.4777 27.1007 14.1957 27.8351 15.075C28.8897 16.3417 29.3538 17.7167 29.5985 19.8ZM21.566 11.25C23.9264 11.2499 26.1911 12.1714 27.8664 13.8136C29.5418 15.4558 30.4919 17.6855 30.5097 20.0167C30.5097 21.1734 30.2791 22.3188 29.8309 23.3875C29.3827 24.4561 28.7257 25.4272 27.8976 26.2451C27.0694 27.063 26.0863 27.7118 25.0042 28.1545C23.9222 28.5972 22.7625 28.825 21.5913 28.825C20.4201 28.825 19.2604 28.5972 18.1784 28.1545C17.0963 27.7118 16.1132 27.063 15.285 26.2451C14.4569 25.4272 13.7999 24.4561 13.3517 23.3875C12.9035 22.3188 12.6729 21.1734 12.6729 20.0167C12.6644 15.1833 16.6638 11.25 21.566 11.25Z" fill="#FFFF00"/>
<path d="M21.566 11.25C23.9264 11.2499 26.1911 12.1714 27.8664 13.8136C29.5418 15.4558 30.4919 17.6855 30.5097 20.0167C30.5097 21.1734 30.2791 22.3188 29.8309 23.3875C29.3827 24.4561 28.7257 25.4272 27.8976 26.2451C27.0694 27.063 26.0863 27.7118 25.0042 28.1545C23.9222 28.5972 22.7625 28.825 21.5913 28.825C20.4201 28.825 19.2604 28.5972 18.1784 28.1545C17.0963 27.7118 16.1132 27.063 15.285 26.2451C14.4569 25.4272 13.7999 24.4561 13.3517 23.3875C12.9035 22.3188 12.6729 21.1734 12.6729 20.0167C12.6644 15.1833 16.6638 11.25 21.566 11.25M29.5985 19.8C29.6069 22.3 28.3076 24.55 27.2697 25.5333C25.7369 27.0098 23.69 27.8507 21.5491 27.8833C18.9926 27.925 16.5879 26.2833 15.9382 25.5583C14.4848 24.036 13.6575 22.0337 13.6179 19.9417C13.7697 17.2083 14.8582 15.3083 16.4276 14C17.9521 12.7605 19.8699 12.0908 21.8444 12.1083C22.9971 12.1635 24.1254 12.4559 25.157 12.9668C26.1886 13.4777 27.1007 14.1957 27.8351 15.075C28.8897 16.3417 29.3538 17.7167 29.5985 19.8V19.8Z" stroke="black" stroke-width="0.075" stroke-linecap="round" stroke-linejoin="round"/>
<path fill-rule="evenodd" clip-rule="evenodd" d="M21.5915 11.2083C26.5021 11.2083 30.5015 15.1583 30.5015 20.0083C30.5015 24.8583 26.5021 28.8083 21.5999 28.8083C16.6978 28.8083 12.6899 24.8583 12.6899 20.0083C12.6899 15.1583 16.6893 11.2083 21.5999 11.2083H21.5915ZM12.8756 19.9999C12.8756 24.7333 16.8159 28.6082 21.5915 28.6082C26.3671 28.6082 30.3074 24.7333 30.3074 19.9999C30.3074 15.2666 26.3671 11.3916 21.5915 11.3916C16.8159 11.3916 12.8756 15.2666 12.8756 19.9999Z" fill="#FFFF00" stroke="black" stroke-width="0.075" stroke-linecap="round" stroke-linejoin="round"/>
<path fill-rule="evenodd" clip-rule="evenodd" d="M21.6 11.9417C23.7618 11.9482 25.8333 12.7994 27.3619 14.3092C28.8906 15.819 29.7524 17.8648 29.759 20C29.7524 22.1359 28.8909 24.1826 27.3625 25.6938C25.834 27.2049 23.7626 28.0579 21.6 28.0666C17.1281 28.0666 13.4409 24.4333 13.4409 20C13.4498 17.8655 14.3123 15.8209 15.8405 14.3116C17.3687 12.8022 19.4388 11.9504 21.6 11.9417ZM13.635 20C13.635 24.3333 17.2294 27.8666 21.6 27.8666C25.9706 27.8666 29.565 24.325 29.565 20C29.565 15.6666 25.9706 12.1333 21.6 12.1333C19.4903 12.1421 17.4695 12.9737 15.9777 14.4471C14.4859 15.9205 13.6439 17.9163 13.635 20Z" fill="#FFFF00" stroke="black" stroke-width="0.075" stroke-linecap="round" stroke-linejoin="round"/>
<path fill-rule="evenodd" clip-rule="evenodd" d="M21.9626 11.1667H21.1948V28.8584H21.9542L21.9626 11.1667Z" fill="#FFFF00" stroke="black" stroke-width="0.075" stroke-linecap="round" stroke-linejoin="round"/>
<path fill-rule="evenodd" clip-rule="evenodd" d="M21.8785 11.0667H22.0726V28.9583H21.887V11.0667H21.8785ZM21.1191 11.0667H21.3216V28.9583H21.1276V11.0667H21.1191Z" fill="#FFFF00" stroke="black" stroke-width="0.075" stroke-linecap="round" stroke-linejoin="round"/>
<path fill-rule="evenodd" clip-rule="evenodd" d="M30.5101 20.3499V19.6999L29.9701 19.1999L26.9073 18.3999L22.503 17.9583L17.1873 18.2249L13.4073 19.1083L12.6479 19.6666V20.3249L14.5801 19.4666L19.1701 18.7583H23.5829L26.8229 19.1083L29.0673 19.6416L30.5101 20.3499Z" fill="#FFFF00" stroke="black" stroke-width="0.075" stroke-linecap="round" stroke-linejoin="round"/>
<path fill-rule="evenodd" clip-rule="evenodd" d="M21.5999 18.65C23.7008 18.65 25.7343 18.8417 27.3627 19.15C29.0333 19.4834 30.2062 19.9 30.6112 20.3584V20.5917C30.1218 20.0084 28.544 19.5917 27.3205 19.3417C25.7174 19.0417 23.6924 18.8417 21.5915 18.8417C19.3893 18.8417 17.3305 19.0584 15.7443 19.3584C14.4787 19.6084 12.7827 20.1084 12.5718 20.5917V20.35C12.6815 20.0167 13.9471 19.5167 15.719 19.1584C17.3137 18.85 19.3724 18.65 21.5915 18.65H21.5999ZM21.5999 17.8917C23.5321 17.8879 25.4608 18.0552 27.3627 18.3917C29.0333 18.725 30.2062 19.1417 30.6112 19.6084V19.8334C30.1218 19.2584 28.544 18.8334 27.3205 18.5917C25.7174 18.2834 23.6924 18.0917 21.5915 18.0917C19.6332 18.0856 17.6786 18.2585 15.7527 18.6084C14.5293 18.8334 12.7658 19.35 12.5718 19.8334V19.6C12.6899 19.2667 13.9724 18.7417 15.719 18.4084C17.3221 18.1 19.3724 17.8917 21.5999 17.8917ZM21.5493 14.0417C24.8652 14.025 27.7593 14.5 29.084 15.1667L29.5649 16C28.4174 15.3834 25.2955 14.75 21.5577 14.8334C18.5118 14.8584 15.2549 15.1667 13.6265 16.0334L14.2002 15.0834C15.5418 14.3917 18.6974 14.0417 21.5493 14.0417Z" fill="#FFFF00"/>
<path d="M21.5493 14.0417C24.8652 14.025 27.7593 14.5 29.084 15.1667L29.5649 16C28.4174 15.3834 25.2955 14.75 21.5577 14.8334C18.5118 14.8584 15.2549 15.1667 13.6265 16.0334L14.2002 15.0834C15.5418 14.3917 18.6974 14.0417 21.5493 14.0417M21.5999 18.65C23.7008 18.65 25.7343 18.8417 27.3627 19.15C29.0333 19.4834 30.2062 19.9 30.6112 20.3584V20.5917C30.1218 20.0084 28.544 19.5917 27.3205 19.3417C25.7174 19.0417 23.6924 18.8417 21.5915 18.8417C19.3893 18.8417 17.3305 19.0584 15.7443 19.3584C14.4787 19.6084 12.7827 20.1084 12.5718 20.5917V20.35C12.6815 20.0167 13.9471 19.5167 15.719 19.1584C17.3137 18.85 19.3724 18.65 21.5915 18.65H21.5999ZM21.5999 17.8917C23.5321 17.8879 25.4608 18.0552 27.3627 18.3917C29.0333 18.725 30.2062 19.1417 30.6112 19.6084V19.8334C30.1218 19.2584 28.544 18.8334 27.3205 18.5917C25.7174 18.2834 23.6924 18.0917 21.5915 18.0917C19.6332 18.0856 17.6786 18.2585 15.7527 18.6084C14.5293 18.8334 12.7658 19.35 12.5718 19.8334V19.6C12.6899 19.2667 13.9724 18.7417 15.719 18.4084C17.3221 18.1 19.3724 17.8917 21.5999 17.8917V17.8917Z" stroke="black" stroke-width="0.075" stroke-linecap="round" stroke-linejoin="round"/>
<path fill-rule="evenodd" clip-rule="evenodd" d="M21.5999 14.7249C23.3312 14.6961 25.0618 14.816 26.7721 15.0833C28.1221 15.3333 29.413 15.6999 29.5986 15.8999L29.7421 16.1499C29.2949 15.8666 28.1727 15.5416 26.7383 15.2749C25.3039 15.0083 23.473 14.9166 21.5914 14.9249C19.4568 14.9166 17.7946 15.0249 16.3771 15.2749C15.3999 15.4102 14.4512 15.7 13.5674 16.1333L13.7108 15.8749C14.2171 15.6249 15.0018 15.3166 16.3349 15.0749C17.8114 14.8083 19.4905 14.7333 21.5999 14.7249ZM21.5999 13.9749C23.4055 13.9583 25.1943 14.0583 26.5864 14.3083C27.4884 14.4405 28.3613 14.7223 29.1683 15.1416L29.3793 15.4749C29.0249 15.0833 27.6918 14.7083 26.5021 14.5083C25.1183 14.2666 23.4055 14.1749 21.5999 14.1583C19.9191 14.1435 18.2399 14.2661 16.5796 14.5249C15.7114 14.6444 14.8682 14.9004 14.0821 15.2833L14.2677 15.0083C14.7571 14.7583 15.5502 14.5249 16.5458 14.3333C18.2171 14.0711 19.9078 13.9484 21.5999 13.9666V13.9749ZM26.0211 23.6666C24.5587 23.4165 23.0754 23.3049 21.5914 23.3333C16.0649 23.3999 14.2846 24.4583 14.0652 24.7749L13.6433 24.1083C15.0608 23.1083 18.0646 22.5416 21.6252 22.5916C23.473 22.6249 25.0677 22.7499 26.4008 23.0083L26.0211 23.6749" fill="#FFFF00"/>
<path d="M26.0211 23.6666C24.5587 23.4165 23.0754 23.3049 21.5914 23.3333C16.0649 23.3999 14.2846 24.4583 14.0652 24.7749L13.6433 24.1083C15.0608 23.1083 18.0646 22.5416 21.6252 22.5916C23.473 22.6249 25.0677 22.7499 26.4008 23.0083L26.0211 23.6749M21.5999 14.7249C23.3312 14.6961 25.0618 14.816 26.7721 15.0833C28.1221 15.3333 29.413 15.6999 29.5986 15.8999L29.7421 16.1499C29.2949 15.8666 28.1727 15.5416 26.7383 15.2749C25.3039 15.0083 23.473 14.9166 21.5914 14.9249C19.4568 14.9166 17.7946 15.0249 16.3771 15.2749C15.3999 15.4102 14.4512 15.7 13.5674 16.1333L13.7108 15.8749C14.2171 15.6249 15.0018 15.3166 16.3349 15.0749C17.8114 14.8083 19.4905 14.7333 21.5999 14.7249V14.7249ZM21.5999 13.9749C23.4055 13.9583 25.1943 14.0583 26.5864 14.3083C27.4884 14.4405 28.3613 14.7223 29.1683 15.1416L29.3793 15.4749C29.0249 15.0833 27.6918 14.7083 26.5021 14.5083C25.1183 14.2666 23.4055 14.1749 21.5999 14.1583C19.9191 14.1435 18.2399 14.2661 16.5796 14.5249C15.7114 14.6444 14.8682 14.9004 14.0821 15.2833L14.2677 15.0083C14.7571 14.7583 15.5502 14.5249 16.5458 14.3333C18.2171 14.0711 19.9078 13.9484 21.5999 13.9666V13.9749Z" stroke="black" stroke-width="0.075" stroke-linecap="round" stroke-linejoin="round"/>
<path fill-rule="evenodd" clip-rule="evenodd" d="M21.566 23.2415C23.1016 23.2665 24.6035 23.3249 26.0632 23.5915L25.9619 23.7749C24.6119 23.5249 23.1607 23.4415 21.5744 23.4415C19.5241 23.4249 17.4654 23.6165 15.6682 24.1249C15.1029 24.2832 14.1663 24.6415 14.0651 24.9415L13.9638 24.7749C13.9976 24.5915 14.5544 24.2249 15.6176 23.9415C17.6763 23.3582 19.6001 23.2499 21.566 23.2415ZM21.6335 22.4749C23.2543 22.4732 24.8721 22.6127 26.4682 22.8915L26.3585 23.0832C24.8 22.8008 23.218 22.6641 21.6335 22.6749C19.5916 22.6749 17.4232 22.8249 15.4488 23.3915C14.816 23.5749 13.7107 23.9749 13.6769 24.2832L13.5757 24.0999C13.5926 23.8165 14.546 23.4415 15.4066 23.1999C17.3894 22.6249 19.5663 22.4832 21.6335 22.4749Z" fill="#FFFF00" stroke="black" stroke-width="0.075" stroke-linecap="round" stroke-linejoin="round"/>
<path fill-rule="evenodd" clip-rule="evenodd" d="M29.4804 24.2082L28.8223 25.2332L26.907 23.5582L21.9626 20.2666L16.377 17.2416L13.4829 16.2666L14.0988 15.1332L14.3098 15.0249L16.107 15.4666L22.047 18.4916L25.4726 20.6249L28.3498 22.6666L29.5226 23.9999L29.4804 24.2082Z" fill="#FFFF00" stroke="black" stroke-width="0.075" stroke-linecap="round" stroke-linejoin="round"/>
<path fill-rule="evenodd" clip-rule="evenodd" d="M13.3817 16.2916C13.8879 15.9583 17.6173 17.5916 21.5323 19.925C25.422 22.2583 29.1513 24.8916 28.8138 25.3833L28.7042 25.5583L28.6535 25.6C28.662 25.5916 28.721 25.5166 28.6535 25.3416C28.4848 24.8 25.8354 22.7166 21.4563 20.1C17.1785 17.5916 13.6179 16.075 13.272 16.5083L13.3817 16.2916ZM29.6154 24.2C29.936 23.5666 26.4767 20.9916 22.182 18.4833C17.7945 16.025 14.622 14.575 14.0398 15.0083L13.9217 15.25C13.9217 15.2583 13.9217 15.2333 13.9554 15.2083C14.0567 15.125 14.2338 15.125 14.3098 15.125C15.3054 15.1416 18.1488 16.4333 22.1398 18.6916C23.8948 19.6916 29.531 23.275 29.5057 24.275C29.5057 24.3583 29.5142 24.375 29.4804 24.425L29.6238 24.2083L29.6154 24.2Z" fill="#FFFF00" stroke="black" stroke-width="0.075" stroke-linecap="round" stroke-linejoin="round"/>
<path d="M16.2539 20.9806C16.2552 21.6706 16.3951 22.3535 16.6655 22.9897C16.9358 23.626 17.3313 24.2029 17.8289 24.6872C18.3205 25.1802 18.906 25.5722 19.5516 25.8407C20.1973 26.1092 20.8904 26.2489 21.5909 26.2517C23.0087 26.2516 24.3684 25.6952 25.3709 24.705C25.8668 24.218 26.2604 23.6391 26.5292 23.0015C26.7979 22.3639 26.9365 21.6801 26.9369 20.9894V13.9494L16.2539 13.9316V20.9806Z" fill="white" stroke="black" stroke-width="0.0933336"/>
<path d="M16.4521 20.9895C16.454 21.6514 16.5886 22.3064 16.8481 22.9166C17.1077 23.5269 17.487 24.0804 17.9642 24.5451C18.9224 25.4964 20.2235 26.0335 21.5822 26.0384C22.9384 26.0392 24.2396 25.5085 25.2002 24.5629C25.6757 24.0974 26.0534 23.5436 26.3113 22.9334C26.5693 22.3232 26.7025 21.6686 26.7032 21.0073V14.1628H16.4701V20.9895M24.6602 16.2162V20.5629L24.6512 21.0162C24.6542 21.4133 24.5761 21.8069 24.4214 22.1735C24.2668 22.5401 24.0388 22.872 23.7512 23.1495C23.1788 23.7168 22.402 24.0365 21.5912 24.0384C20.7452 24.0384 19.9982 23.6829 19.4402 23.1318C18.8658 22.5665 18.5421 21.7992 18.5402 20.9984V16.1984L24.6602 16.2162Z" fill="#FF0000"/>
<path d="M16.4521 20.9895C16.454 21.6514 16.5886 22.3064 16.8481 22.9166C17.1077 23.5269 17.487 24.0804 17.9642 24.5451C18.9224 25.4964 20.2235 26.0335 21.5822 26.0384C22.9384 26.0392 24.2396 25.5085 25.2002 24.5629C25.6757 24.0974 26.0534 23.5436 26.3113 22.9334C26.5693 22.3232 26.7025 21.6686 26.7032 21.0073V14.1628H16.4701V20.9895M24.6602 16.2162V20.5629L24.6512 21.0162C24.6542 21.4133 24.5761 21.8069 24.4214 22.1735C24.2668 22.5401 24.0388 22.872 23.7512 23.1495C23.1788 23.7168 22.402 24.0365 21.5912 24.0384C20.7452 24.0384 19.9982 23.6829 19.4402 23.1318C18.8658 22.5665 18.5421 21.7992 18.5402 20.9984V16.1984L24.6602 16.2162Z" stroke="black" stroke-width="0.0666669"/>
<path d="M17.1182 15.9494C17.1272 15.4605 17.4782 15.345 17.4782 15.345C17.4872 15.345 17.8652 15.4694 17.8652 15.9583H17.1182" fill="#FFFF00"/>
<path d="M16.812 15.3539L16.749 15.9139H17.127C17.127 15.4516 17.487 15.3805 17.487 15.3805C17.496 15.3805 17.847 15.4783 17.856 15.9139H18.234L18.162 15.345H16.812V15.3539ZM16.722 15.9228H18.252C18.279 15.9228 18.306 15.9494 18.306 15.985C18.306 16.0294 18.279 16.0561 18.252 16.0561H16.722C16.695 16.0561 16.668 16.0294 16.668 15.985C16.668 15.9494 16.695 15.9228 16.731 15.9228H16.722Z" fill="#FFFF00" stroke="black" stroke-width="0.0666669"/>
<path d="M17.2801 15.914C17.2801 15.6206 17.4871 15.5406 17.4871 15.5406C17.4871 15.5406 17.6941 15.6295 17.6941 15.914H17.2801ZM16.7581 15.114H18.2251C18.2521 15.114 18.2791 15.1495 18.2791 15.1851C18.2791 15.2117 18.2521 15.2384 18.2251 15.2384H16.7581C16.7311 15.2384 16.7041 15.2117 16.7041 15.1762C16.7041 15.1495 16.7311 15.1229 16.7581 15.1229V15.114ZM17.3161 16.0473H18.1801C18.2071 16.0473 18.2341 16.074 18.2341 16.1095C18.2341 16.1451 18.2071 16.1717 18.1801 16.1717H16.7851C16.7491 16.1717 16.7311 16.1451 16.7311 16.1095C16.7311 16.074 16.7491 16.0473 16.7851 16.0473H17.3161ZM17.7661 15.1051H17.8741V15.1762H17.9551V15.1051H18.0721V15.1851H18.1531V15.0962H18.2611V15.274C18.2611 15.3095 18.2431 15.3273 18.2161 15.3273H17.8201C17.7931 15.3273 17.7661 15.3095 17.7661 15.2829V15.1051ZM18.1801 15.3451L18.2071 15.914H17.8201L17.8471 15.3362H18.1801" fill="#FFFF00"/>
<path d="M18.1801 15.3451L18.2071 15.914H17.8201L17.8471 15.3362H18.1801M17.2801 15.914C17.2801 15.6206 17.4871 15.5406 17.4871 15.5406C17.4871 15.5406 17.6941 15.6295 17.6941 15.914H17.2801ZM16.7581 15.114H18.2251C18.2521 15.114 18.2791 15.1495 18.2791 15.1851C18.2791 15.2117 18.2521 15.2384 18.2251 15.2384H16.7581C16.7311 15.2384 16.7041 15.2117 16.7041 15.1762C16.7041 15.1495 16.7311 15.1229 16.7581 15.1229V15.114ZM17.3161 16.0473H18.1801C18.2071 16.0473 18.2341 16.074 18.2341 16.1095C18.2341 16.1451 18.2071 16.1717 18.1801 16.1717H16.7851C16.7491 16.1717 16.7311 16.1451 16.7311 16.1095C16.7311 16.074 16.7491 16.0473 16.7851 16.0473H17.3161ZM17.7661 15.1051H17.8741V15.1762H17.9551V15.1051H18.0721V15.1851H18.1531V15.0962H18.2611V15.274C18.2611 15.3095 18.2431 15.3273 18.2161 15.3273H17.8201C17.7931 15.3273 17.7661 15.3095 17.7661 15.2829V15.1051Z" stroke="black" stroke-width="0.0666669"/>
<path d="M17.1901 14.8118V15.114H16.8301V14.8118H17.1901Z" fill="#FFFF00" stroke="black" stroke-width="0.0666669"/>
<path d="M17.1901 14.8118V15.114H16.8301V14.8118H17.1901Z" fill="#FFFF00" stroke="black" stroke-width="0.0666669"/>
<path d="M16.7671 14.5806H16.8751V14.6695H16.9561V14.5806H17.0641V14.6695H17.1451V14.5806H17.2531V14.7583C17.2531 14.7939 17.2351 14.8117 17.2081 14.8117H16.8211C16.8068 14.8117 16.793 14.8061 16.7829 14.7961C16.7728 14.7861 16.7671 14.7725 16.7671 14.7583V14.5806Z" fill="#FFFF00" stroke="black" stroke-width="0.0666669"/>
<path d="M16.7671 14.5806H16.8751V14.6695H16.9561V14.5806H17.0641V14.6695H17.1451V14.5806H17.2531V14.7583C17.2531 14.7939 17.2351 14.8117 17.2081 14.8117H16.8211C16.8068 14.8117 16.793 14.8061 16.7829 14.7961C16.7728 14.7861 16.7671 14.7725 16.7671 14.7583V14.5806Z" fill="#FFFF00" stroke="black" stroke-width="0.0666669"/>
<path d="M17.4512 14.7229C17.4512 14.6695 17.5322 14.6695 17.5322 14.7229V14.8651H17.4512V14.7229Z" fill="black"/>
<path d="M16.9741 14.9184C16.9741 14.8651 17.0452 14.8651 17.0452 14.9184V15.0251H16.9741V14.9184Z" fill="black"/>
<path d="M16.9741 14.9184C16.9741 14.8651 17.0452 14.8651 17.0452 14.9184V15.0251H16.9741V14.9184Z" fill="black"/>
<path d="M17.1182 15.9494C17.1272 15.4605 17.4782 15.345 17.4782 15.345C17.4872 15.345 17.8652 15.4694 17.8652 15.9583H17.1182" fill="#FFFF00"/>
<path d="M16.812 15.3539L16.749 15.9139H17.127C17.127 15.4516 17.487 15.3805 17.487 15.3805C17.496 15.3805 17.847 15.4783 17.856 15.9139H18.234L18.162 15.345H16.812V15.3539ZM16.722 15.9228H18.252C18.279 15.9228 18.306 15.9494 18.306 15.985C18.306 16.0294 18.279 16.0561 18.252 16.0561H16.722C16.695 16.0561 16.668 16.0294 16.668 15.985C16.668 15.9494 16.695 15.9228 16.731 15.9228H16.722Z" fill="#FFFF00" stroke="black" stroke-width="0.0666669"/>
<path d="M17.2801 15.914C17.2801 15.6206 17.4871 15.5406 17.4871 15.5406C17.4871 15.5406 17.6941 15.6295 17.6941 15.914H17.2801ZM16.7581 15.114H18.2251C18.2521 15.114 18.2791 15.1495 18.2791 15.1851C18.2791 15.2117 18.2521 15.2384 18.2251 15.2384H16.7581C16.7311 15.2384 16.7041 15.2117 16.7041 15.1762C16.7041 15.1495 16.7311 15.1229 16.7581 15.1229V15.114ZM17.3161 16.0473H18.1801C18.2071 16.0473 18.2341 16.074 18.2341 16.1095C18.2341 16.1451 18.2071 16.1717 18.1801 16.1717H16.7851C16.7491 16.1717 16.7311 16.1451 16.7311 16.1095C16.7311 16.074 16.7491 16.0473 16.7851 16.0473H17.3161ZM17.7661 15.1051H17.8741V15.1762H17.9551V15.1051H18.0721V15.1851H18.1531V15.0962H18.2611V15.274C18.2611 15.3095 18.2431 15.3273 18.2161 15.3273H17.8201C17.7931 15.3273 17.7661 15.3095 17.7661 15.2829V15.1051ZM18.1801 15.3451L18.2071 15.914H17.8201L17.8471 15.3362H18.1801" fill="#FFFF00"/>
<path d="M18.1801 15.3451L18.2071 15.914H17.8201L17.8471 15.3362H18.1801M17.2801 15.914C17.2801 15.6206 17.4871 15.5406 17.4871 15.5406C17.4871 15.5406 17.6941 15.6295 17.6941 15.914H17.2801ZM16.7581 15.114H18.2251C18.2521 15.114 18.2791 15.1495 18.2791 15.1851C18.2791 15.2117 18.2521 15.2384 18.2251 15.2384H16.7581C16.7311 15.2384 16.7041 15.2117 16.7041 15.1762C16.7041 15.1495 16.7311 15.1229 16.7581 15.1229V15.114ZM17.3161 16.0473H18.1801C18.2071 16.0473 18.2341 16.074 18.2341 16.1095C18.2341 16.1451 18.2071 16.1717 18.1801 16.1717H16.7851C16.7491 16.1717 16.7311 16.1451 16.7311 16.1095C16.7311 16.074 16.7491 16.0473 16.7851 16.0473H17.3161ZM17.7661 15.1051H17.8741V15.1762H17.9551V15.1051H18.0721V15.1851H18.1531V15.0962H18.2611V15.274C18.2611 15.3095 18.2431 15.3273 18.2161 15.3273H17.8201C17.7931 15.3273 17.7661 15.3095 17.7661 15.2829V15.1051Z" stroke="black" stroke-width="0.0666669"/>
<path d="M17.1901 14.8118V15.114H16.8301V14.8118H17.1901Z" fill="#FFFF00" stroke="black" stroke-width="0.0666669"/>
<path d="M17.1901 14.8118V15.114H16.8301V14.8118H17.1901Z" fill="#FFFF00" stroke="black" stroke-width="0.0666669"/>
<path d="M16.7671 14.5806H16.8751V14.6695H16.9561V14.5806H17.0641V14.6695H17.1451V14.5806H17.2531V14.7583C17.2531 14.7939 17.2351 14.8117 17.2081 14.8117H16.8211C16.8068 14.8117 16.793 14.8061 16.7829 14.7961C16.7728 14.7861 16.7671 14.7725 16.7671 14.7583V14.5806Z" fill="#FFFF00" stroke="black" stroke-width="0.0666669"/>
<path d="M16.7671 14.5806H16.8751V14.6695H16.9561V14.5806H17.0641V14.6695H17.1451V14.5806H17.2531V14.7583C17.2531 14.7939 17.2351 14.8117 17.2081 14.8117H16.8211C16.8068 14.8117 16.793 14.8061 16.7829 14.7961C16.7728 14.7861 16.7671 14.7725 16.7671 14.7583V14.5806Z" fill="#FFFF00" stroke="black" stroke-width="0.0666669"/>
<path d="M17.4512 14.7229C17.4512 14.6695 17.5322 14.6695 17.5322 14.7229V14.8651H17.4512V14.7229Z" fill="black"/>
<path d="M16.9741 14.9184C16.9741 14.8651 17.0452 14.8651 17.0452 14.9184V15.0251H16.9741V14.9184Z" fill="black"/>
<path d="M16.9741 14.9184C16.9741 14.8651 17.0452 14.8651 17.0452 14.9184V15.0251H16.9741V14.9184Z" fill="black"/>
<path d="M18.7419 24.3544C18.397 24.0036 18.5613 23.6762 18.5613 23.6762C18.5676 23.6699 18.9234 23.4926 19.2746 23.8371L18.7482 24.3606" fill="#FFFF00"/>
<path d="M18.0986 24.149L18.4565 24.5877L18.7228 24.3228C18.3908 23.9971 18.5934 23.6947 18.5934 23.6947C18.5997 23.6884 18.9173 23.5113 19.2365 23.8119L19.5029 23.547L19.0435 23.1966L18.0922 24.1427L18.0986 24.149ZM18.4438 24.6129L19.522 23.5406C19.541 23.5217 19.5792 23.5216 19.6047 23.5466C19.6367 23.5779 19.6368 23.6157 19.6178 23.6346L18.5396 24.7069C18.5206 24.7258 18.4824 24.7259 18.4505 24.6946C18.425 24.6695 18.4248 24.6318 18.4502 24.6066L18.4438 24.6129Z" fill="#FFFF00" stroke="black" stroke-width="0.0666669"/>
<path d="M18.8308 24.2157C18.6201 24.0091 18.7084 23.8076 18.7084 23.8076C18.7084 23.8076 18.9182 23.7252 19.1225 23.9256L18.8308 24.2157ZM17.8882 24.0179L18.922 22.9898C18.941 22.9708 18.9856 22.977 19.0111 23.002C19.0303 23.0208 19.0304 23.0585 19.0114 23.0774L17.9776 24.1056C17.9586 24.1245 17.9204 24.1246 17.8949 24.0996C17.8757 24.0808 17.8756 24.0431 17.8946 24.0242L17.8882 24.0179ZM18.9519 24.2845L19.5608 23.6789C19.5798 23.66 19.618 23.6599 19.6435 23.6849C19.6691 23.71 19.6692 23.7477 19.6502 23.7666L18.6672 24.7443C18.6418 24.7695 18.61 24.7633 18.5844 24.7383C18.5589 24.7132 18.5524 24.6818 18.5778 24.6566L18.9519 24.2845ZM18.5921 23.3052L18.6682 23.2295L18.7193 23.2796L18.7764 23.2228L18.7253 23.1727L18.8078 23.0907L18.8652 23.1471L18.9223 23.0903L18.8585 23.0277L18.9346 22.952L19.0623 23.0773C19.0878 23.1023 19.0879 23.1275 19.0689 23.1464L18.7898 23.4239C18.7708 23.4428 18.739 23.4492 18.7199 23.4304L18.5921 23.3052ZM19.0563 23.1841L19.484 23.5661L19.2113 23.8373L18.8152 23.4113L19.0499 23.1779" fill="#FFFF00"/>
<path d="M19.0563 23.1841L19.484 23.5661L19.2113 23.8373L18.8152 23.4113L19.0499 23.1779M18.8308 24.2157C18.6201 24.0091 18.7084 23.8076 18.7084 23.8076C18.7084 23.8076 18.9182 23.7252 19.1225 23.9256L18.8308 24.2157ZM17.8882 24.0179L18.922 22.9898C18.941 22.9708 18.9856 22.977 19.0111 23.002C19.0303 23.0208 19.0304 23.0585 19.0114 23.0774L17.9776 24.1056C17.9586 24.1245 17.9204 24.1246 17.8949 24.0996C17.8757 24.0808 17.8756 24.0431 17.8946 24.0242L17.8882 24.0179ZM18.9519 24.2845L19.5608 23.6789C19.5798 23.66 19.618 23.6599 19.6435 23.6849C19.6691 23.71 19.6692 23.7477 19.6502 23.7666L18.6672 24.7443C18.6418 24.7695 18.61 24.7633 18.5844 24.7383C18.5589 24.7132 18.5524 24.6818 18.5778 24.6566L18.9519 24.2845ZM18.5921 23.3052L18.6682 23.2295L18.7193 23.2796L18.7764 23.2228L18.7253 23.1727L18.8078 23.0907L18.8652 23.1471L18.9223 23.0903L18.8585 23.0277L18.9346 22.952L19.0623 23.0773C19.0878 23.1023 19.0879 23.1275 19.0689 23.1464L18.7898 23.4239C18.7708 23.4428 18.739 23.4492 18.7199 23.4304L18.5921 23.3052Z" stroke="black" stroke-width="0.0666669"/>
<path d="M17.9754 23.5021L18.1925 23.715L17.9388 23.9673L17.7217 23.7544L17.9754 23.5021Z" fill="#FFFF00" stroke="black" stroke-width="0.0666669"/>
<path d="M17.9754 23.5021L18.1925 23.715L17.9388 23.9673L17.7217 23.7544L17.9754 23.5021Z" fill="#FFFF00" stroke="black" stroke-width="0.0666669"/>
<path d="M17.5112 23.6357L17.5873 23.5601L17.6512 23.6227L17.7083 23.5659L17.6444 23.5033L17.7205 23.4276L17.7844 23.4902L17.8414 23.4335L17.7776 23.3708L17.8537 23.2951L17.9814 23.4204C18.007 23.4455 18.007 23.4706 17.988 23.4895L17.7153 23.7607C17.7052 23.7708 17.6915 23.7764 17.6772 23.7765C17.6629 23.7765 17.6491 23.771 17.6389 23.761L17.5112 23.6357Z" fill="#FFFF00" stroke="black" stroke-width="0.0666669"/>
<path d="M17.5112 23.6357L17.5873 23.5601L17.6512 23.6227L17.7083 23.5659L17.6444 23.5033L17.7205 23.4276L17.7844 23.4902L17.8414 23.4335L17.7776 23.3708L17.8537 23.2951L17.9814 23.4204C18.007 23.4455 18.007 23.4706 17.988 23.4895L17.7153 23.7607C17.7052 23.7708 17.6915 23.7764 17.6772 23.7765C17.6629 23.7765 17.6491 23.771 17.6389 23.761L17.5112 23.6357Z" fill="#FFFF00" stroke="black" stroke-width="0.0666669"/>
<path d="M18.0951 23.2565C18.0568 23.2189 18.1139 23.1621 18.1522 23.1997L18.2544 23.2999L18.1973 23.3567L18.0951 23.2565Z" fill="black"/>
<path d="M17.8997 23.7284C17.8616 23.6911 17.912 23.641 17.9501 23.6783L18.0262 23.753L17.9758 23.8031L17.8997 23.7284Z" fill="black"/>
<path d="M17.8997 23.7284C17.8616 23.6911 17.912 23.641 17.9501 23.6783L18.0262 23.753L17.9758 23.8031L17.8997 23.7284Z" fill="black"/>
<path d="M17.1182 15.9494C17.1272 15.4605 17.4782 15.345 17.4782 15.345C17.4872 15.345 17.8652 15.4694 17.8652 15.9583H17.1182" fill="#FFFF00"/>
<path d="M16.812 15.3539L16.749 15.9139H17.127C17.127 15.4516 17.487 15.3805 17.487 15.3805C17.496 15.3805 17.847 15.4783 17.856 15.9139H18.234L18.162 15.345H16.812V15.3539ZM16.722 15.9228H18.252C18.279 15.9228 18.306 15.9494 18.306 15.985C18.306 16.0294 18.279 16.0561 18.252 16.0561H16.722C16.695 16.0561 16.668 16.0294 16.668 15.985C16.668 15.9494 16.695 15.9228 16.731 15.9228H16.722Z" fill="#FFFF00" stroke="black" stroke-width="0.0666669"/>
<path d="M17.2801 15.914C17.2801 15.6206 17.4871 15.5406 17.4871 15.5406C17.4871 15.5406 17.6941 15.6295 17.6941 15.914H17.2801ZM16.7581 15.114H18.2251C18.2521 15.114 18.2791 15.1495 18.2791 15.1851C18.2791 15.2117 18.2521 15.2384 18.2251 15.2384H16.7581C16.7311 15.2384 16.7041 15.2117 16.7041 15.1762C16.7041 15.1495 16.7311 15.1229 16.7581 15.1229V15.114ZM17.3161 16.0473H18.1801C18.2071 16.0473 18.2341 16.074 18.2341 16.1095C18.2341 16.1451 18.2071 16.1717 18.1801 16.1717H16.7851C16.7491 16.1717 16.7311 16.1451 16.7311 16.1095C16.7311 16.074 16.7491 16.0473 16.7851 16.0473H17.3161ZM17.7661 15.1051H17.8741V15.1762H17.9551V15.1051H18.0721V15.1851H18.1531V15.0962H18.2611V15.274C18.2611 15.3095 18.2431 15.3273 18.2161 15.3273H17.8201C17.7931 15.3273 17.7661 15.3095 17.7661 15.2829V15.1051ZM18.1801 15.3451L18.2071 15.914H17.8201L17.8471 15.3362H18.1801" fill="#FFFF00"/>
<path d="M18.1801 15.3451L18.2071 15.914H17.8201L17.8471 15.3362H18.1801M17.2801 15.914C17.2801 15.6206 17.4871 15.5406 17.4871 15.5406C17.4871 15.5406 17.6941 15.6295 17.6941 15.914H17.2801ZM16.7581 15.114H18.2251C18.2521 15.114 18.2791 15.1495 18.2791 15.1851C18.2791 15.2117 18.2521 15.2384 18.2251 15.2384H16.7581C16.7311 15.2384 16.7041 15.2117 16.7041 15.1762C16.7041 15.1495 16.7311 15.1229 16.7581 15.1229V15.114ZM17.3161 16.0473H18.1801C18.2071 16.0473 18.2341 16.074 18.2341 16.1095C18.2341 16.1451 18.2071 16.1717 18.1801 16.1717H16.7851C16.7491 16.1717 16.7311 16.1451 16.7311 16.1095C16.7311 16.074 16.7491 16.0473 16.7851 16.0473H17.3161ZM17.7661 15.1051H17.8741V15.1762H17.9551V15.1051H18.0721V15.1851H18.1531V15.0962H18.2611V15.274C18.2611 15.3095 18.2431 15.3273 18.2161 15.3273H17.8201C17.7931 15.3273 17.7661 15.3095 17.7661 15.2829V15.1051Z" stroke="black" stroke-width="0.0666669"/>
<path d="M17.1901 14.8118V15.114H16.8301V14.8118H17.1901Z" fill="#FFFF00" stroke="black" stroke-width="0.0666669"/>
<path d="M17.1901 14.8118V15.114H16.8301V14.8118H17.1901Z" fill="#FFFF00" stroke="black" stroke-width="0.0666669"/>
<path d="M16.7671 14.5806H16.8751V14.6695H16.9561V14.5806H17.0641V14.6695H17.1451V14.5806H17.2531V14.7583C17.2531 14.7939 17.2351 14.8117 17.2081 14.8117H16.8211C16.8068 14.8117 16.793 14.8061 16.7829 14.7961C16.7728 14.7861 16.7671 14.7725 16.7671 14.7583V14.5806Z" fill="#FFFF00" stroke="black" stroke-width="0.0666669"/>
<path d="M16.7671 14.5806H16.8751V14.6695H16.9561V14.5806H17.0641V14.6695H17.1451V14.5806H17.2531V14.7583C17.2531 14.7939 17.2351 14.8117 17.2081 14.8117H16.8211C16.8068 14.8117 16.793 14.8061 16.7829 14.7961C16.7728 14.7861 16.7671 14.7725 16.7671 14.7583V14.5806Z" fill="#FFFF00" stroke="black" stroke-width="0.0666669"/>
<path d="M17.4512 14.7229C17.4512 14.6695 17.5322 14.6695 17.5322 14.7229V14.8651H17.4512V14.7229Z" fill="black"/>
<path d="M16.9741 14.9184C16.9741 14.8651 17.0452 14.8651 17.0452 14.9184V15.0251H16.9741V14.9184Z" fill="black"/>
<path d="M16.9741 14.9184C16.9741 14.8651 17.0452 14.8651 17.0452 14.9184V15.0251H16.9741V14.9184Z" fill="black"/>
<path d="M26.064 15.9494C26.055 15.4605 25.704 15.345 25.704 15.345C25.695 15.345 25.317 15.4694 25.317 15.9583H26.064" fill="#FFFF00"/>
<path d="M26.3702 15.3539L26.4332 15.9139H26.0552C26.0552 15.4516 25.6952 15.3805 25.6952 15.3805C25.6862 15.3805 25.3352 15.4783 25.3262 15.9139H24.9482L25.0202 15.345H26.3702V15.3539ZM26.4602 15.9228H24.9302C24.9032 15.9228 24.8762 15.9494 24.8762 15.985C24.8762 16.0294 24.9032 16.0561 24.9302 16.0561H26.4602C26.4872 16.0561 26.5142 16.0294 26.5142 15.985C26.5142 15.9494 26.4872 15.9228 26.4512 15.9228H26.4602Z" fill="#FFFF00" stroke="black" stroke-width="0.0666669"/>
<path d="M25.902 15.914C25.902 15.6206 25.695 15.5406 25.695 15.5406C25.695 15.5406 25.488 15.6295 25.488 15.914H25.902ZM26.424 15.114H24.957C24.93 15.114 24.903 15.1495 24.903 15.1851C24.903 15.2117 24.93 15.2384 24.957 15.2384H26.424C26.451 15.2384 26.478 15.2117 26.478 15.1762C26.478 15.1495 26.451 15.1229 26.424 15.1229V15.114ZM25.866 16.0473H25.002C24.975 16.0473 24.948 16.074 24.948 16.1095C24.948 16.1451 24.975 16.1717 25.002 16.1717H26.397C26.433 16.1717 26.451 16.1451 26.451 16.1095C26.451 16.074 26.433 16.0473 26.397 16.0473H25.866ZM25.416 15.1051H25.308V15.1762H25.227V15.1051H25.11V15.1851H25.029V15.0962H24.921V15.274C24.921 15.3095 24.939 15.3273 24.966 15.3273H25.362C25.389 15.3273 25.416 15.3095 25.416 15.2829V15.1051ZM25.002 15.3451L24.975 15.914H25.362L25.335 15.3362H25.002" fill="#FFFF00"/>
<path d="M25.002 15.3451L24.975 15.914H25.362L25.335 15.3362H25.002M25.902 15.914C25.902 15.6206 25.695 15.5406 25.695 15.5406C25.695 15.5406 25.488 15.6295 25.488 15.914H25.902ZM26.424 15.114H24.957C24.93 15.114 24.903 15.1495 24.903 15.1851C24.903 15.2117 24.93 15.2384 24.957 15.2384H26.424C26.451 15.2384 26.478 15.2117 26.478 15.1762C26.478 15.1495 26.451 15.1229 26.424 15.1229V15.114ZM25.866 16.0473H25.002C24.975 16.0473 24.948 16.074 24.948 16.1095C24.948 16.1451 24.975 16.1717 25.002 16.1717H26.397C26.433 16.1717 26.451 16.1451 26.451 16.1095C26.451 16.074 26.433 16.0473 26.397 16.0473H25.866ZM25.416 15.1051H25.308V15.1762H25.227V15.1051H25.11V15.1851H25.029V15.0962H24.921V15.274C24.921 15.3095 24.939 15.3273 24.966 15.3273H25.362C25.389 15.3273 25.416 15.3095 25.416 15.2829V15.1051Z" stroke="black" stroke-width="0.0666669"/>
<path d="M25.992 14.8118V15.114H26.3521V14.8118H25.992Z" fill="#FFFF00" stroke="black" stroke-width="0.0666669"/>
<path d="M25.992 14.8118V15.114H26.3521V14.8118H25.992Z" fill="#FFFF00" stroke="black" stroke-width="0.0666669"/>
<path d="M26.415 14.5806H26.307V14.6695H26.226V14.5806H26.118V14.6695H26.037V14.5806H25.929V14.7583C25.929 14.7939 25.947 14.8117 25.974 14.8117H26.361C26.3754 14.8117 26.3891 14.8061 26.3992 14.7961C26.4093 14.7861 26.415 14.7725 26.415 14.7583V14.5806Z" fill="#FFFF00" stroke="black" stroke-width="0.0666669"/>
<path d="M26.415 14.5806H26.307V14.6695H26.226V14.5806H26.118V14.6695H26.037V14.5806H25.929V14.7583C25.929 14.7939 25.947 14.8117 25.974 14.8117H26.361C26.3754 14.8117 26.3891 14.8061 26.3992 14.7961C26.4093 14.7861 26.415 14.7725 26.415 14.7583V14.5806Z" fill="#FFFF00" stroke="black" stroke-width="0.0666669"/>
<path d="M25.731 14.7229C25.731 14.6695 25.65 14.6695 25.65 14.7229V14.8651H25.731V14.7229Z" fill="black"/>
<path d="M26.208 14.9184C26.208 14.8651 26.1369 14.8651 26.1369 14.9184V15.0251H26.208V14.9184Z" fill="black"/>
<path d="M26.208 14.9184C26.208 14.8651 26.1369 14.8651 26.1369 14.9184V15.0251H26.208V14.9184Z" fill="black"/>
<path d="M26.064 15.9494C26.055 15.4605 25.704 15.345 25.704 15.345C25.695 15.345 25.317 15.4694 25.317 15.9583H26.064" fill="#FFFF00"/>
<path d="M26.3702 15.3539L26.4332 15.9139H26.0552C26.0552 15.4516 25.6952 15.3805 25.6952 15.3805C25.6862 15.3805 25.3352 15.4783 25.3262 15.9139H24.9482L25.0202 15.345H26.3702V15.3539ZM26.4602 15.9228H24.9302C24.9032 15.9228 24.8762 15.9494 24.8762 15.985C24.8762 16.0294 24.9032 16.0561 24.9302 16.0561H26.4602C26.4872 16.0561 26.5142 16.0294 26.5142 15.985C26.5142 15.9494 26.4872 15.9228 26.4512 15.9228H26.4602Z" fill="#FFFF00" stroke="black" stroke-width="0.0666669"/>
<path d="M25.902 15.914C25.902 15.6206 25.695 15.5406 25.695 15.5406C25.695 15.5406 25.488 15.6295 25.488 15.914H25.902ZM26.424 15.114H24.957C24.93 15.114 24.903 15.1495 24.903 15.1851C24.903 15.2117 24.93 15.2384 24.957 15.2384H26.424C26.451 15.2384 26.478 15.2117 26.478 15.1762C26.478 15.1495 26.451 15.1229 26.424 15.1229V15.114ZM25.866 16.0473H25.002C24.975 16.0473 24.948 16.074 24.948 16.1095C24.948 16.1451 24.975 16.1717 25.002 16.1717H26.397C26.433 16.1717 26.451 16.1451 26.451 16.1095C26.451 16.074 26.433 16.0473 26.397 16.0473H25.866ZM25.416 15.1051H25.308V15.1762H25.227V15.1051H25.11V15.1851H25.029V15.0962H24.921V15.274C24.921 15.3095 24.939 15.3273 24.966 15.3273H25.362C25.389 15.3273 25.416 15.3095 25.416 15.2829V15.1051ZM25.002 15.3451L24.975 15.914H25.362L25.335 15.3362H25.002" fill="#FFFF00"/>
<path d="M25.002 15.3451L24.975 15.914H25.362L25.335 15.3362H25.002M25.902 15.914C25.902 15.6206 25.695 15.5406 25.695 15.5406C25.695 15.5406 25.488 15.6295 25.488 15.914H25.902ZM26.424 15.114H24.957C24.93 15.114 24.903 15.1495 24.903 15.1851C24.903 15.2117 24.93 15.2384 24.957 15.2384H26.424C26.451 15.2384 26.478 15.2117 26.478 15.1762C26.478 15.1495 26.451 15.1229 26.424 15.1229V15.114ZM25.866 16.0473H25.002C24.975 16.0473 24.948 16.074 24.948 16.1095C24.948 16.1451 24.975 16.1717 25.002 16.1717H26.397C26.433 16.1717 26.451 16.1451 26.451 16.1095C26.451 16.074 26.433 16.0473 26.397 16.0473H25.866ZM25.416 15.1051H25.308V15.1762H25.227V15.1051H25.11V15.1851H25.029V15.0962H24.921V15.274C24.921 15.3095 24.939 15.3273 24.966 15.3273H25.362C25.389 15.3273 25.416 15.3095 25.416 15.2829V15.1051Z" stroke="black" stroke-width="0.0666669"/>
<path d="M25.992 14.8118V15.114H26.3521V14.8118H25.992Z" fill="#FFFF00" stroke="black" stroke-width="0.0666669"/>
<path d="M25.992 14.8118V15.114H26.3521V14.8118H25.992Z" fill="#FFFF00" stroke="black" stroke-width="0.0666669"/>
<path d="M26.415 14.5806H26.307V14.6695H26.226V14.5806H26.118V14.6695H26.037V14.5806H25.929V14.7583C25.929 14.7939 25.947 14.8117 25.974 14.8117H26.361C26.3754 14.8117 26.3891 14.8061 26.3992 14.7961C26.4093 14.7861 26.415 14.7725 26.415 14.7583V14.5806Z" fill="#FFFF00" stroke="black" stroke-width="0.0666669"/>
<path d="M26.415 14.5806H26.307V14.6695H26.226V14.5806H26.118V14.6695H26.037V14.5806H25.929V14.7583C25.929 14.7939 25.947 14.8117 25.974 14.8117H26.361C26.3754 14.8117 26.3891 14.8061 26.3992 14.7961C26.4093 14.7861 26.415 14.7725 26.415 14.7583V14.5806Z" fill="#FFFF00" stroke="black" stroke-width="0.0666669"/>
<path d="M25.731 14.7229C25.731 14.6695 25.65 14.6695 25.65 14.7229V14.8651H25.731V14.7229Z" fill="black"/>
<path d="M26.208 14.9184C26.208 14.8651 26.1369 14.8651 26.1369 14.9184V15.0251H26.208V14.9184Z" fill="black"/>
<path d="M26.208 14.9184C26.208 14.8651 26.1369 14.8651 26.1369 14.9184V15.0251H26.208V14.9184Z" fill="black"/>
<path d="M24.4403 24.3544C24.7852 24.0036 24.6208 23.6762 24.6208 23.6762C24.6145 23.6699 24.2587 23.4926 23.9075 23.8371L24.4339 24.3606" fill="#FFFF00"/>
<path d="M25.0836 24.149L24.7256 24.5877L24.4593 24.3228C24.7913 23.9971 24.5888 23.6947 24.5888 23.6947C24.5824 23.6884 24.2648 23.5113 23.9456 23.8119L23.6792 23.547L24.1387 23.1966L25.0899 24.1427L25.0836 24.149ZM24.7383 24.6129L23.6602 23.5406C23.6411 23.5217 23.6029 23.5216 23.5774 23.5466C23.5455 23.5779 23.5453 23.6157 23.5644 23.6346L24.6425 24.7069C24.6615 24.7258 24.6997 24.7259 24.7316 24.6946C24.7572 24.6695 24.7573 24.6318 24.7319 24.6066L24.7383 24.6129Z" fill="#FFFF00" stroke="black" stroke-width="0.0666669"/>
<path d="M24.3513 24.2157C24.5621 24.0091 24.4737 23.8076 24.4737 23.8076C24.4737 23.8076 24.264 23.7252 24.0596 23.9256L24.3513 24.2157ZM25.2939 24.0179L24.2602 22.9898C24.2411 22.9708 24.1966 22.977 24.171 23.002C24.1519 23.0208 24.1517 23.0585 24.1708 23.0774L25.2045 24.1056C25.2235 24.1245 25.2617 24.1246 25.2873 24.0996C25.3064 24.0808 25.3065 24.0431 25.2875 24.0242L25.2939 24.0179ZM24.2302 24.2845L23.6214 23.6789C23.6023 23.66 23.5642 23.6599 23.5386 23.6849C23.5131 23.71 23.5129 23.7477 23.532 23.7666L24.515 24.7443C24.5403 24.7695 24.5722 24.7633 24.5977 24.7383C24.6233 24.7132 24.6297 24.6818 24.6044 24.6566L24.2302 24.2845ZM24.59 23.3052L24.5139 23.2295L24.4628 23.2796L24.4057 23.2228L24.4568 23.1727L24.3744 23.0907L24.3169 23.1471L24.2598 23.0903L24.3237 23.0277L24.2476 22.952L24.1199 23.0773C24.0943 23.1023 24.0942 23.1275 24.1132 23.1464L24.3923 23.4239C24.4113 23.4428 24.4431 23.4492 24.4623 23.4304L24.59 23.3052ZM24.1258 23.1841L23.6981 23.5661L23.9708 23.8373L24.3669 23.4113L24.1322 23.1779" fill="#FFFF00"/>
<path d="M24.1258 23.1841L23.6981 23.5661L23.9708 23.8373L24.3669 23.4113L24.1322 23.1779M24.3513 24.2157C24.5621 24.0091 24.4737 23.8076 24.4737 23.8076C24.4737 23.8076 24.264 23.7252 24.0596 23.9256L24.3513 24.2157ZM25.2939 24.0179L24.2602 22.9898C24.2411 22.9708 24.1966 22.977 24.171 23.002C24.1519 23.0208 24.1517 23.0585 24.1708 23.0774L25.2045 24.1056C25.2235 24.1245 25.2617 24.1246 25.2873 24.0996C25.3064 24.0808 25.3065 24.0431 25.2875 24.0242L25.2939 24.0179ZM24.2302 24.2845L23.6214 23.6789C23.6023 23.66 23.5642 23.6599 23.5386 23.6849C23.5131 23.71 23.5129 23.7477 23.532 23.7666L24.515 24.7443C24.5403 24.7695 24.5722 24.7633 24.5977 24.7383C24.6233 24.7132 24.6297 24.6818 24.6044 24.6566L24.2302 24.2845ZM24.59 23.3052L24.5139 23.2295L24.4628 23.2796L24.4057 23.2228L24.4568 23.1727L24.3744 23.0907L24.3169 23.1471L24.2598 23.0903L24.3237 23.0277L24.2476 22.952L24.1199 23.0773C24.0943 23.1023 24.0942 23.1275 24.1132 23.1464L24.3923 23.4239C24.4113 23.4428 24.4431 23.4492 24.4623 23.4304L24.59 23.3052Z" stroke="black" stroke-width="0.0666669"/>
<path d="M25.2068 23.5021L24.9897 23.715L25.2433 23.9673L25.4604 23.7544L25.2068 23.5021Z" fill="#FFFF00" stroke="black" stroke-width="0.0666669"/>
<path d="M25.2068 23.5021L24.9897 23.715L25.2433 23.9673L25.4604 23.7544L25.2068 23.5021Z" fill="#FFFF00" stroke="black" stroke-width="0.0666669"/>
<path d="M25.6709 23.6357L25.5948 23.5601L25.5309 23.6227L25.4739 23.5659L25.5377 23.5033L25.4616 23.4276L25.3978 23.4902L25.3407 23.4335L25.4045 23.3708L25.3284 23.2951L25.2007 23.4204C25.1752 23.4455 25.1751 23.4706 25.1941 23.4895L25.4668 23.7607C25.4769 23.7708 25.4906 23.7764 25.5049 23.7765C25.5193 23.7765 25.533 23.771 25.5432 23.761L25.6709 23.6357Z" fill="#FFFF00" stroke="black" stroke-width="0.0666669"/>
<path d="M25.6709 23.6357L25.5948 23.5601L25.5309 23.6227L25.4739 23.5659L25.5377 23.5033L25.4616 23.4276L25.3978 23.4902L25.3407 23.4335L25.4045 23.3708L25.3284 23.2951L25.2007 23.4204C25.1752 23.4455 25.1751 23.4706 25.1941 23.4895L25.4668 23.7607C25.4769 23.7708 25.4906 23.7764 25.5049 23.7765C25.5193 23.7765 25.533 23.771 25.5432 23.761L25.6709 23.6357Z" fill="#FFFF00" stroke="black" stroke-width="0.0666669"/>
<path d="M25.087 23.2565C25.1253 23.2189 25.0682 23.1621 25.0299 23.1997L24.9277 23.2999L24.9848 23.3567L25.087 23.2565Z" fill="black"/>
<path d="M25.2825 23.7284C25.3206 23.6911 25.2701 23.641 25.2321 23.6783L25.1559 23.753L25.2063 23.8031L25.2825 23.7284Z" fill="black"/>
<path d="M25.2825 23.7284C25.3206 23.6911 25.2701 23.641 25.2321 23.6783L25.1559 23.753L25.2063 23.8031L25.2825 23.7284Z" fill="black"/>
<path d="M20.9341 20.2161C20.9325 20.4037 21.0033 20.5849 21.1321 20.7228C21.1922 20.7892 21.2657 20.8424 21.3478 20.8791C21.43 20.9159 21.519 20.9353 21.6091 20.9361C21.7981 20.9361 21.9691 20.8472 22.0861 20.7228C22.2149 20.5849 22.2857 20.4037 22.2841 20.2161V19.2561H20.9341V20.2161Z" fill="#003399"/>
<path d="M21.2493 19.754C21.3238 19.754 21.3843 19.6943 21.3843 19.6206C21.3843 19.547 21.3238 19.4873 21.2493 19.4873C21.1747 19.4873 21.1143 19.547 21.1143 19.6206C21.1143 19.6943 21.1747 19.754 21.2493 19.754Z" fill="white"/>
<path d="M21.9963 19.754C22.0709 19.754 22.1313 19.6943 22.1313 19.6206C22.1313 19.547 22.0709 19.4873 21.9963 19.4873C21.9218 19.4873 21.8613 19.547 21.8613 19.6206C21.8613 19.6943 21.9218 19.754 21.9963 19.754Z" fill="white"/>
<path d="M21.6179 20.1094C21.6925 20.1094 21.7529 20.0497 21.7529 19.9761C21.7529 19.9025 21.6925 19.8428 21.6179 19.8428C21.5434 19.8428 21.4829 19.9025 21.4829 19.9761C21.4829 20.0497 21.5434 20.1094 21.6179 20.1094Z" fill="white"/>
<path d="M21.2493 20.4827C21.3238 20.4827 21.3843 20.423 21.3843 20.3494C21.3843 20.2758 21.3238 20.2161 21.2493 20.2161C21.1747 20.2161 21.1143 20.2758 21.1143 20.3494C21.1143 20.423 21.1747 20.4827 21.2493 20.4827Z" fill="white"/>
<path d="M21.9963 20.4827C22.0709 20.4827 22.1313 20.423 22.1313 20.3494C22.1313 20.2758 22.0709 20.2161 21.9963 20.2161C21.9218 20.2161 21.8613 20.2758 21.8613 20.3494C21.8613 20.423 21.9218 20.4827 21.9963 20.4827Z" fill="white"/>
<path d="M20.9341 20.2161C20.9325 20.4037 21.0033 20.5849 21.1321 20.7228C21.1922 20.7892 21.2657 20.8424 21.3478 20.8791C21.43 20.9159 21.519 20.9353 21.6091 20.9361C21.7981 20.9361 21.9691 20.8472 22.0861 20.7228C22.2149 20.5849 22.2857 20.4037 22.2841 20.2161V19.2561H20.9341V20.2161Z" fill="#003399"/>
<path d="M21.2493 19.754C21.3238 19.754 21.3843 19.6943 21.3843 19.6206C21.3843 19.547 21.3238 19.4873 21.2493 19.4873C21.1747 19.4873 21.1143 19.547 21.1143 19.6206C21.1143 19.6943 21.1747 19.754 21.2493 19.754Z" fill="white"/>
<path d="M21.9963 19.754C22.0709 19.754 22.1313 19.6943 22.1313 19.6206C22.1313 19.547 22.0709 19.4873 21.9963 19.4873C21.9218 19.4873 21.8613 19.547 21.8613 19.6206C21.8613 19.6943 21.9218 19.754 21.9963 19.754Z" fill="white"/>
<path d="M21.6179 20.1094C21.6925 20.1094 21.7529 20.0497 21.7529 19.9761C21.7529 19.9025 21.6925 19.8428 21.6179 19.8428C21.5434 19.8428 21.4829 19.9025 21.4829 19.9761C21.4829 20.0497 21.5434 20.1094 21.6179 20.1094Z" fill="white"/>
<path d="M21.2493 20.4827C21.3238 20.4827 21.3843 20.423 21.3843 20.3494C21.3843 20.2758 21.3238 20.2161 21.2493 20.2161C21.1747 20.2161 21.1143 20.2758 21.1143 20.3494C21.1143 20.423 21.1747 20.4827 21.2493 20.4827Z" fill="white"/>
<path d="M21.9963 20.4827C22.0709 20.4827 22.1313 20.423 22.1313 20.3494C22.1313 20.2758 22.0709 20.2161 21.9963 20.2161C21.9218 20.2161 21.8613 20.2758 21.8613 20.3494C21.8613 20.423 21.9218 20.4827 21.9963 20.4827Z" fill="white"/>
<path d="M20.9341 20.2161C20.9325 20.4037 21.0033 20.5849 21.1321 20.7228C21.1922 20.7892 21.2657 20.8424 21.3478 20.8791C21.43 20.9159 21.519 20.9353 21.6091 20.9361C21.7981 20.9361 21.9691 20.8472 22.0861 20.7228C22.2149 20.5849 22.2857 20.4037 22.2841 20.2161V19.2561H20.9341V20.2161Z" fill="#003399"/>
<path d="M21.2493 19.754C21.3238 19.754 21.3843 19.6943 21.3843 19.6206C21.3843 19.547 21.3238 19.4873 21.2493 19.4873C21.1747 19.4873 21.1143 19.547 21.1143 19.6206C21.1143 19.6943 21.1747 19.754 21.2493 19.754Z" fill="white"/>
<path d="M21.9963 19.754C22.0709 19.754 22.1313 19.6943 22.1313 19.6206C22.1313 19.547 22.0709 19.4873 21.9963 19.4873C21.9218 19.4873 21.8613 19.547 21.8613 19.6206C21.8613 19.6943 21.9218 19.754 21.9963 19.754Z" fill="white"/>
<path d="M21.6179 20.1094C21.6925 20.1094 21.7529 20.0497 21.7529 19.9761C21.7529 19.9025 21.6925 19.8428 21.6179 19.8428C21.5434 19.8428 21.4829 19.9025 21.4829 19.9761C21.4829 20.0497 21.5434 20.1094 21.6179 20.1094Z" fill="white"/>
<path d="M21.2493 20.4827C21.3238 20.4827 21.3843 20.423 21.3843 20.3494C21.3843 20.2758 21.3238 20.2161 21.2493 20.2161C21.1747 20.2161 21.1143 20.2758 21.1143 20.3494C21.1143 20.423 21.1747 20.4827 21.2493 20.4827Z" fill="white"/>
<path d="M21.9963 20.4827C22.0709 20.4827 22.1313 20.423 22.1313 20.3494C22.1313 20.2758 22.0709 20.2161 21.9963 20.2161C21.9218 20.2161 21.8613 20.2758 21.8613 20.3494C21.8613 20.423 21.9218 20.4827 21.9963 20.4827Z" fill="white"/>
<path d="M20.9341 20.2161C20.9325 20.4037 21.0033 20.5849 21.1321 20.7228C21.1922 20.7892 21.2657 20.8424 21.3478 20.8791C21.43 20.9159 21.519 20.9353 21.6091 20.9361C21.7981 20.9361 21.9691 20.8472 22.0861 20.7228C22.2149 20.5849 22.2857 20.4037 22.2841 20.2161V19.2561H20.9341V20.2161Z" fill="#003399"/>
<path d="M21.2493 19.754C21.3238 19.754 21.3843 19.6943 21.3843 19.6206C21.3843 19.547 21.3238 19.4873 21.2493 19.4873C21.1747 19.4873 21.1143 19.547 21.1143 19.6206C21.1143 19.6943 21.1747 19.754 21.2493 19.754Z" fill="white"/>
<path d="M21.9963 19.754C22.0709 19.754 22.1313 19.6943 22.1313 19.6206C22.1313 19.547 22.0709 19.4873 21.9963 19.4873C21.9218 19.4873 21.8613 19.547 21.8613 19.6206C21.8613 19.6943 21.9218 19.754 21.9963 19.754Z" fill="white"/>
<path d="M21.6179 20.1094C21.6925 20.1094 21.7529 20.0497 21.7529 19.9761C21.7529 19.9025 21.6925 19.8428 21.6179 19.8428C21.5434 19.8428 21.4829 19.9025 21.4829 19.9761C21.4829 20.0497 21.5434 20.1094 21.6179 20.1094Z" fill="white"/>
<path d="M21.2493 20.4827C21.3238 20.4827 21.3843 20.423 21.3843 20.3494C21.3843 20.2758 21.3238 20.2161 21.2493 20.2161C21.1747 20.2161 21.1143 20.2758 21.1143 20.3494C21.1143 20.423 21.1747 20.4827 21.2493 20.4827Z" fill="white"/>
<path d="M21.9963 20.4827C22.0709 20.4827 22.1313 20.423 22.1313 20.3494C22.1313 20.2758 22.0709 20.2161 21.9963 20.2161C21.9218 20.2161 21.8613 20.2758 21.8613 20.3494C21.8613 20.423 21.9218 20.4827 21.9963 20.4827Z" fill="white"/>
<path d="M20.9341 20.2161C20.9325 20.4037 21.0033 20.5849 21.1321 20.7228C21.1922 20.7892 21.2657 20.8424 21.3478 20.8791C21.43 20.9159 21.519 20.9353 21.6091 20.9361C21.7981 20.9361 21.9691 20.8472 22.0861 20.7228C22.2149 20.5849 22.2857 20.4037 22.2841 20.2161V19.2561H20.9341V20.2161Z" fill="#003399"/>
<path d="M21.2493 19.754C21.3238 19.754 21.3843 19.6943 21.3843 19.6206C21.3843 19.547 21.3238 19.4873 21.2493 19.4873C21.1747 19.4873 21.1143 19.547 21.1143 19.6206C21.1143 19.6943 21.1747 19.754 21.2493 19.754Z" fill="white"/>
<path d="M21.9963 19.754C22.0709 19.754 22.1313 19.6943 22.1313 19.6206C22.1313 19.547 22.0709 19.4873 21.9963 19.4873C21.9218 19.4873 21.8613 19.547 21.8613 19.6206C21.8613 19.6943 21.9218 19.754 21.9963 19.754Z" fill="white"/>
<path d="M21.6179 20.1094C21.6925 20.1094 21.7529 20.0497 21.7529 19.9761C21.7529 19.9025 21.6925 19.8428 21.6179 19.8428C21.5434 19.8428 21.4829 19.9025 21.4829 19.9761C21.4829 20.0497 21.5434 20.1094 21.6179 20.1094Z" fill="white"/>
<path d="M21.2493 20.4827C21.3238 20.4827 21.3843 20.423 21.3843 20.3494C21.3843 20.2758 21.3238 20.2161 21.2493 20.2161C21.1747 20.2161 21.1143 20.2758 21.1143 20.3494C21.1143 20.423 21.1747 20.4827 21.2493 20.4827Z" fill="white"/>
<path d="M21.9963 20.4827C22.0709 20.4827 22.1313 20.423 22.1313 20.3494C22.1313 20.2758 22.0709 20.2161 21.9963 20.2161C21.9218 20.2161 21.8613 20.2758 21.8613 20.3494C21.8613 20.423 21.9218 20.4827 21.9963 20.4827Z" fill="white"/>
</svg>
