<svg width="80" height="60" viewBox="0 0 80 60" fill="none" xmlns="http://www.w3.org/2000/svg">
<path d="M32 0H80V60H32V0Z" fill="#FF0000"/>
<path d="M0 0H32V60H0V0Z" fill="#006600"/>
<path fill-rule="evenodd" clip-rule="evenodd" d="M42.4375 38.2751C38.4 38.1501 19.9375 26.6251 19.8125 24.7751L20.825 23.0876C22.6625 25.7501 41.5375 36.9626 43.4 36.5626L42.4375 38.2751Z" fill="#FFFF00" stroke="black" stroke-width="0.075" stroke-linecap="round" stroke-linejoin="round"/>
<path fill-rule="evenodd" clip-rule="evenodd" d="M20.6124 22.8501C20.2499 23.8251 25.4374 27.0251 31.6624 30.8251C37.8999 34.6126 43.2749 36.9501 43.6624 36.6251L43.8499 36.2751C43.7749 36.4001 43.5999 36.4376 43.3124 36.3501C41.6249 35.8626 37.2374 33.8501 31.7999 30.5501C26.3499 27.2501 21.6249 24.2126 20.8874 22.9251C20.8299 22.8044 20.8041 22.671 20.8124 22.5376H20.7874L20.6374 22.8126L20.6124 22.8501V22.8501ZM42.5249 38.3251C42.4624 38.4501 42.3249 38.4501 42.0874 38.4251C40.5874 38.2626 36.0124 36.0376 30.5999 32.8001C24.2999 29.0251 19.0999 25.6001 19.6749 24.7001L19.8249 24.4251L19.8499 24.4376C19.3499 25.9626 30.1124 32.1126 30.7499 32.5126C36.9749 36.3626 42.2249 38.6251 42.6874 38.0376L42.5249 38.3251V38.3251Z" fill="#FFFF00" stroke="black" stroke-width="0.075" stroke-linecap="round" stroke-linejoin="round"/>
<path fill-rule="evenodd" clip-rule="evenodd" d="M32.0251 25.9C36.0501 25.8625 41.0251 25.35 43.9001 24.2L43.2751 23.2C41.5876 24.1375 36.5876 24.7625 31.9876 24.85C26.5626 24.8 22.7251 24.2875 20.8001 23L20.2251 24.075C23.7501 25.575 27.3751 25.8875 32.0251 25.9" fill="#FFFF00"/>
<path d="M32.0251 25.9C36.0501 25.8625 41.0251 25.35 43.9001 24.2L43.2751 23.2C41.5876 24.1375 36.5876 24.7625 31.9876 24.85C26.5626 24.8 22.7251 24.2875 20.8001 23L20.2251 24.075C23.7501 25.575 27.3751 25.8875 32.0251 25.9" stroke="black" stroke-width="0.075" stroke-linecap="round" stroke-linejoin="round"/>
<path fill-rule="evenodd" clip-rule="evenodd" d="M44.0624 24.2252C43.9624 24.3877 42.0874 25.0252 39.3374 25.5002C36.9132 25.8676 34.4643 26.0473 32.0124 26.0377C29.6633 26.0465 27.3162 25.8962 24.9874 25.5877C22.0999 25.1377 20.6124 24.5127 20.0499 24.2877L20.1874 24.0127C21.7749 24.6377 23.2749 25.0127 25.0249 25.2877C27.3367 25.5998 29.6671 25.7544 31.9999 25.7502C34.4391 25.7528 36.875 25.5731 39.2874 25.2127C42.0999 24.7502 43.6374 24.1627 43.8624 23.9002L44.0624 24.2377V24.2252ZM43.5124 23.2127C43.2124 23.4627 41.6874 24.0002 39.0124 24.4252C36.7025 24.7594 34.3714 24.9265 32.0374 24.9252C29.2874 24.9252 27.0249 24.7252 25.3124 24.4752C22.5874 24.1252 21.1374 23.4752 20.6124 23.3002L20.7749 23.0252C21.1874 23.2377 22.5749 23.8002 25.3374 24.1877C27.5581 24.4852 29.7969 24.6272 32.0374 24.6127C34.3548 24.6134 36.6692 24.4463 38.9624 24.1127C41.6499 23.7377 43.0999 23.0627 43.3249 22.8877L43.5124 23.2127V23.2127ZM18.7874 30.7502C21.2624 32.0877 26.7749 32.7502 31.9874 32.8002C36.7374 32.8127 42.9124 32.0752 45.2249 30.8502L45.1624 29.5127C44.4374 30.6377 37.8124 31.7252 31.9374 31.6877C26.0624 31.6377 20.5999 30.7377 18.7749 29.5627V30.7502" fill="#FFFF00"/>
<path d="M18.7874 30.7502C21.2624 32.0877 26.7749 32.7502 31.9874 32.8002C36.7374 32.8127 42.9124 32.0752 45.2249 30.8502L45.1624 29.5127C44.4374 30.6377 37.8124 31.7252 31.9374 31.6877C26.0624 31.6377 20.5999 30.7377 18.7749 29.5627V30.7502M44.0624 24.2252C43.9624 24.3877 42.0874 25.0252 39.3374 25.5002C36.9132 25.8676 34.4643 26.0473 32.0124 26.0377C29.6633 26.0465 27.3162 25.8962 24.9874 25.5877C22.0999 25.1377 20.6124 24.5127 20.0499 24.2877L20.1874 24.0127C21.7749 24.6377 23.2749 25.0127 25.0249 25.2877C27.3367 25.5998 29.6671 25.7544 31.9999 25.7502C34.4391 25.7528 36.875 25.5731 39.2874 25.2127C42.0999 24.7502 43.6374 24.1627 43.8624 23.9002L44.0624 24.2377V24.2252ZM43.5124 23.2127C43.2124 23.4627 41.6874 24.0002 39.0124 24.4252C36.7025 24.7594 34.3714 24.9265 32.0374 24.9252C29.2874 24.9252 27.0249 24.7252 25.3124 24.4752C22.5874 24.1252 21.1374 23.4752 20.6124 23.3002L20.7749 23.0252C21.1874 23.2377 22.5749 23.8002 25.3374 24.1877C27.5581 24.4852 29.7969 24.6272 32.0374 24.6127C34.3548 24.6134 36.6692 24.4463 38.9624 24.1127C41.6499 23.7377 43.0999 23.0627 43.3249 22.8877L43.5124 23.2127V23.2127Z" stroke="black" stroke-width="0.075" stroke-linecap="round" stroke-linejoin="round"/>
<path fill-rule="evenodd" clip-rule="evenodd" d="M45.35 30.5627V30.8752C45 31.3002 42.825 31.9252 40.1 32.3752C37.3928 32.7643 34.66 32.9482 31.925 32.9252C29.3316 32.9473 26.7405 32.7676 24.175 32.3877C22.2607 32.1665 20.3901 31.6609 18.625 30.8877V30.5252C19.8375 31.3252 23.1125 31.9252 24.2125 32.1002C26.1875 32.4002 28.725 32.6252 31.925 32.6252C35.2875 32.6252 37.975 32.3877 40.05 32.0752C42.0125 31.7877 44.8 31.0502 45.35 30.5627V30.5627ZM45.35 29.4377V29.7502C45 30.1627 42.825 30.7877 40.1 31.2377C37.3931 31.631 34.6603 31.8191 31.925 31.8002C29.3318 31.8155 26.7412 31.6358 24.175 31.2627C22.2607 31.0415 20.3901 30.5359 18.625 29.7627V29.3877C19.8375 30.2002 23.125 30.7877 24.2125 30.9627C26.766 31.3367 29.3443 31.5164 31.925 31.5002C35.2875 31.5002 37.9875 31.2502 40.05 30.9377C42.0125 30.6627 44.8 29.9252 45.35 29.4377V29.4377ZM31.975 38.0377C26.275 38.0127 21.3875 36.4877 20.35 36.2377L21.1 37.4127C24.6061 38.6545 28.3059 39.2598 32.025 39.2002C36.3625 39.0752 40.15 38.7377 42.8125 37.4377L43.5875 36.2127C41.775 37.0752 35.5875 38.0377 31.9625 38.0377" fill="#FFFF00"/>
<path d="M31.975 38.0377C26.275 38.0127 21.3875 36.4877 20.35 36.2377L21.1 37.4127C24.6061 38.6545 28.3059 39.2598 32.025 39.2002C36.3625 39.0752 40.15 38.7377 42.8125 37.4377L43.5875 36.2127C41.775 37.0752 35.5875 38.0377 31.9625 38.0377M45.35 30.5627V30.8752C45 31.3002 42.825 31.9252 40.1 32.3752C37.3928 32.7643 34.66 32.9482 31.925 32.9252C29.3316 32.9473 26.7405 32.7676 24.175 32.3877C22.2607 32.1665 20.3901 31.6609 18.625 30.8877V30.5252C19.8375 31.3252 23.1125 31.9252 24.2125 32.1002C26.1875 32.4002 28.725 32.6252 31.925 32.6252C35.2875 32.6252 37.975 32.3877 40.05 32.0752C42.0125 31.7877 44.8 31.0502 45.35 30.5627V30.5627ZM45.35 29.4377V29.7502C45 30.1627 42.825 30.7877 40.1 31.2377C37.3931 31.631 34.6603 31.8191 31.925 31.8002C29.3318 31.8155 26.7412 31.6358 24.175 31.2627C22.2607 31.0415 20.3901 30.5359 18.625 29.7627V29.3877C19.8375 30.2002 23.125 30.7877 24.2125 30.9627C26.766 31.3367 29.3443 31.5164 31.925 31.5002C35.2875 31.5002 37.9875 31.2502 40.05 30.9377C42.0125 30.6627 44.8 29.9252 45.35 29.4377V29.4377Z" stroke="black" stroke-width="0.075" stroke-linecap="round" stroke-linejoin="round"/>
<path fill-rule="evenodd" clip-rule="evenodd" d="M43.1125 37.1625C42.9987 37.3312 42.882 37.4979 42.7625 37.6625C41.5125 38.1125 39.5125 38.5876 38.6875 38.7126C36.4737 39.1251 34.2269 39.3343 31.975 39.3376C26.925 39.2626 22.7875 38.275 20.85 37.425L20.6875 37.1625L20.7125 37.1125L20.975 37.225C24.5325 38.4023 28.2528 39.0139 32 39.0375C34.35 39.0375 36.6875 38.775 38.575 38.4375C41.475 37.85 42.65 37.4126 43.0125 37.2126L43.1 37.1625H43.1125ZM43.775 36.0625C43.6927 36.209 43.6094 36.3548 43.525 36.5C42.85 36.75 41.025 37.2751 38.3625 37.6501C36.6125 37.8876 35.525 38.125 32.0375 38.1875C28.0508 38.1475 24.0886 37.5587 20.2625 36.4375L20.125 36.125C24.0123 37.1994 28.0179 37.7872 32.05 37.875C35.2375 37.8125 36.6 37.5751 38.3375 37.3376C41.4375 36.8626 43 36.3376 43.4625 36.2001C43.4628 36.1917 43.4628 36.1834 43.4625 36.175L43.7875 36.05L43.775 36.0625Z" fill="#FFFF00" stroke="black" stroke-width="0.075" stroke-linecap="round" stroke-linejoin="round"/>
<path fill-rule="evenodd" clip-rule="evenodd" d="M43.8499 29.7C43.8624 33.45 41.9374 36.825 40.3999 38.3C38.1291 40.5147 35.0966 41.7761 31.9249 41.825C28.1374 41.8875 24.5749 39.425 23.6124 38.3375C21.4592 36.0541 20.2337 33.0505 20.1749 29.9125C20.3999 25.8125 22.0124 22.9625 24.3374 21C26.596 19.1407 29.4371 18.1361 32.3624 18.1625C34.0701 18.2453 35.7416 18.6839 37.2699 19.4502C38.7982 20.2165 40.1496 21.2936 41.2374 22.6125C42.7999 24.5125 43.4874 26.575 43.8499 29.7V29.7ZM31.9499 16.875C35.4468 16.8749 38.8019 18.2571 41.2839 20.7204C43.7659 23.1837 45.1735 26.5282 45.1999 30.025C45.1999 31.7601 44.8582 33.4782 44.1942 35.0812C43.5302 36.6842 42.557 38.1408 41.3301 39.3676C40.1032 40.5945 38.6466 41.5678 37.0436 42.2318C35.4406 42.8957 33.7225 43.2375 31.9874 43.2375C30.2523 43.2375 28.5342 42.8957 26.9312 42.2318C25.3282 41.5678 23.8717 40.5945 22.6448 39.3676C21.4179 38.1408 20.4447 36.6842 19.7807 35.0812C19.1167 33.4782 18.7749 31.7601 18.7749 30.025C18.7624 22.775 24.6874 16.875 31.9499 16.875" fill="#FFFF00"/>
<path d="M31.9499 16.875C35.4468 16.8749 38.8019 18.2571 41.2839 20.7204C43.7659 23.1837 45.1735 26.5282 45.1999 30.025C45.1999 31.7601 44.8582 33.4782 44.1942 35.0812C43.5302 36.6842 42.557 38.1408 41.3301 39.3676C40.1032 40.5945 38.6466 41.5678 37.0436 42.2318C35.4406 42.8957 33.7225 43.2375 31.9874 43.2375C30.2523 43.2375 28.5342 42.8957 26.9312 42.2318C25.3282 41.5678 23.8717 40.5945 22.6448 39.3676C21.4179 38.1408 20.4447 36.6842 19.7807 35.0812C19.1167 33.4782 18.7749 31.7601 18.7749 30.025C18.7624 22.775 24.6874 16.875 31.9499 16.875M43.8499 29.7C43.8624 33.45 41.9374 36.825 40.3999 38.3C38.1291 40.5147 35.0966 41.7761 31.9249 41.825C28.1374 41.8875 24.5749 39.425 23.6124 38.3375C21.4592 36.0541 20.2337 33.0505 20.1749 29.9125C20.3999 25.8125 22.0124 22.9625 24.3374 21C26.596 19.1407 29.4371 18.1361 32.3624 18.1625C34.0701 18.2453 35.7416 18.6839 37.2699 19.4502C38.7982 20.2165 40.1496 21.2936 41.2374 22.6125C42.7999 24.5125 43.4874 26.575 43.8499 29.7V29.7Z" stroke="black" stroke-width="0.075" stroke-linecap="round" stroke-linejoin="round"/>
<path fill-rule="evenodd" clip-rule="evenodd" d="M31.9873 16.8125C39.2623 16.8125 45.1873 22.7375 45.1873 30.0125C45.1873 37.2875 39.2623 43.2125 31.9998 43.2125C24.7373 43.2125 18.7998 37.2875 18.7998 30.0125C18.7998 22.7375 24.7248 16.8125 31.9998 16.8125H31.9873ZM19.0748 30C19.0748 37.1 24.9123 42.9125 31.9873 42.9125C39.0623 42.9125 44.8998 37.1 44.8998 30C44.8998 22.9 39.0623 17.0875 31.9873 17.0875C24.9123 17.0875 19.0748 22.9 19.0748 30Z" fill="#FFFF00" stroke="black" stroke-width="0.075" stroke-linecap="round" stroke-linejoin="round"/>
<path fill-rule="evenodd" clip-rule="evenodd" d="M32.0001 17.9126C35.2029 17.9225 38.2716 19.1992 40.5363 21.4639C42.801 23.7286 44.0777 26.7973 44.0876 30.0001C44.0777 33.204 42.8014 36.2741 40.5371 38.5408C38.2727 40.8075 35.204 42.0869 32.0001 42.1001C25.3751 42.1001 19.9126 36.6501 19.9126 30.0001C19.9258 26.7983 21.2035 23.7315 23.4675 21.4675C25.7315 19.2035 28.7983 17.9258 32.0001 17.9126V17.9126ZM20.2001 30.0001C20.2001 36.5001 25.5251 41.8001 32.0001 41.8001C38.4751 41.8001 43.8001 36.4876 43.8001 30.0001C43.8001 23.5001 38.4751 18.2001 32.0001 18.2001C28.8746 18.2133 25.8809 19.4607 23.6708 21.6708C21.4607 23.8809 20.2133 26.8746 20.2001 30.0001V30.0001Z" fill="#FFFF00" stroke="black" stroke-width="0.075" stroke-linecap="round" stroke-linejoin="round"/>
<path fill-rule="evenodd" clip-rule="evenodd" d="M32.5374 16.75H31.3999V43.2875H32.5249L32.5374 16.75Z" fill="#FFFF00" stroke="black" stroke-width="0.075" stroke-linecap="round" stroke-linejoin="round"/>
<path fill-rule="evenodd" clip-rule="evenodd" d="M32.4126 16.6001H32.7001V43.4376H32.4251V16.6001H32.4126ZM31.2876 16.6001H31.5876V43.4376H31.3001V16.6001H31.2876Z" fill="#FFFF00" stroke="black" stroke-width="0.075" stroke-linecap="round" stroke-linejoin="round"/>
<path fill-rule="evenodd" clip-rule="evenodd" d="M45.1998 30.525V29.55L44.3998 28.8L39.8623 27.6L33.3373 26.9375L25.4623 27.3375L19.8623 28.6625L18.7373 29.5V30.4875L21.5998 29.2L28.3998 28.1375H34.9373L39.7373 28.6625L43.0623 29.4625L45.1998 30.525Z" fill="#FFFF00" stroke="black" stroke-width="0.075" stroke-linecap="round" stroke-linejoin="round"/>
<path fill-rule="evenodd" clip-rule="evenodd" d="M32 27.9752C35.1125 27.9752 38.125 28.2627 40.5375 28.7252C43.0125 29.2252 44.75 29.8502 45.35 30.5377V30.8877C44.625 30.0127 42.2875 29.3877 40.475 29.0127C38.1 28.5627 35.1 28.2627 31.9875 28.2627C28.725 28.2627 25.675 28.5877 23.325 29.0377C21.45 29.4127 18.9375 30.1627 18.625 30.8877V30.5251C18.7875 30.0251 20.6625 29.2751 23.2875 28.7376C25.65 28.2751 28.7 27.9752 31.9875 27.9752H32ZM32 26.8376C34.8625 26.8319 37.7198 27.0829 40.5375 27.5876C43.0125 28.0876 44.75 28.7127 45.35 29.4127V29.7501C44.625 28.8876 42.2875 28.2502 40.475 27.8877C38.1 27.4252 35.1 27.1377 31.9875 27.1377C29.0864 27.1285 26.1907 27.3879 23.3375 27.9127C21.525 28.2502 18.9125 29.0251 18.625 29.7501V29.4001C18.8 28.9001 20.7 28.1126 23.2875 27.6126C25.6625 27.1501 28.7 26.8376 32 26.8376V26.8376ZM31.925 21.0626C36.8375 21.0376 41.125 21.7501 43.0875 22.7501L43.8 24.0001C42.1 23.0751 37.475 22.1251 31.9375 22.2501C27.425 22.2876 22.6 22.7501 20.1875 24.0501L21.0375 22.6251C23.025 21.5876 27.7 21.0626 31.925 21.0626" fill="#FFFF00"/>
<path d="M31.925 21.0626C36.8375 21.0376 41.125 21.7501 43.0875 22.7501L43.8 24.0001C42.1 23.0751 37.475 22.1251 31.9375 22.2501C27.425 22.2876 22.6 22.7501 20.1875 24.0501L21.0375 22.6251C23.025 21.5876 27.7 21.0626 31.925 21.0626M32 27.9752C35.1125 27.9752 38.125 28.2627 40.5375 28.7252C43.0125 29.2252 44.75 29.8502 45.35 30.5377V30.8877C44.625 30.0127 42.2875 29.3877 40.475 29.0127C38.1 28.5627 35.1 28.2627 31.9875 28.2627C28.725 28.2627 25.675 28.5877 23.325 29.0377C21.45 29.4127 18.9375 30.1627 18.625 30.8877V30.5251C18.7875 30.0251 20.6625 29.2751 23.2875 28.7376C25.65 28.2751 28.7 27.9752 31.9875 27.9752H32ZM32 26.8376C34.8625 26.8319 37.7198 27.0829 40.5375 27.5876C43.0125 28.0876 44.75 28.7127 45.35 29.4127V29.7501C44.625 28.8876 42.2875 28.2502 40.475 27.8877C38.1 27.4252 35.1 27.1377 31.9875 27.1377C29.0864 27.1285 26.1907 27.3879 23.3375 27.9127C21.525 28.2502 18.9125 29.0251 18.625 29.7501V29.4001C18.8 28.9001 20.7 28.1126 23.2875 27.6126C25.6625 27.1501 28.7 26.8376 32 26.8376V26.8376Z" stroke="black" stroke-width="0.075" stroke-linecap="round" stroke-linejoin="round"/>
<path fill-rule="evenodd" clip-rule="evenodd" d="M32.0001 22.0877C34.565 22.0444 37.1288 22.2242 39.6626 22.6252C41.6626 23.0002 43.5751 23.5502 43.8501 23.8502L44.0626 24.2252C43.4001 23.8002 41.7376 23.3127 39.6126 22.9127C37.4876 22.5127 34.7751 22.3752 31.9876 22.3877C28.8251 22.3752 26.3626 22.5377 24.2626 22.9127C22.815 23.1155 21.4095 23.5503 20.1001 24.2002L20.3126 23.8127C21.0626 23.4377 22.2251 22.9752 24.2001 22.6127C26.3876 22.2127 28.8751 22.1002 32.0001 22.0877V22.0877ZM32.0001 20.9627C34.6751 20.9377 37.3251 21.0877 39.3876 21.4627C40.7239 21.6611 42.017 22.0837 43.2126 22.7127L43.5251 23.2127C43.0001 22.6252 41.0251 22.0627 39.2626 21.7627C37.2126 21.4002 34.6751 21.2627 32.0001 21.2377C29.51 21.2155 27.0223 21.3994 24.5626 21.7877C23.2764 21.9669 22.0273 22.3509 20.8626 22.9252L21.1376 22.5127C21.8626 22.1377 23.0376 21.7877 24.5126 21.5002C26.9886 21.1068 29.4932 20.9228 32.0001 20.9502V20.9627ZM38.5501 35.5002C36.3835 35.125 34.186 34.9576 31.9876 35.0002C23.8001 35.1002 21.1626 36.6877 20.8376 37.1627L20.2126 36.1627C22.3126 34.6627 26.7626 33.8127 32.0376 33.8877C34.7751 33.9377 37.1376 34.1252 39.1126 34.5127L38.5501 35.5127" fill="#FFFF00"/>
<path d="M38.5501 35.5002C36.3835 35.125 34.186 34.9576 31.9876 35.0002C23.8001 35.1002 21.1626 36.6877 20.8376 37.1627L20.2126 36.1627C22.3126 34.6627 26.7626 33.8127 32.0376 33.8877C34.7751 33.9377 37.1376 34.1252 39.1126 34.5127L38.5501 35.5127M32.0001 22.0877C34.565 22.0444 37.1288 22.2242 39.6626 22.6252C41.6626 23.0002 43.5751 23.5502 43.8501 23.8502L44.0626 24.2252C43.4001 23.8002 41.7376 23.3127 39.6126 22.9127C37.4876 22.5127 34.7751 22.3752 31.9876 22.3877C28.8251 22.3752 26.3626 22.5377 24.2626 22.9127C22.815 23.1155 21.4095 23.5503 20.1001 24.2002L20.3126 23.8127C21.0626 23.4377 22.2251 22.9752 24.2001 22.6127C26.3876 22.2127 28.8751 22.1002 32.0001 22.0877V22.0877ZM32.0001 20.9627C34.6751 20.9377 37.3251 21.0877 39.3876 21.4627C40.7239 21.6611 42.017 22.0837 43.2126 22.7127L43.5251 23.2127C43.0001 22.6252 41.0251 22.0627 39.2626 21.7627C37.2126 21.4002 34.6751 21.2627 32.0001 21.2377C29.51 21.2155 27.0223 21.3994 24.5626 21.7877C23.2764 21.9669 22.0273 22.3509 20.8626 22.9252L21.1376 22.5127C21.8626 22.1377 23.0376 21.7877 24.5126 21.5002C26.9886 21.1068 29.4932 20.9228 32.0001 20.9502V20.9627Z" stroke="black" stroke-width="0.075" stroke-linecap="round" stroke-linejoin="round"/>
<path fill-rule="evenodd" clip-rule="evenodd" d="M31.9498 34.8627C34.2248 34.9002 36.4498 34.9877 38.6123 35.3877L38.4623 35.6627C36.4623 35.2877 34.3123 35.1627 31.9623 35.1627C28.9248 35.1377 25.8748 35.4252 23.2123 36.1877C22.3748 36.4252 20.9873 36.9627 20.8373 37.4127L20.6873 37.1627C20.7373 36.8877 21.5623 36.3377 23.1373 35.9127C26.1873 35.0377 29.0373 34.8752 31.9498 34.8627ZM32.0498 33.7127C34.451 33.7102 36.8478 33.9194 39.2123 34.3377L39.0498 34.6252C36.7409 34.2016 34.3972 33.9966 32.0498 34.0127C29.0248 34.0127 25.8123 34.2377 22.8873 35.0877C21.9498 35.3627 20.3123 35.9627 20.2623 36.4252L20.1123 36.1502C20.1373 35.7252 21.5498 35.1627 22.8248 34.8002C25.7623 33.9377 28.9873 33.7252 32.0498 33.7127V33.7127Z" fill="#FFFF00" stroke="black" stroke-width="0.075" stroke-linecap="round" stroke-linejoin="round"/>
<path fill-rule="evenodd" clip-rule="evenodd" d="M43.6751 36.3126L42.7001 37.8501L39.8626 35.3376L32.5376 30.4001L24.2626 25.8626L19.9751 24.4001L20.8876 22.7001L21.2001 22.5376L23.8626 23.2001L32.6626 27.7376L37.7376 30.9376L42.0001 34.0001L43.7376 36.0001L43.6751 36.3126Z" fill="#FFFF00" stroke="black" stroke-width="0.075" stroke-linecap="round" stroke-linejoin="round"/>
<path fill-rule="evenodd" clip-rule="evenodd" d="M19.8251 24.4377C20.5751 23.9377 26.1001 26.3877 31.9001 29.8877C37.6626 33.3877 43.1876 37.3377 42.6876 38.0752L42.5251 38.3377L42.4501 38.4002C42.4626 38.3877 42.5501 38.2752 42.4501 38.0127C42.2001 37.2002 38.2751 34.0752 31.7876 30.1502C25.4501 26.3877 20.1751 24.1127 19.6626 24.7627L19.8251 24.4377V24.4377ZM43.8751 36.3002C44.3501 35.3502 39.2251 31.4877 32.8626 27.7252C26.3626 24.0377 21.6626 21.8627 20.8001 22.5127L20.6251 22.8752C20.6251 22.8877 20.6251 22.8502 20.6751 22.8127C20.8251 22.6877 21.0876 22.6877 21.2001 22.6877C22.6751 22.7127 26.8876 24.6502 32.8001 28.0377C35.4001 29.5377 43.7501 34.9127 43.7126 36.4127C43.7126 36.5377 43.7251 36.5627 43.6751 36.6377L43.8876 36.3127L43.8751 36.3002Z" fill="#FFFF00" stroke="black" stroke-width="0.075" stroke-linecap="round" stroke-linejoin="round"/>
<path d="M24.0801 31.4708C24.0821 32.5058 24.2893 33.5302 24.6898 34.4846C25.0903 35.4389 25.6762 36.3044 26.4134 37.0308C27.1417 37.7703 28.0091 38.3584 28.9656 38.7611C29.9221 39.1639 30.9489 39.3734 31.9868 39.3775C34.0872 39.3774 36.1016 38.5428 37.5868 37.0575C38.3214 36.3271 38.9046 35.4587 39.3027 34.5022C39.7008 33.5458 39.9061 32.5202 39.9068 31.4842V20.9241L24.0801 20.8975V31.4708V31.4708Z" fill="white" stroke="black" stroke-width="0.0933336"/>
<path d="M24.3735 31.4842C24.3764 32.477 24.5757 33.4595 24.9602 34.3749C25.3447 35.2902 25.9066 36.1204 26.6135 36.8175C28.0331 38.2445 29.9608 39.0501 31.9736 39.0575C33.9828 39.0586 35.9105 38.2626 37.3336 36.8442C38.0381 36.146 38.5976 35.3153 38.9797 34.4C39.3619 33.4846 39.5592 32.5027 39.5602 31.5108V21.2441H24.4002V31.4842M36.5336 24.3241V30.8442L36.5202 31.5242C36.5247 32.1198 36.409 32.7103 36.1799 33.2601C35.9507 33.81 35.613 34.3079 35.1869 34.7242C34.339 35.575 33.1881 36.0546 31.9869 36.0575C30.7336 36.0575 29.6269 35.5242 28.8002 34.6975C27.9494 33.8496 27.4698 32.6987 27.4669 31.4975V24.2975L36.5336 24.3241Z" fill="#FF0000"/>
<path d="M24.3735 31.4842C24.3764 32.477 24.5757 33.4595 24.9602 34.3749C25.3447 35.2902 25.9066 36.1204 26.6135 36.8175C28.0331 38.2445 29.9608 39.0501 31.9736 39.0575C33.9828 39.0586 35.9105 38.2626 37.3336 36.8442C38.0381 36.146 38.5976 35.3153 38.9797 34.4C39.3619 33.4846 39.5592 32.5027 39.5602 31.5108V21.2441H24.4002V31.4842M36.5336 24.3241V30.8442L36.5202 31.5242C36.5247 32.1198 36.409 32.7103 36.1799 33.2601C35.9507 33.81 35.613 34.3079 35.1869 34.7242C34.339 35.575 33.1881 36.0546 31.9869 36.0575C30.7336 36.0575 29.6269 35.5242 28.8002 34.6975C27.9494 33.8496 27.4698 32.6987 27.4669 31.4975V24.2975L36.5336 24.3241Z" stroke="black" stroke-width="0.0666669"/>
<path d="M25.3599 23.924C25.3732 23.1907 25.8932 23.0173 25.8932 23.0173C25.9065 23.0173 26.4665 23.204 26.4665 23.9373H25.3599" fill="#FFFF00"/>
<path d="M24.9067 23.0307L24.8134 23.8707H25.3734C25.3734 23.1773 25.9067 23.0707 25.9067 23.0707C25.92 23.0707 26.44 23.2173 26.4534 23.8707H27.0134L26.9067 23.0173H24.9067V23.0307ZM24.7734 23.884H27.04C27.08 23.884 27.12 23.924 27.12 23.9773C27.12 24.044 27.08 24.084 27.04 24.084H24.7734C24.7334 24.084 24.6934 24.044 24.6934 23.9773C24.6934 23.924 24.7334 23.884 24.7867 23.884H24.7734Z" fill="#FFFF00" stroke="black" stroke-width="0.0666669"/>
<path d="M25.5999 23.8708C25.5999 23.4308 25.9066 23.3108 25.9066 23.3108C25.9066 23.3108 26.2133 23.4441 26.2133 23.8708H25.5999ZM24.8266 22.6708H26.9999C27.0399 22.6708 27.0799 22.7241 27.0799 22.7774C27.0799 22.8174 27.0399 22.8574 26.9999 22.8574H24.8266C24.7866 22.8574 24.7466 22.8174 24.7466 22.7641C24.7466 22.7241 24.7866 22.6841 24.8266 22.6841V22.6708ZM24.8799 22.8708H26.9333C26.9733 22.8708 27.0133 22.9108 27.0133 22.9641C27.0133 23.0174 26.9733 23.0574 26.9333 23.0574H24.8666C24.8132 23.0574 24.7866 23.0174 24.7866 22.9641C24.7866 22.9108 24.8132 22.8708 24.8666 22.8708H24.8799ZM25.5466 21.4574H25.7066V21.5641H25.8266V21.4574H25.9999V21.5774H26.1199V21.4441H26.2799V21.7108C26.2799 21.7641 26.2533 21.7908 26.2133 21.7908H25.6266C25.5866 21.7908 25.5466 21.7641 25.5466 21.7241V21.4574ZM26.1599 21.8174L26.1999 22.6708H25.6266L25.6666 21.8041H26.1599" fill="#FFFF00"/>
<path d="M26.1599 21.8174L26.1999 22.6708H25.6266L25.6666 21.8041H26.1599M25.5999 23.8708C25.5999 23.4308 25.9066 23.3108 25.9066 23.3108C25.9066 23.3108 26.2133 23.4441 26.2133 23.8708H25.5999ZM24.8266 22.6708H26.9999C27.0399 22.6708 27.0799 22.7241 27.0799 22.7774C27.0799 22.8174 27.0399 22.8574 26.9999 22.8574H24.8266C24.7866 22.8574 24.7466 22.8174 24.7466 22.7641C24.7466 22.7241 24.7866 22.6841 24.8266 22.6841V22.6708ZM24.8799 22.8708H26.9333C26.9733 22.8708 27.0133 22.9108 27.0133 22.9641C27.0133 23.0174 26.9733 23.0574 26.9333 23.0574H24.8666C24.8132 23.0574 24.7866 23.0174 24.7866 22.9641C24.7866 22.9108 24.8132 22.8708 24.8666 22.8708H24.8799ZM25.5466 21.4574H25.7066V21.5641H25.8266V21.4574H25.9999V21.5774H26.1199V21.4441H26.2799V21.7108C26.2799 21.7641 26.2533 21.7908 26.2133 21.7908H25.6266C25.5866 21.7908 25.5466 21.7641 25.5466 21.7241V21.4574Z" stroke="black" stroke-width="0.0666669"/>
<path d="M25.4669 22.2175V22.6709H24.9336V22.2175H25.4669Z" fill="#FFFF00" stroke="black" stroke-width="0.0666669"/>
<path d="M25.4669 22.2175V22.6709H24.9336V22.2175H25.4669Z" fill="#FFFF00" stroke="black" stroke-width="0.0666669"/>
<path d="M24.8398 21.8708H24.9998V22.0042H25.1198V21.8708H25.2798V22.0042H25.3998V21.8708H25.5598V22.1375C25.5598 22.1909 25.5332 22.2175 25.4932 22.2175H24.9198C24.8986 22.2175 24.8783 22.2091 24.8633 22.1941C24.8483 22.1791 24.8398 22.1587 24.8398 22.1375V21.8708V21.8708Z" fill="#FFFF00" stroke="black" stroke-width="0.0666669"/>
<path d="M24.8398 21.8708H24.9998V22.0042H25.1198V21.8708H25.2798V22.0042H25.3998V21.8708H25.5598V22.1375C25.5598 22.1909 25.5332 22.2175 25.4932 22.2175H24.9198C24.8986 22.2175 24.8783 22.2091 24.8633 22.1941C24.8483 22.1791 24.8398 22.1587 24.8398 22.1375V21.8708V21.8708Z" fill="#FFFF00" stroke="black" stroke-width="0.0666669"/>
<path d="M25.8535 22.0842C25.8535 22.0042 25.9735 22.0042 25.9735 22.0842V22.2975H25.8535V22.0842Z" fill="black"/>
<path d="M25.1465 22.3774C25.1465 22.2974 25.2531 22.2974 25.2531 22.3774V22.5374H25.1465V22.3774Z" fill="black"/>
<path d="M25.1465 22.3774C25.1465 22.2974 25.2531 22.2974 25.2531 22.3774V22.5374H25.1465V22.3774Z" fill="black"/>
<path d="M25.3599 23.924C25.3732 23.1907 25.8932 23.0173 25.8932 23.0173C25.9065 23.0173 26.4665 23.204 26.4665 23.9373H25.3599" fill="#FFFF00"/>
<path d="M24.9067 23.0307L24.8134 23.8707H25.3734C25.3734 23.1773 25.9067 23.0707 25.9067 23.0707C25.92 23.0707 26.44 23.2173 26.4534 23.8707H27.0134L26.9067 23.0173H24.9067V23.0307ZM24.7734 23.884H27.04C27.08 23.884 27.12 23.924 27.12 23.9773C27.12 24.044 27.08 24.084 27.04 24.084H24.7734C24.7334 24.084 24.6934 24.044 24.6934 23.9773C24.6934 23.924 24.7334 23.884 24.7867 23.884H24.7734Z" fill="#FFFF00" stroke="black" stroke-width="0.0666669"/>
<path d="M25.5999 23.8708C25.5999 23.4308 25.9066 23.3108 25.9066 23.3108C25.9066 23.3108 26.2133 23.4441 26.2133 23.8708H25.5999ZM24.8266 22.6708H26.9999C27.0399 22.6708 27.0799 22.7241 27.0799 22.7774C27.0799 22.8174 27.0399 22.8574 26.9999 22.8574H24.8266C24.7866 22.8574 24.7466 22.8174 24.7466 22.7641C24.7466 22.7241 24.7866 22.6841 24.8266 22.6841V22.6708ZM24.8799 22.8708H26.9333C26.9733 22.8708 27.0133 22.9108 27.0133 22.9641C27.0133 23.0174 26.9733 23.0574 26.9333 23.0574H24.8666C24.8132 23.0574 24.7866 23.0174 24.7866 22.9641C24.7866 22.9108 24.8132 22.8708 24.8666 22.8708H24.8799ZM25.5466 21.4574H25.7066V21.5641H25.8266V21.4574H25.9999V21.5774H26.1199V21.4441H26.2799V21.7108C26.2799 21.7641 26.2533 21.7908 26.2133 21.7908H25.6266C25.5866 21.7908 25.5466 21.7641 25.5466 21.7241V21.4574ZM26.1599 21.8174L26.1999 22.6708H25.6266L25.6666 21.8041H26.1599" fill="#FFFF00"/>
<path d="M26.1599 21.8174L26.1999 22.6708H25.6266L25.6666 21.8041H26.1599M25.5999 23.8708C25.5999 23.4308 25.9066 23.3108 25.9066 23.3108C25.9066 23.3108 26.2133 23.4441 26.2133 23.8708H25.5999ZM24.8266 22.6708H26.9999C27.0399 22.6708 27.0799 22.7241 27.0799 22.7774C27.0799 22.8174 27.0399 22.8574 26.9999 22.8574H24.8266C24.7866 22.8574 24.7466 22.8174 24.7466 22.7641C24.7466 22.7241 24.7866 22.6841 24.8266 22.6841V22.6708ZM24.8799 22.8708H26.9333C26.9733 22.8708 27.0133 22.9108 27.0133 22.9641C27.0133 23.0174 26.9733 23.0574 26.9333 23.0574H24.8666C24.8132 23.0574 24.7866 23.0174 24.7866 22.9641C24.7866 22.9108 24.8132 22.8708 24.8666 22.8708H24.8799ZM25.5466 21.4574H25.7066V21.5641H25.8266V21.4574H25.9999V21.5774H26.1199V21.4441H26.2799V21.7108C26.2799 21.7641 26.2533 21.7908 26.2133 21.7908H25.6266C25.5866 21.7908 25.5466 21.7641 25.5466 21.7241V21.4574Z" stroke="black" stroke-width="0.0666669"/>
<path d="M25.4669 22.2175V22.6709H24.9336V22.2175H25.4669Z" fill="#FFFF00" stroke="black" stroke-width="0.0666669"/>
<path d="M25.4669 22.2175V22.6709H24.9336V22.2175H25.4669Z" fill="#FFFF00" stroke="black" stroke-width="0.0666669"/>
<path d="M24.8398 21.8708H24.9998V22.0042H25.1198V21.8708H25.2798V22.0042H25.3998V21.8708H25.5598V22.1375C25.5598 22.1909 25.5332 22.2175 25.4932 22.2175H24.9198C24.8986 22.2175 24.8783 22.2091 24.8633 22.1941C24.8483 22.1791 24.8398 22.1587 24.8398 22.1375V21.8708V21.8708Z" fill="#FFFF00" stroke="black" stroke-width="0.0666669"/>
<path d="M24.8398 21.8708H24.9998V22.0042H25.1198V21.8708H25.2798V22.0042H25.3998V21.8708H25.5598V22.1375C25.5598 22.1909 25.5332 22.2175 25.4932 22.2175H24.9198C24.8986 22.2175 24.8783 22.2091 24.8633 22.1941C24.8483 22.1791 24.8398 22.1587 24.8398 22.1375V21.8708V21.8708Z" fill="#FFFF00" stroke="black" stroke-width="0.0666669"/>
<path d="M25.8535 22.0842C25.8535 22.0042 25.9735 22.0042 25.9735 22.0842V22.2975H25.8535V22.0842Z" fill="black"/>
<path d="M25.1465 22.3774C25.1465 22.2974 25.2531 22.2974 25.2531 22.3774V22.5374H25.1465V22.3774Z" fill="black"/>
<path d="M25.1465 22.3774C25.1465 22.2974 25.2531 22.2974 25.2531 22.3774V22.5374H25.1465V22.3774Z" fill="black"/>
<path d="M27.7659 36.5314C27.2549 36.0053 27.4984 35.5141 27.4984 35.5141C27.5078 35.5047 28.0348 35.2388 28.5552 35.7556L27.7754 36.5408" fill="#FFFF00"/>
<path d="M26.8126 36.2237L27.3429 36.8819L27.7375 36.4845C27.2455 35.996 27.5456 35.5424 27.5456 35.5424C27.555 35.5329 28.0255 35.2673 28.4985 35.7182L28.8931 35.3208L28.2124 34.7952L26.8032 36.2143L26.8126 36.2237ZM27.3242 36.9196L28.9213 35.3113C28.9495 35.2829 29.0061 35.2827 29.0439 35.3203C29.0912 35.3673 29.0914 35.4238 29.0633 35.4522L27.4661 37.0606C27.4379 37.089 27.3813 37.0891 27.334 37.0422C27.2962 37.0046 27.296 36.948 27.3336 36.9102L27.3242 36.9196Z" fill="#FFFF00" stroke="black" stroke-width="0.0666669"/>
<path d="M27.8974 36.3237C27.5852 36.0136 27.7161 35.7115 27.7161 35.7115C27.7161 35.7115 28.0268 35.5878 28.3296 35.8884L27.8974 36.3237ZM26.501 36.0268L28.0324 34.4847C28.0606 34.4563 28.1266 34.4655 28.1645 34.5031C28.1929 34.5313 28.193 34.5878 28.1649 34.6162L26.6335 36.1584C26.6053 36.1867 26.5487 36.1869 26.5109 36.1494C26.4825 36.1212 26.4823 36.0646 26.5105 36.0362L26.501 36.0268ZM26.6805 36.1299L28.1273 34.6729C28.1555 34.6445 28.2121 34.6443 28.2499 34.6819C28.2878 34.7195 28.288 34.7761 28.2598 34.8045L26.8036 36.2709C26.766 36.3087 26.7188 36.2995 26.681 36.2619C26.6431 36.2243 26.6335 36.1772 26.6711 36.1394L26.6805 36.1299ZM26.1474 34.661L26.2601 34.5474L26.3358 34.6226L26.4204 34.5375L26.3447 34.4623L26.4668 34.3393L26.552 34.4239L26.6365 34.3387L26.5419 34.2448L26.6547 34.1312L26.8439 34.3191C26.8817 34.3567 26.8819 34.3944 26.8537 34.4228L26.4403 34.8391C26.4121 34.8675 26.365 34.8771 26.3366 34.8489L26.1474 34.661ZM26.835 34.4794L27.4687 35.0523L27.0647 35.4592L26.4779 34.8201L26.8256 34.47" fill="#FFFF00"/>
<path d="M26.835 34.4794L27.4687 35.0523L27.0647 35.4592L26.4779 34.8201L26.8256 34.47M27.8974 36.3237C27.5852 36.0136 27.7161 35.7115 27.7161 35.7115C27.7161 35.7115 28.0268 35.5878 28.3296 35.8884L27.8974 36.3237ZM26.501 36.0268L28.0324 34.4847C28.0606 34.4563 28.1266 34.4655 28.1645 34.5031C28.1929 34.5313 28.193 34.5878 28.1649 34.6162L26.6335 36.1584C26.6053 36.1867 26.5487 36.1869 26.5109 36.1494C26.4825 36.1212 26.4823 36.0646 26.5105 36.0362L26.501 36.0268ZM26.6805 36.1299L28.1273 34.6729C28.1555 34.6445 28.2121 34.6443 28.2499 34.6819C28.2878 34.7195 28.288 34.7761 28.2598 34.8045L26.8036 36.2709C26.766 36.3087 26.7188 36.2995 26.681 36.2619C26.6431 36.2243 26.6335 36.1772 26.6711 36.1394L26.6805 36.1299ZM26.1474 34.661L26.2601 34.5474L26.3358 34.6226L26.4204 34.5375L26.3447 34.4623L26.4668 34.3393L26.552 34.4239L26.6365 34.3387L26.5419 34.2448L26.6547 34.1312L26.8439 34.3191C26.8817 34.3567 26.8819 34.3944 26.8537 34.4228L26.4403 34.8391C26.4121 34.8675 26.365 34.8771 26.3366 34.8489L26.1474 34.661Z" stroke="black" stroke-width="0.0666669"/>
<path d="M26.6302 35.2532L26.9519 35.5726L26.5761 35.951L26.2544 35.6316L26.6302 35.2532Z" fill="#FFFF00" stroke="black" stroke-width="0.0666669"/>
<path d="M26.6302 35.2532L26.9519 35.5726L26.5761 35.951L26.2544 35.6316L26.6302 35.2532Z" fill="#FFFF00" stroke="black" stroke-width="0.0666669"/>
<path d="M25.9429 35.4536L26.0556 35.3401L26.1502 35.434L26.2348 35.3489L26.1402 35.2549L26.2529 35.1414L26.3475 35.2354L26.4321 35.1502L26.3375 35.0563L26.4502 34.9427L26.6394 35.1306C26.6773 35.1682 26.6774 35.2059 26.6492 35.2343L26.2452 35.6411C26.2303 35.6562 26.21 35.6647 26.1887 35.6648C26.1675 35.6648 26.1471 35.6565 26.1321 35.6415L25.9429 35.4536V35.4536Z" fill="#FFFF00" stroke="black" stroke-width="0.0666669"/>
<path d="M25.9429 35.4536L26.0556 35.3401L26.1502 35.434L26.2348 35.3489L26.1402 35.2549L26.2529 35.1414L26.3475 35.2354L26.4321 35.1502L26.3375 35.0563L26.4502 34.9427L26.6394 35.1306C26.6773 35.1682 26.6774 35.2059 26.6492 35.2343L26.2452 35.6411C26.2303 35.6562 26.21 35.6647 26.1887 35.6648C26.1675 35.6648 26.1471 35.6565 26.1321 35.6415L25.9429 35.4536V35.4536Z" fill="#FFFF00" stroke="black" stroke-width="0.0666669"/>
<path d="M26.8082 34.8851C26.7514 34.8287 26.836 34.7435 26.8928 34.7999L27.0441 34.9502L26.9596 35.0354L26.8082 34.8851Z" fill="black"/>
<path d="M26.5182 35.5931C26.4614 35.5367 26.5366 35.461 26.5933 35.5174L26.7069 35.6301L26.6317 35.7058L26.5182 35.5931Z" fill="black"/>
<path d="M26.5182 35.5931C26.4614 35.5367 26.5366 35.461 26.5933 35.5174L26.7069 35.6301L26.6317 35.7058L26.5182 35.5931Z" fill="black"/>
<path d="M25.3599 23.924C25.3732 23.1907 25.8932 23.0173 25.8932 23.0173C25.9065 23.0173 26.4665 23.204 26.4665 23.9373H25.3599" fill="#FFFF00"/>
<path d="M24.9067 23.0307L24.8134 23.8707H25.3734C25.3734 23.1773 25.9067 23.0707 25.9067 23.0707C25.92 23.0707 26.44 23.2173 26.4534 23.8707H27.0134L26.9067 23.0173H24.9067V23.0307ZM24.7734 23.884H27.04C27.08 23.884 27.12 23.924 27.12 23.9773C27.12 24.044 27.08 24.084 27.04 24.084H24.7734C24.7334 24.084 24.6934 24.044 24.6934 23.9773C24.6934 23.924 24.7334 23.884 24.7867 23.884H24.7734Z" fill="#FFFF00" stroke="black" stroke-width="0.0666669"/>
<path d="M25.5999 23.8708C25.5999 23.4308 25.9066 23.3108 25.9066 23.3108C25.9066 23.3108 26.2133 23.4441 26.2133 23.8708H25.5999ZM24.8266 22.6708H26.9999C27.0399 22.6708 27.0799 22.7241 27.0799 22.7774C27.0799 22.8174 27.0399 22.8574 26.9999 22.8574H24.8266C24.7866 22.8574 24.7466 22.8174 24.7466 22.7641C24.7466 22.7241 24.7866 22.6841 24.8266 22.6841V22.6708ZM24.8799 22.8708H26.9333C26.9733 22.8708 27.0133 22.9108 27.0133 22.9641C27.0133 23.0174 26.9733 23.0574 26.9333 23.0574H24.8666C24.8132 23.0574 24.7866 23.0174 24.7866 22.9641C24.7866 22.9108 24.8132 22.8708 24.8666 22.8708H24.8799ZM25.5466 21.4574H25.7066V21.5641H25.8266V21.4574H25.9999V21.5774H26.1199V21.4441H26.2799V21.7108C26.2799 21.7641 26.2533 21.7908 26.2133 21.7908H25.6266C25.5866 21.7908 25.5466 21.7641 25.5466 21.7241V21.4574ZM26.1599 21.8174L26.1999 22.6708H25.6266L25.6666 21.8041H26.1599" fill="#FFFF00"/>
<path d="M26.1599 21.8174L26.1999 22.6708H25.6266L25.6666 21.8041H26.1599M25.5999 23.8708C25.5999 23.4308 25.9066 23.3108 25.9066 23.3108C25.9066 23.3108 26.2133 23.4441 26.2133 23.8708H25.5999ZM24.8266 22.6708H26.9999C27.0399 22.6708 27.0799 22.7241 27.0799 22.7774C27.0799 22.8174 27.0399 22.8574 26.9999 22.8574H24.8266C24.7866 22.8574 24.7466 22.8174 24.7466 22.7641C24.7466 22.7241 24.7866 22.6841 24.8266 22.6841V22.6708ZM24.8799 22.8708H26.9333C26.9733 22.8708 27.0133 22.9108 27.0133 22.9641C27.0133 23.0174 26.9733 23.0574 26.9333 23.0574H24.8666C24.8132 23.0574 24.7866 23.0174 24.7866 22.9641C24.7866 22.9108 24.8132 22.8708 24.8666 22.8708H24.8799ZM25.5466 21.4574H25.7066V21.5641H25.8266V21.4574H25.9999V21.5774H26.1199V21.4441H26.2799V21.7108C26.2799 21.7641 26.2533 21.7908 26.2133 21.7908H25.6266C25.5866 21.7908 25.5466 21.7641 25.5466 21.7241V21.4574Z" stroke="black" stroke-width="0.0666669"/>
<path d="M25.4669 22.2175V22.6709H24.9336V22.2175H25.4669Z" fill="#FFFF00" stroke="black" stroke-width="0.0666669"/>
<path d="M25.4669 22.2175V22.6709H24.9336V22.2175H25.4669Z" fill="#FFFF00" stroke="black" stroke-width="0.0666669"/>
<path d="M24.8398 21.8708H24.9998V22.0042H25.1198V21.8708H25.2798V22.0042H25.3998V21.8708H25.5598V22.1375C25.5598 22.1909 25.5332 22.2175 25.4932 22.2175H24.9198C24.8986 22.2175 24.8783 22.2091 24.8633 22.1941C24.8483 22.1791 24.8398 22.1587 24.8398 22.1375V21.8708V21.8708Z" fill="#FFFF00" stroke="black" stroke-width="0.0666669"/>
<path d="M24.8398 21.8708H24.9998V22.0042H25.1198V21.8708H25.2798V22.0042H25.3998V21.8708H25.5598V22.1375C25.5598 22.1909 25.5332 22.2175 25.4932 22.2175H24.9198C24.8986 22.2175 24.8783 22.2091 24.8633 22.1941C24.8483 22.1791 24.8398 22.1587 24.8398 22.1375V21.8708V21.8708Z" fill="#FFFF00" stroke="black" stroke-width="0.0666669"/>
<path d="M25.8535 22.0842C25.8535 22.0042 25.9735 22.0042 25.9735 22.0842V22.2975H25.8535V22.0842Z" fill="black"/>
<path d="M25.1465 22.3774C25.1465 22.2974 25.2531 22.2974 25.2531 22.3774V22.5374H25.1465V22.3774Z" fill="black"/>
<path d="M25.1465 22.3774C25.1465 22.2974 25.2531 22.2974 25.2531 22.3774V22.5374H25.1465V22.3774Z" fill="black"/>
<path d="M38.6138 23.924C38.6004 23.1907 38.0804 23.0173 38.0804 23.0173C38.0671 23.0173 37.5071 23.204 37.5071 23.9373H38.6138" fill="#FFFF00"/>
<path d="M39.0669 23.0307L39.1603 23.8707H38.6003C38.6003 23.1773 38.0669 23.0707 38.0669 23.0707C38.0536 23.0707 37.5336 23.2173 37.5203 23.8707H36.9603L37.0669 23.0173H39.0669V23.0307ZM39.2003 23.884H36.9336C36.8936 23.884 36.8536 23.924 36.8536 23.9773C36.8536 24.044 36.8936 24.084 36.9336 24.084H39.2003C39.2403 24.084 39.2803 24.044 39.2803 23.9773C39.2803 23.924 39.2403 23.884 39.1869 23.884H39.2003Z" fill="#FFFF00" stroke="black" stroke-width="0.0666669"/>
<path d="M38.3737 23.8708C38.3737 23.4308 38.067 23.3108 38.067 23.3108C38.067 23.3108 37.7604 23.4441 37.7604 23.8708H38.3737ZM39.1471 22.6708H36.9737C36.9337 22.6708 36.8937 22.7241 36.8937 22.7774C36.8937 22.8174 36.9337 22.8574 36.9737 22.8574H39.1471C39.1871 22.8574 39.2271 22.8174 39.2271 22.7641C39.2271 22.7241 39.1871 22.6841 39.1471 22.6841V22.6708ZM39.0937 22.8708H37.0404C37.0004 22.8708 36.9604 22.9108 36.9604 22.9641C36.9604 23.0174 37.0004 23.0574 37.0404 23.0574H39.1071C39.1604 23.0574 39.1871 23.0174 39.1871 22.9641C39.1871 22.9108 39.1604 22.8708 39.1071 22.8708H39.0937ZM38.427 21.4574H38.267V21.5641H38.147V21.4574H37.9737V21.5774H37.8537V21.4441H37.6937V21.7108C37.6937 21.7641 37.7204 21.7908 37.7604 21.7908H38.347C38.387 21.7908 38.427 21.7641 38.427 21.7241V21.4574ZM37.8137 21.8174L37.7737 22.6708H38.347L38.307 21.8041H37.8137" fill="#FFFF00"/>
<path d="M37.8137 21.8174L37.7737 22.6708H38.347L38.307 21.8041H37.8137M38.3737 23.8708C38.3737 23.4308 38.067 23.3108 38.067 23.3108C38.067 23.3108 37.7604 23.4441 37.7604 23.8708H38.3737ZM39.1471 22.6708H36.9737C36.9337 22.6708 36.8937 22.7241 36.8937 22.7774C36.8937 22.8174 36.9337 22.8574 36.9737 22.8574H39.1471C39.1871 22.8574 39.2271 22.8174 39.2271 22.7641C39.2271 22.7241 39.1871 22.6841 39.1471 22.6841V22.6708ZM39.0937 22.8708H37.0404C37.0004 22.8708 36.9604 22.9108 36.9604 22.9641C36.9604 23.0174 37.0004 23.0574 37.0404 23.0574H39.1071C39.1604 23.0574 39.1871 23.0174 39.1871 22.9641C39.1871 22.9108 39.1604 22.8708 39.1071 22.8708H39.0937ZM38.427 21.4574H38.267V21.5641H38.147V21.4574H37.9737V21.5774H37.8537V21.4441H37.6937V21.7108C37.6937 21.7641 37.7204 21.7908 37.7604 21.7908H38.347C38.387 21.7908 38.427 21.7641 38.427 21.7241V21.4574Z" stroke="black" stroke-width="0.0666669"/>
<path d="M38.5067 22.2175V22.6709H39.04V22.2175H38.5067Z" fill="#FFFF00" stroke="black" stroke-width="0.0666669"/>
<path d="M38.5067 22.2175V22.6709H39.04V22.2175H38.5067Z" fill="#FFFF00" stroke="black" stroke-width="0.0666669"/>
<path d="M39.1338 21.8708H38.9738V22.0042H38.8538V21.8708H38.6938V22.0042H38.5738V21.8708H38.4138V22.1375C38.4138 22.1909 38.4405 22.2175 38.4805 22.2175H39.0538C39.075 22.2175 39.0954 22.2091 39.1104 22.1941C39.1254 22.1791 39.1338 22.1587 39.1338 22.1375V21.8708V21.8708Z" fill="#FFFF00" stroke="black" stroke-width="0.0666669"/>
<path d="M39.1338 21.8708H38.9738V22.0042H38.8538V21.8708H38.6938V22.0042H38.5738V21.8708H38.4138V22.1375C38.4138 22.1909 38.4405 22.2175 38.4805 22.2175H39.0538C39.075 22.2175 39.0954 22.2091 39.1104 22.1941C39.1254 22.1791 39.1338 22.1587 39.1338 22.1375V21.8708V21.8708Z" fill="#FFFF00" stroke="black" stroke-width="0.0666669"/>
<path d="M38.1201 22.0842C38.1201 22.0042 38.0001 22.0042 38.0001 22.0842V22.2975H38.1201V22.0842Z" fill="black"/>
<path d="M38.8271 22.3774C38.8271 22.2974 38.7205 22.2974 38.7205 22.3774V22.5374H38.8271V22.3774Z" fill="black"/>
<path d="M38.8271 22.3774C38.8271 22.2974 38.7205 22.2974 38.7205 22.3774V22.5374H38.8271V22.3774Z" fill="black"/>
<path d="M38.6138 23.924C38.6004 23.1907 38.0804 23.0173 38.0804 23.0173C38.0671 23.0173 37.5071 23.204 37.5071 23.9373H38.6138" fill="#FFFF00"/>
<path d="M39.0669 23.0307L39.1603 23.8707H38.6003C38.6003 23.1773 38.0669 23.0707 38.0669 23.0707C38.0536 23.0707 37.5336 23.2173 37.5203 23.8707H36.9603L37.0669 23.0173H39.0669V23.0307ZM39.2003 23.884H36.9336C36.8936 23.884 36.8536 23.924 36.8536 23.9773C36.8536 24.044 36.8936 24.084 36.9336 24.084H39.2003C39.2403 24.084 39.2803 24.044 39.2803 23.9773C39.2803 23.924 39.2403 23.884 39.1869 23.884H39.2003Z" fill="#FFFF00" stroke="black" stroke-width="0.0666669"/>
<path d="M38.3737 23.8708C38.3737 23.4308 38.067 23.3108 38.067 23.3108C38.067 23.3108 37.7604 23.4441 37.7604 23.8708H38.3737ZM39.1471 22.6708H36.9737C36.9337 22.6708 36.8937 22.7241 36.8937 22.7774C36.8937 22.8174 36.9337 22.8574 36.9737 22.8574H39.1471C39.1871 22.8574 39.2271 22.8174 39.2271 22.7641C39.2271 22.7241 39.1871 22.6841 39.1471 22.6841V22.6708ZM39.0937 22.8708H37.0404C37.0004 22.8708 36.9604 22.9108 36.9604 22.9641C36.9604 23.0174 37.0004 23.0574 37.0404 23.0574H39.1071C39.1604 23.0574 39.1871 23.0174 39.1871 22.9641C39.1871 22.9108 39.1604 22.8708 39.1071 22.8708H39.0937ZM38.427 21.4574H38.267V21.5641H38.147V21.4574H37.9737V21.5774H37.8537V21.4441H37.6937V21.7108C37.6937 21.7641 37.7204 21.7908 37.7604 21.7908H38.347C38.387 21.7908 38.427 21.7641 38.427 21.7241V21.4574ZM37.8137 21.8174L37.7737 22.6708H38.347L38.307 21.8041H37.8137" fill="#FFFF00"/>
<path d="M37.8137 21.8174L37.7737 22.6708H38.347L38.307 21.8041H37.8137M38.3737 23.8708C38.3737 23.4308 38.067 23.3108 38.067 23.3108C38.067 23.3108 37.7604 23.4441 37.7604 23.8708H38.3737ZM39.1471 22.6708H36.9737C36.9337 22.6708 36.8937 22.7241 36.8937 22.7774C36.8937 22.8174 36.9337 22.8574 36.9737 22.8574H39.1471C39.1871 22.8574 39.2271 22.8174 39.2271 22.7641C39.2271 22.7241 39.1871 22.6841 39.1471 22.6841V22.6708ZM39.0937 22.8708H37.0404C37.0004 22.8708 36.9604 22.9108 36.9604 22.9641C36.9604 23.0174 37.0004 23.0574 37.0404 23.0574H39.1071C39.1604 23.0574 39.1871 23.0174 39.1871 22.9641C39.1871 22.9108 39.1604 22.8708 39.1071 22.8708H39.0937ZM38.427 21.4574H38.267V21.5641H38.147V21.4574H37.9737V21.5774H37.8537V21.4441H37.6937V21.7108C37.6937 21.7641 37.7204 21.7908 37.7604 21.7908H38.347C38.387 21.7908 38.427 21.7641 38.427 21.7241V21.4574Z" stroke="black" stroke-width="0.0666669"/>
<path d="M38.5067 22.2175V22.6709H39.04V22.2175H38.5067Z" fill="#FFFF00" stroke="black" stroke-width="0.0666669"/>
<path d="M38.5067 22.2175V22.6709H39.04V22.2175H38.5067Z" fill="#FFFF00" stroke="black" stroke-width="0.0666669"/>
<path d="M39.1338 21.8708H38.9738V22.0042H38.8538V21.8708H38.6938V22.0042H38.5738V21.8708H38.4138V22.1375C38.4138 22.1909 38.4405 22.2175 38.4805 22.2175H39.0538C39.075 22.2175 39.0954 22.2091 39.1104 22.1941C39.1254 22.1791 39.1338 22.1587 39.1338 22.1375V21.8708V21.8708Z" fill="#FFFF00" stroke="black" stroke-width="0.0666669"/>
<path d="M39.1338 21.8708H38.9738V22.0042H38.8538V21.8708H38.6938V22.0042H38.5738V21.8708H38.4138V22.1375C38.4138 22.1909 38.4405 22.2175 38.4805 22.2175H39.0538C39.075 22.2175 39.0954 22.2091 39.1104 22.1941C39.1254 22.1791 39.1338 22.1587 39.1338 22.1375V21.8708V21.8708Z" fill="#FFFF00" stroke="black" stroke-width="0.0666669"/>
<path d="M38.1201 22.0842C38.1201 22.0042 38.0001 22.0042 38.0001 22.0842V22.2975H38.1201V22.0842Z" fill="black"/>
<path d="M38.8271 22.3774C38.8271 22.2974 38.7205 22.2974 38.7205 22.3774V22.5374H38.8271V22.3774Z" fill="black"/>
<path d="M38.8271 22.3774C38.8271 22.2974 38.7205 22.2974 38.7205 22.3774V22.5374H38.8271V22.3774Z" fill="black"/>
<path d="M36.2077 36.5314C36.7187 36.0053 36.4753 35.5141 36.4753 35.5141C36.4659 35.5047 35.9388 35.2388 35.4185 35.7556L36.1983 36.5408" fill="#FFFF00"/>
<path d="M37.161 36.2237L36.6307 36.8819L36.2361 36.4845C36.7281 35.996 36.428 35.5424 36.428 35.5424C36.4186 35.5329 35.9481 35.2673 35.4751 35.7182L35.0805 35.3208L35.7612 34.7952L37.1705 36.2143L37.161 36.2237ZM36.6495 36.9196L35.0523 35.3113C35.0241 35.2829 34.9675 35.2827 34.9297 35.3203C34.8824 35.3673 34.8822 35.4238 34.9104 35.4522L36.5076 37.0606C36.5357 37.089 36.5923 37.0891 36.6396 37.0422C36.6775 37.0046 36.6777 36.948 36.6401 36.9102L36.6495 36.9196Z" fill="#FFFF00" stroke="black" stroke-width="0.0666669"/>
<path d="M36.0762 36.3237C36.3884 36.0136 36.2575 35.7115 36.2575 35.7115C36.2575 35.7115 35.9468 35.5878 35.6441 35.8884L36.0762 36.3237ZM37.4726 36.0268L35.9412 34.4847C35.913 34.4563 35.847 34.4655 35.8092 34.5031C35.7808 34.5313 35.7806 34.5878 35.8088 34.6162L37.3402 36.1584C37.3684 36.1867 37.4249 36.1869 37.4628 36.1494C37.4912 36.1212 37.4914 36.0646 37.4632 36.0362L37.4726 36.0268ZM37.2931 36.1299L35.8463 34.6729C35.8181 34.6445 35.7615 34.6443 35.7237 34.6819C35.6858 34.7195 35.6856 34.7761 35.7138 34.8045L37.1701 36.2709C37.2077 36.3087 37.2548 36.2995 37.2927 36.2619C37.3305 36.2243 37.3401 36.1772 37.3025 36.1394L37.2931 36.1299ZM37.8262 34.661L37.7135 34.5474L37.6378 34.6226L37.5533 34.5375L37.6289 34.4623L37.5068 34.3393L37.4217 34.4239L37.3371 34.3387L37.4317 34.2448L37.319 34.1312L37.1298 34.3191C37.0919 34.3567 37.0918 34.3944 37.12 34.4228L37.5334 34.8391C37.5615 34.8675 37.6086 34.8771 37.637 34.8489L37.8262 34.661ZM37.1386 34.4794L36.5049 35.0523L36.9089 35.4592L37.4957 34.8201L37.1481 34.47" fill="#FFFF00"/>
<path d="M37.1386 34.4794L36.5049 35.0523L36.9089 35.4592L37.4957 34.8201L37.1481 34.47M36.0762 36.3237C36.3884 36.0136 36.2575 35.7115 36.2575 35.7115C36.2575 35.7115 35.9468 35.5878 35.6441 35.8884L36.0762 36.3237ZM37.4726 36.0268L35.9412 34.4847C35.913 34.4563 35.847 34.4655 35.8092 34.5031C35.7808 34.5313 35.7806 34.5878 35.8088 34.6162L37.3402 36.1584C37.3684 36.1867 37.4249 36.1869 37.4628 36.1494C37.4912 36.1212 37.4914 36.0646 37.4632 36.0362L37.4726 36.0268ZM37.2931 36.1299L35.8463 34.6729C35.8181 34.6445 35.7615 34.6443 35.7237 34.6819C35.6858 34.7195 35.6856 34.7761 35.7138 34.8045L37.1701 36.2709C37.2077 36.3087 37.2548 36.2995 37.2927 36.2619C37.3305 36.2243 37.3401 36.1772 37.3025 36.1394L37.2931 36.1299ZM37.8262 34.661L37.7135 34.5474L37.6378 34.6226L37.5533 34.5375L37.6289 34.4623L37.5068 34.3393L37.4217 34.4239L37.3371 34.3387L37.4317 34.2448L37.319 34.1312L37.1298 34.3191C37.0919 34.3567 37.0918 34.3944 37.12 34.4228L37.5334 34.8391C37.5615 34.8675 37.6086 34.8771 37.637 34.8489L37.8262 34.661Z" stroke="black" stroke-width="0.0666669"/>
<path d="M37.3434 35.2532L37.0218 35.5726L37.3976 35.951L37.7192 35.6316L37.3434 35.2532Z" fill="#FFFF00" stroke="black" stroke-width="0.0666669"/>
<path d="M37.3434 35.2532L37.0218 35.5726L37.3976 35.951L37.7192 35.6316L37.3434 35.2532Z" fill="#FFFF00" stroke="black" stroke-width="0.0666669"/>
<path d="M38.0308 35.4536L37.918 35.3401L37.8234 35.434L37.7389 35.3489L37.8335 35.2549L37.7207 35.1414L37.6261 35.2354L37.5416 35.1502L37.6362 35.0563L37.5234 34.9427L37.3342 35.1306C37.2964 35.1682 37.2962 35.2059 37.3244 35.2343L37.7284 35.6411C37.7434 35.6562 37.7637 35.6647 37.7849 35.6648C37.8061 35.6648 37.8265 35.6565 37.8415 35.6415L38.0308 35.4536V35.4536Z" fill="#FFFF00" stroke="black" stroke-width="0.0666669"/>
<path d="M38.0308 35.4536L37.918 35.3401L37.8234 35.434L37.7389 35.3489L37.8335 35.2549L37.7207 35.1414L37.6261 35.2354L37.5416 35.1502L37.6362 35.0563L37.5234 34.9427L37.3342 35.1306C37.2964 35.1682 37.2962 35.2059 37.3244 35.2343L37.7284 35.6411C37.7434 35.6562 37.7637 35.6647 37.7849 35.6648C37.8061 35.6648 37.8265 35.6565 37.8415 35.6415L38.0308 35.4536V35.4536Z" fill="#FFFF00" stroke="black" stroke-width="0.0666669"/>
<path d="M37.1654 34.8851C37.2222 34.8287 37.1376 34.7435 37.0809 34.7999L36.9295 34.9502L37.0141 35.0354L37.1654 34.8851Z" fill="black"/>
<path d="M37.4555 35.5931C37.5122 35.5367 37.4371 35.461 37.3803 35.5174L37.2668 35.6301L37.3419 35.7058L37.4555 35.5931Z" fill="black"/>
<path d="M37.4555 35.5931C37.5122 35.5367 37.4371 35.461 37.3803 35.5174L37.2668 35.6301L37.3419 35.7058L37.4555 35.5931Z" fill="black"/>
<path d="M31.0132 30.324C31.0108 30.6055 31.1157 30.8772 31.3066 31.084C31.3956 31.1836 31.5044 31.2635 31.6261 31.3186C31.7478 31.3737 31.8797 31.4028 32.0132 31.404C32.2932 31.404 32.5466 31.2707 32.7199 31.084C32.9108 30.8772 33.0156 30.6055 33.0132 30.324V28.884H31.0132V30.324Z" fill="#003399"/>
<path d="M31.4798 29.6307C31.5902 29.6307 31.6798 29.5412 31.6798 29.4307C31.6798 29.3203 31.5902 29.2307 31.4798 29.2307C31.3693 29.2307 31.2798 29.3203 31.2798 29.4307C31.2798 29.5412 31.3693 29.6307 31.4798 29.6307Z" fill="white"/>
<path d="M32.5867 29.6307C32.6972 29.6307 32.7867 29.5412 32.7867 29.4307C32.7867 29.3203 32.6972 29.2307 32.5867 29.2307C32.4763 29.2307 32.3867 29.3203 32.3867 29.4307C32.3867 29.5412 32.4763 29.6307 32.5867 29.6307Z" fill="white"/>
<path d="M32.0267 30.1639C32.1371 30.1639 32.2267 30.0744 32.2267 29.9639C32.2267 29.8535 32.1371 29.7639 32.0267 29.7639C31.9162 29.7639 31.8267 29.8535 31.8267 29.9639C31.8267 30.0744 31.9162 30.1639 32.0267 30.1639Z" fill="white"/>
<path d="M31.4798 30.724C31.5902 30.724 31.6798 30.6344 31.6798 30.524C31.6798 30.4135 31.5902 30.324 31.4798 30.324C31.3693 30.324 31.2798 30.4135 31.2798 30.524C31.2798 30.6344 31.3693 30.724 31.4798 30.724Z" fill="white"/>
<path d="M32.5867 30.724C32.6972 30.724 32.7867 30.6344 32.7867 30.524C32.7867 30.4135 32.6972 30.324 32.5867 30.324C32.4763 30.324 32.3867 30.4135 32.3867 30.524C32.3867 30.6344 32.4763 30.724 32.5867 30.724Z" fill="white"/>
<path d="M31.0132 30.324C31.0108 30.6055 31.1157 30.8772 31.3066 31.084C31.3956 31.1836 31.5044 31.2635 31.6261 31.3186C31.7478 31.3737 31.8797 31.4028 32.0132 31.404C32.2932 31.404 32.5466 31.2707 32.7199 31.084C32.9108 30.8772 33.0156 30.6055 33.0132 30.324V28.884H31.0132V30.324Z" fill="#003399"/>
<path d="M31.4798 29.6307C31.5902 29.6307 31.6798 29.5412 31.6798 29.4307C31.6798 29.3203 31.5902 29.2307 31.4798 29.2307C31.3693 29.2307 31.2798 29.3203 31.2798 29.4307C31.2798 29.5412 31.3693 29.6307 31.4798 29.6307Z" fill="white"/>
<path d="M32.5867 29.6307C32.6972 29.6307 32.7867 29.5412 32.7867 29.4307C32.7867 29.3203 32.6972 29.2307 32.5867 29.2307C32.4763 29.2307 32.3867 29.3203 32.3867 29.4307C32.3867 29.5412 32.4763 29.6307 32.5867 29.6307Z" fill="white"/>
<path d="M32.0267 30.1639C32.1371 30.1639 32.2267 30.0744 32.2267 29.9639C32.2267 29.8535 32.1371 29.7639 32.0267 29.7639C31.9162 29.7639 31.8267 29.8535 31.8267 29.9639C31.8267 30.0744 31.9162 30.1639 32.0267 30.1639Z" fill="white"/>
<path d="M31.4798 30.724C31.5902 30.724 31.6798 30.6344 31.6798 30.524C31.6798 30.4135 31.5902 30.324 31.4798 30.324C31.3693 30.324 31.2798 30.4135 31.2798 30.524C31.2798 30.6344 31.3693 30.724 31.4798 30.724Z" fill="white"/>
<path d="M32.5867 30.724C32.6972 30.724 32.7867 30.6344 32.7867 30.524C32.7867 30.4135 32.6972 30.324 32.5867 30.324C32.4763 30.324 32.3867 30.4135 32.3867 30.524C32.3867 30.6344 32.4763 30.724 32.5867 30.724Z" fill="white"/>
<path d="M31.0132 30.324C31.0108 30.6055 31.1157 30.8772 31.3066 31.084C31.3956 31.1836 31.5044 31.2635 31.6261 31.3186C31.7478 31.3737 31.8797 31.4028 32.0132 31.404C32.2932 31.404 32.5466 31.2707 32.7199 31.084C32.9108 30.8772 33.0156 30.6055 33.0132 30.324V28.884H31.0132V30.324Z" fill="#003399"/>
<path d="M31.4798 29.6307C31.5902 29.6307 31.6798 29.5412 31.6798 29.4307C31.6798 29.3203 31.5902 29.2307 31.4798 29.2307C31.3693 29.2307 31.2798 29.3203 31.2798 29.4307C31.2798 29.5412 31.3693 29.6307 31.4798 29.6307Z" fill="white"/>
<path d="M32.5867 29.6307C32.6972 29.6307 32.7867 29.5412 32.7867 29.4307C32.7867 29.3203 32.6972 29.2307 32.5867 29.2307C32.4763 29.2307 32.3867 29.3203 32.3867 29.4307C32.3867 29.5412 32.4763 29.6307 32.5867 29.6307Z" fill="white"/>
<path d="M32.0267 30.1639C32.1371 30.1639 32.2267 30.0744 32.2267 29.9639C32.2267 29.8535 32.1371 29.7639 32.0267 29.7639C31.9162 29.7639 31.8267 29.8535 31.8267 29.9639C31.8267 30.0744 31.9162 30.1639 32.0267 30.1639Z" fill="white"/>
<path d="M31.4798 30.724C31.5902 30.724 31.6798 30.6344 31.6798 30.524C31.6798 30.4135 31.5902 30.324 31.4798 30.324C31.3693 30.324 31.2798 30.4135 31.2798 30.524C31.2798 30.6344 31.3693 30.724 31.4798 30.724Z" fill="white"/>
<path d="M32.5867 30.724C32.6972 30.724 32.7867 30.6344 32.7867 30.524C32.7867 30.4135 32.6972 30.324 32.5867 30.324C32.4763 30.324 32.3867 30.4135 32.3867 30.524C32.3867 30.6344 32.4763 30.724 32.5867 30.724Z" fill="white"/>
<path d="M31.0132 30.324C31.0108 30.6055 31.1157 30.8772 31.3066 31.084C31.3956 31.1836 31.5044 31.2635 31.6261 31.3186C31.7478 31.3737 31.8797 31.4028 32.0132 31.404C32.2932 31.404 32.5466 31.2707 32.7199 31.084C32.9108 30.8772 33.0156 30.6055 33.0132 30.324V28.884H31.0132V30.324Z" fill="#003399"/>
<path d="M31.4798 29.6307C31.5902 29.6307 31.6798 29.5412 31.6798 29.4307C31.6798 29.3203 31.5902 29.2307 31.4798 29.2307C31.3693 29.2307 31.2798 29.3203 31.2798 29.4307C31.2798 29.5412 31.3693 29.6307 31.4798 29.6307Z" fill="white"/>
<path d="M32.5867 29.6307C32.6972 29.6307 32.7867 29.5412 32.7867 29.4307C32.7867 29.3203 32.6972 29.2307 32.5867 29.2307C32.4763 29.2307 32.3867 29.3203 32.3867 29.4307C32.3867 29.5412 32.4763 29.6307 32.5867 29.6307Z" fill="white"/>
<path d="M32.0267 30.1639C32.1371 30.1639 32.2267 30.0744 32.2267 29.9639C32.2267 29.8535 32.1371 29.7639 32.0267 29.7639C31.9162 29.7639 31.8267 29.8535 31.8267 29.9639C31.8267 30.0744 31.9162 30.1639 32.0267 30.1639Z" fill="white"/>
<path d="M31.4798 30.724C31.5902 30.724 31.6798 30.6344 31.6798 30.524C31.6798 30.4135 31.5902 30.324 31.4798 30.324C31.3693 30.324 31.2798 30.4135 31.2798 30.524C31.2798 30.6344 31.3693 30.724 31.4798 30.724Z" fill="white"/>
<path d="M32.5867 30.724C32.6972 30.724 32.7867 30.6344 32.7867 30.524C32.7867 30.4135 32.6972 30.324 32.5867 30.324C32.4763 30.324 32.3867 30.4135 32.3867 30.524C32.3867 30.6344 32.4763 30.724 32.5867 30.724Z" fill="white"/>
<path d="M31.0132 30.324C31.0108 30.6055 31.1157 30.8772 31.3066 31.084C31.3956 31.1836 31.5044 31.2635 31.6261 31.3186C31.7478 31.3737 31.8797 31.4028 32.0132 31.404C32.2932 31.404 32.5466 31.2707 32.7199 31.084C32.9108 30.8772 33.0156 30.6055 33.0132 30.324V28.884H31.0132V30.324Z" fill="#003399"/>
<path d="M31.4798 29.6307C31.5902 29.6307 31.6798 29.5412 31.6798 29.4307C31.6798 29.3203 31.5902 29.2307 31.4798 29.2307C31.3693 29.2307 31.2798 29.3203 31.2798 29.4307C31.2798 29.5412 31.3693 29.6307 31.4798 29.6307Z" fill="white"/>
<path d="M32.5867 29.6307C32.6972 29.6307 32.7867 29.5412 32.7867 29.4307C32.7867 29.3203 32.6972 29.2307 32.5867 29.2307C32.4763 29.2307 32.3867 29.3203 32.3867 29.4307C32.3867 29.5412 32.4763 29.6307 32.5867 29.6307Z" fill="white"/>
<path d="M32.0267 30.1639C32.1371 30.1639 32.2267 30.0744 32.2267 29.9639C32.2267 29.8535 32.1371 29.7639 32.0267 29.7639C31.9162 29.7639 31.8267 29.8535 31.8267 29.9639C31.8267 30.0744 31.9162 30.1639 32.0267 30.1639Z" fill="white"/>
<path d="M31.4798 30.724C31.5902 30.724 31.6798 30.6344 31.6798 30.524C31.6798 30.4135 31.5902 30.324 31.4798 30.324C31.3693 30.324 31.2798 30.4135 31.2798 30.524C31.2798 30.6344 31.3693 30.724 31.4798 30.724Z" fill="white"/>
<path d="M32.5867 30.724C32.6972 30.724 32.7867 30.6344 32.7867 30.524C32.7867 30.4135 32.6972 30.324 32.5867 30.324C32.4763 30.324 32.3867 30.4135 32.3867 30.524C32.3867 30.6344 32.4763 30.724 32.5867 30.724Z" fill="white"/>
<mask id="mask0_202_886" style="mask-type:alpha" maskUnits="userSpaceOnUse" x="0" y="0" width="80" height="60">
<path d="M80 0V60H0L80 0Z" fill="#D9D9D9"/>
</mask>
<g mask="url(#mask0_202_886)">
<path fill-rule="evenodd" clip-rule="evenodd" d="M0 0H80V60H0V0Z" fill="#229E45"/>
<path fill-rule="evenodd" clip-rule="evenodd" d="M40.1752 54.5L77.8627 30.0375L39.9502 5.5L2.1377 30.0875L40.1752 54.5Z" fill="#F8E509"/>
<path fill-rule="evenodd" clip-rule="evenodd" d="M56.6 30C56.6 38.7875 49.4625 45.9125 40.65 45.9125C37.5009 45.9075 34.4239 44.969 31.8081 43.2156C29.1922 41.4622 27.155 38.9726 25.9539 36.0615C24.7527 33.1505 24.4417 29.9486 25.06 26.8608C25.6783 23.7729 27.1982 20.9377 29.4276 18.7136C31.657 16.4894 34.4958 14.9762 37.585 14.3652C40.6743 13.7541 43.8754 14.0727 46.7837 15.2807C49.6919 16.4887 52.1767 18.5318 53.924 21.1517C55.6712 23.7717 56.6025 26.8509 56.6 30V30Z" fill="#2B49A3"/>
<path fill-rule="evenodd" clip-rule="evenodd" d="M35.4123 39.5375L34.9123 39.25L34.4123 39.5L34.5248 38.9375L34.1248 38.5126L34.6873 38.4501L34.9623 37.9501L35.1998 38.475L35.7498 38.5751L35.3373 38.9501M46.0873 42.2375L45.5998 41.9501L45.0998 42.2001L45.1998 41.6376L44.8123 41.225L45.3748 41.1625L45.6373 40.6501L45.8873 41.175L46.4373 41.2751L46.0123 41.6625M41.4873 37.9125L41.0623 37.6625L40.6248 37.8876L40.7248 37.4001L40.3748 37.0375L40.8748 36.9875L41.0998 36.5375L41.2998 37L41.7873 37.0876L41.4123 37.425M52.2873 36.3625L51.8623 36.1125L51.4248 36.3376L51.5248 35.85L51.1873 35.5L51.6748 35.4501L51.8998 35.0126L52.0998 35.4626L52.5748 35.55L52.2123 35.875M41.2998 33.125L40.7998 32.85L40.2998 33.1L40.3998 32.5251L40.0123 32.1125L40.5748 32.05L40.8373 31.5375L41.0873 32.0625L41.6373 32.1625L41.2123 32.5625M28.1373 28.1875L27.6373 27.9125L27.1373 28.1625L27.2623 27.5875L26.8498 27.175L27.4248 27.1125L27.6748 26.6L27.9248 27.125L28.4748 27.225L28.0623 27.6125M29.7248 34.7626L29.2248 34.475L28.7248 34.725L28.8373 34.1625L28.4373 33.75L28.9998 33.675L29.2623 33.175L29.5123 33.7001L30.0623 33.8L29.6498 34.1875M46.1498 25.775L45.6998 25.525L45.2498 25.75L45.3498 25.25L44.9998 24.875L45.4998 24.8125L45.7373 24.3625L45.9498 24.8375L46.4498 24.925L46.0748 25.2626M45.2373 30.05L44.8998 29.85L44.5373 30.025L44.6123 29.625L44.3373 29.3375L44.7373 29.2875L44.9248 28.9375L45.0873 29.3125L45.4623 29.375L45.1873 29.65M27.4123 35.9501L27.0748 35.7626L26.7373 35.925L26.8123 35.55L26.5498 35.2751L26.9248 35.225L27.0998 34.8876L27.2623 35.2375L27.6373 35.3125L27.3498 35.5625M52.3748 37.475L52.0998 37.3376L51.8248 37.4626L51.8873 37.175L51.6748 36.975L51.9748 36.9375L52.1248 36.6875L52.2498 36.9375L52.5623 37L52.3248 37.1875" fill="#FFFFEF"/>
<path fill-rule="evenodd" clip-rule="evenodd" d="M27.4123 35.95L27.0748 35.7625L26.7373 35.9249L26.8123 35.5499L26.5498 35.275L26.9248 35.2249L27.0998 34.8875L27.2623 35.2374L27.6373 35.3125L27.3498 35.5625" fill="#FFFFEF"/>
<path fill-rule="evenodd" clip-rule="evenodd" d="M27.4123 35.9501L27.0748 35.7626L26.7373 35.925L26.8123 35.55L26.5498 35.2751L26.9248 35.225L27.0998 34.8876L27.2623 35.2375L27.6373 35.3125L27.3498 35.5625M32.6373 35.9375L32.3123 35.7626L31.9748 35.925L32.0498 35.55L31.7873 35.2751L32.1623 35.225L32.3373 34.8876L32.4998 35.2375L32.8748 35.3L32.5873 35.5625M31.9873 37.6875L31.6623 37.5L31.3248 37.675L31.3998 37.3L31.1373 37.0126L31.5123 36.9626L31.6873 36.625L31.8498 36.975L32.2248 37.05L31.9373 37.3M42.8623 34.5251L42.5373 34.3251L42.1873 34.5L42.2623 34.125L42.0123 33.8376L42.3873 33.8L42.5623 33.4626L42.7123 33.8125L43.0873 33.875L42.8123 34.1376M39.6748 34.5126L39.3373 34.3251L38.9998 34.5L39.0748 34.125L38.8248 33.8376L39.1998 33.8L39.3748 33.4501L39.5248 33.8125L39.8998 33.875L39.6248 34.1376M31.0248 33.4125L30.8123 33.2875L30.5998 33.3876L30.6498 33.1501L30.4873 32.975L30.7248 32.9501L30.8248 32.7375L30.9248 32.9626L31.1623 33L30.9873 33.1625M51.9623 38.8376L51.6373 38.6501L51.2998 38.8251L51.3748 38.4501L51.1123 38.1625L51.4873 38.1125L51.6623 37.7751L51.8248 38.125L52.1998 38.2001L51.9123 38.4501M49.3123 39.2001L49.0373 39.0251L48.7498 39.175L48.8123 38.85L48.5998 38.625L48.9123 38.5876L49.0623 38.3L49.1873 38.6L49.4998 38.6501L49.2623 38.875M50.5623 39.1625L50.3123 39.0126L50.0498 39.1376L50.0998 38.85L49.8998 38.6376L50.1873 38.6L50.3248 38.35L50.4498 38.6L50.7373 38.6625L50.5248 38.8625M54.1623 36.0126L53.9123 35.8876L53.6623 36.0126L53.7248 35.725L53.5248 35.5126L53.8123 35.475L53.9373 35.225L54.0623 35.4875L54.3248 35.5375L54.1248 35.7375M49.2748 40.9626L48.9623 40.7875L48.6248 40.9375L48.6998 40.5876L48.4498 40.3376L48.8248 40.3L48.9873 39.9875L49.1373 40.3125L49.5123 40.375L49.2248 40.6125M49.2998 42.3876L48.9998 42.2126L48.6998 42.375L48.7748 42.0251L48.5373 41.7751L48.8748 41.725L49.0248 41.4125L49.1623 41.7375L49.4998 41.8L49.2498 42.05M46.8748 39.1625L46.6373 39.0126L46.3873 39.1376L46.4373 38.8625L46.2498 38.6501L46.5248 38.625L46.6498 38.375L46.7748 38.625L47.0498 38.675L46.8498 38.875M44.6248 39.1625L44.3748 39.0126L44.1248 39.1376L44.1873 38.8625L43.9873 38.6501L44.2748 38.625L44.3998 38.375L44.5248 38.625L44.7873 38.675L44.5873 38.875M40.7873 35.8L40.5373 35.6625L40.2873 35.7875L40.3498 35.5L40.1498 35.3L40.4248 35.2626L40.5498 35.0126L40.6748 35.2626L40.9498 35.3251L40.7498 35.5126M41.2123 42.6376L41.0123 42.5251L40.7873 42.6376L40.8373 42.3876L40.6748 42.2126L40.9123 42.1875L41.0248 41.975L41.1248 42.2001L41.3623 42.2375L41.1873 42.4001M35.4123 31.5751L34.9123 31.2875L34.4123 31.5375L34.5248 30.975L34.1248 30.5625L34.6873 30.4875L34.9623 29.9875L35.1998 30.5126L35.7498 30.6125L35.3373 31" fill="#FFFFEF"/>
<path fill-rule="evenodd" clip-rule="evenodd" d="M55.55 35.725C55.8597 34.9215 56.1022 34.0936 56.275 33.25C47.8 25.8125 38.3625 22 26.4375 22.7875C26.005 23.6244 25.6494 24.4988 25.375 25.4C39.5 24.05 49.875 30.3 55.55 35.725Z" fill="white"/>
<path d="M51.7499 31.55L52.0374 31.7125C51.9945 31.7974 51.9813 31.8942 51.9999 31.9875C52.0292 32.078 52.0917 32.1539 52.1749 32.2C52.2624 32.2625 52.3499 32.3 52.4249 32.2875C52.4999 32.2875 52.5499 32.25 52.5874 32.2C52.6092 32.1668 52.6181 32.1268 52.6124 32.0875C52.6022 32.0413 52.5807 31.9984 52.5499 31.9625C52.5249 31.925 52.4624 31.8375 52.3624 31.7375C52.2596 31.6314 52.1826 31.5031 52.1374 31.3625C52.1062 31.2561 52.1143 31.142 52.1602 31.041C52.2061 30.9401 52.2867 30.859 52.3874 30.8125C52.4783 30.7746 52.5788 30.7658 52.6749 30.7875C52.7924 30.8146 52.9031 30.8656 52.9999 30.9375C53.1749 31.0625 53.2874 31.1875 53.3249 31.3375C53.3422 31.4077 53.3444 31.4807 53.3315 31.5518C53.3186 31.6229 53.2908 31.6904 53.2499 31.75L52.9499 31.5625C52.9874 31.4875 52.9999 31.4125 52.9749 31.35C52.9624 31.2875 52.9124 31.225 52.8249 31.175C52.7607 31.1234 52.6821 31.0928 52.5999 31.0875C52.5772 31.0867 52.5548 31.0921 52.535 31.1032C52.5152 31.1142 52.4987 31.1304 52.4874 31.15C52.4624 31.1875 52.4624 31.225 52.4749 31.275C52.4874 31.325 52.5499 31.425 52.6749 31.55C52.7999 31.675 52.8749 31.7875 52.9249 31.8625C52.9695 31.9444 52.9897 32.0374 52.9831 32.1305C52.9764 32.2236 52.9432 32.3128 52.8874 32.3875C52.8289 32.4725 52.7461 32.5378 52.6499 32.575C52.5562 32.6182 52.4514 32.6313 52.3499 32.6125C52.2374 32.5875 52.1249 32.5375 51.9999 32.45C51.8124 32.325 51.6999 32.1875 51.6624 32.0375C51.6217 31.8674 51.6486 31.6882 51.7374 31.5375L51.7499 31.55ZM50.2999 30.6L50.6124 30.7625C50.5737 30.8488 50.5649 30.9456 50.5874 31.0375C50.6194 31.1233 50.6816 31.1944 50.7624 31.2375C50.8624 31.3 50.9374 31.325 51.0124 31.3125C51.0874 31.3125 51.1374 31.275 51.1749 31.2125C51.1939 31.1828 51.2026 31.1477 51.1999 31.1125C51.1999 31.075 51.1749 31.025 51.1374 30.9875C51.0734 30.9102 51.0067 30.8352 50.9374 30.7625C50.7999 30.625 50.7124 30.5125 50.6874 30.4125C50.667 30.3482 50.6608 30.2802 50.6695 30.2132C50.6781 30.1463 50.7013 30.082 50.7374 30.025C50.7849 29.9479 50.8546 29.8869 50.9374 29.85C51.0233 29.8104 51.119 29.7973 51.2124 29.8125C51.328 29.832 51.4385 29.8745 51.5374 29.9375C51.7249 30.0625 51.8374 30.1875 51.8749 30.325C51.8977 30.3953 51.905 30.4696 51.8964 30.543C51.8878 30.6163 51.8634 30.6869 51.8249 30.75L51.5124 30.575C51.5499 30.4875 51.5624 30.425 51.5374 30.3625C51.5124 30.3 51.4624 30.2375 51.3749 30.1875C51.3057 30.1379 51.2225 30.1116 51.1374 30.1125C51.1169 30.1139 51.097 30.1203 51.0796 30.1312C51.0621 30.1421 51.0476 30.1572 51.0374 30.175C51.0124 30.2125 51.0124 30.25 51.0249 30.3C51.0374 30.35 51.1124 30.45 51.2374 30.575C51.3624 30.7 51.4499 30.8 51.4874 30.875C51.5375 30.9534 51.5641 31.0445 51.5641 31.1375C51.5641 31.2305 51.5375 31.3216 51.4874 31.4C51.4335 31.4872 51.3553 31.5567 51.2624 31.6C51.1687 31.6432 51.0639 31.6563 50.9624 31.6375C50.8338 31.6158 50.7106 31.569 50.5999 31.5C50.4383 31.4139 50.3138 31.2716 50.2499 31.1C50.2016 30.9331 50.2195 30.754 50.2999 30.6V30.6ZM48.5249 30.125L49.4374 28.625L50.5374 29.3125L50.3874 29.5625L49.5874 29.0625L49.3874 29.4L50.1374 29.8625L49.9749 30.1125L49.2249 29.65L48.9749 30.0625L49.8124 30.5625L49.6624 30.8125L48.5374 30.125H48.5249ZM45.9374 28L46.0749 27.75L46.7499 28.0875L46.4374 28.7125C46.3374 28.7375 46.2124 28.75 46.0624 28.7375C45.9184 28.7216 45.7785 28.6792 45.6499 28.6125C45.4986 28.5388 45.3693 28.4267 45.2749 28.2875C45.1889 28.1581 45.1453 28.0053 45.1499 27.85C45.1562 27.6884 45.199 27.5303 45.2749 27.3875C45.35 27.2372 45.4618 27.1082 45.5999 27.0125C45.732 26.9211 45.8893 26.8731 46.0499 26.875C46.1749 26.875 46.2999 26.9125 46.4499 27C46.6499 27.0875 46.7749 27.2125 46.8374 27.35C46.9024 27.4865 46.9157 27.6419 46.8749 27.7875L46.5374 27.6875C46.5581 27.6038 46.5492 27.5155 46.5124 27.4375C46.4749 27.3625 46.4124 27.3125 46.3124 27.2625C46.2541 27.2292 46.1895 27.2087 46.1227 27.2022C46.0559 27.1958 45.9885 27.2035 45.9249 27.225C45.7999 27.2625 45.6874 27.375 45.5999 27.55C45.5124 27.725 45.4749 27.8875 45.5124 28.025C45.5297 28.0902 45.561 28.1509 45.6042 28.2027C45.6474 28.2545 45.7014 28.2963 45.7624 28.325C45.8249 28.3625 45.8999 28.3875 45.9749 28.3875C46.0495 28.3988 46.1253 28.3988 46.1999 28.3875L46.2999 28.1875L45.9374 28V28ZM34.6624 25.2125L34.9124 23.4625L35.4374 23.55L35.5749 24.775L36.0624 23.65L36.5874 23.725L36.3374 25.45L35.9999 25.4L36.2124 24.0375L35.6624 25.35L35.3249 25.3L35.1874 23.8875L34.9874 25.2625L34.6624 25.2125V25.2125ZM32.8999 25L33.0624 23.25L34.3499 23.375L34.3249 23.675L33.3874 23.5875L33.3499 23.9625L34.2249 24.05L34.1874 24.35L33.3124 24.2625L33.2749 24.7375L34.2499 24.825L34.2249 25.125L32.8999 25V25Z" fill="#309E3A"/>
<path d="M27.0625 23.9125C27.0625 23.725 27.1 23.5875 27.15 23.4625C27.1939 23.3736 27.2531 23.2931 27.325 23.225C27.3892 23.1603 27.4657 23.1093 27.55 23.075C27.675 23.0375 27.8 23.0125 27.925 23.0125C28.1875 23.0125 28.3875 23.1125 28.55 23.2625C28.6274 23.358 28.6849 23.468 28.7193 23.5861C28.7536 23.7041 28.7641 23.8278 28.75 23.95C28.75 24.225 28.6625 24.4499 28.5 24.6124C28.4165 24.6896 28.3178 24.7484 28.2101 24.785C28.1024 24.8216 27.9883 24.8352 27.875 24.825C27.7633 24.8261 27.6525 24.8045 27.5494 24.7615C27.4462 24.7186 27.3529 24.6551 27.275 24.575C27.1195 24.3908 27.0431 24.1527 27.0625 23.9125V23.9125Z" fill="#309E3A"/>
<path d="M27.4248 23.9125C27.4248 24.1 27.4623 24.25 27.5498 24.3625C27.6373 24.4625 27.7498 24.525 27.8998 24.525C27.9647 24.5295 28.0298 24.5195 28.0903 24.4958C28.1509 24.472 28.2054 24.435 28.2498 24.3875C28.3373 24.2875 28.3748 24.1375 28.3873 23.925C28.3873 23.725 28.3623 23.575 28.2623 23.475C28.2216 23.4246 28.1702 23.3839 28.1118 23.3558C28.0535 23.3277 27.9896 23.3129 27.9248 23.3125C27.859 23.3104 27.7936 23.3227 27.7332 23.3486C27.6727 23.3746 27.6186 23.4134 27.5748 23.4625C27.4748 23.5625 27.4373 23.7125 27.4248 23.9125V23.9125Z" fill="#F7FFFF"/>
<path d="M29.125 24.8125L29.15 23.0625H29.9C30.0875 23.0625 30.2125 23.0875 30.3 23.125C30.3875 23.15 30.45 23.2125 30.5 23.2875C30.55 23.3625 30.575 23.4625 30.575 23.575C30.576 23.6953 30.5313 23.8114 30.45 23.9C30.3576 23.9866 30.2387 24.0394 30.1125 24.05L30.3 24.2C30.35 24.25 30.4125 24.35 30.4875 24.4875L30.7 24.8375H30.275L30.025 24.4375L29.85 24.1875C29.8197 24.1531 29.7809 24.1272 29.7375 24.1125C29.6806 24.0959 29.6217 24.0875 29.5625 24.0875H29.4875V24.8125H29.125V24.8125Z" fill="#309E3A"/>
<path d="M29.5 23.8125H29.75C29.925 23.8125 30.0375 23.8125 30.075 23.7875C30.1125 23.7875 30.15 23.75 30.175 23.725C30.2 23.7 30.2125 23.6375 30.2125 23.6C30.2125 23.525 30.2 23.4751 30.1625 23.4501C30.1375 23.4126 30.0875 23.3875 30.0375 23.375H29.7875L29.5 23.3625V23.8V23.8125Z" fill="white"/>
<path d="M31.1251 23.1499L31.7751 23.1874C31.9126 23.1874 32.0251 23.1999 32.1001 23.2249C32.1974 23.2602 32.2836 23.3206 32.3501 23.3999C32.4221 23.4873 32.4734 23.5899 32.5001 23.6999C32.5376 23.8124 32.5501 23.9499 32.5376 24.1124C32.5375 24.24 32.5164 24.3667 32.4751 24.4874C32.4251 24.6124 32.3501 24.7124 32.2626 24.7874C32.1898 24.8474 32.1043 24.8901 32.0126 24.9124C31.9376 24.9374 31.8251 24.9374 31.7001 24.9374L31.0376 24.8999L31.1251 23.1499V23.1499Z" fill="#309E3A"/>
<path d="M31.4624 23.4624L31.3999 24.6249H31.8749C31.9374 24.6249 31.9874 24.5999 32.0249 24.5624C32.0624 24.5249 32.0999 24.4749 32.1249 24.3999C32.1499 24.3249 32.1749 24.2124 32.1749 24.0749L32.1624 23.7624C32.1446 23.6965 32.1101 23.6362 32.0624 23.5874C32.0209 23.5457 31.9692 23.5155 31.9124 23.4999C31.8179 23.4789 31.7217 23.4663 31.6249 23.4624H31.4624V23.4624Z" fill="white"/>
<path d="M39.7002 26.275L40.1127 24.575L40.6627 24.7L41.0627 24.825C41.1502 24.875 41.2252 24.95 41.2627 25.0625C41.3127 25.1625 41.3127 25.275 41.2877 25.4125C41.2627 25.5125 41.2252 25.6 41.1627 25.6625C41.1168 25.7173 41.0595 25.7615 40.9947 25.7917C40.9299 25.822 40.8592 25.8376 40.7877 25.8375C40.7002 25.8375 40.5752 25.8125 40.4127 25.775L40.2002 25.7125L40.0502 26.3624L39.7002 26.275V26.275Z" fill="#309E3A"/>
<path d="M40.3754 24.95L40.2754 25.4249L40.4629 25.475C40.5879 25.5 40.6879 25.525 40.7379 25.5125C40.7865 25.5057 40.8319 25.484 40.8677 25.4505C40.9035 25.4169 40.928 25.373 40.9379 25.325C40.9379 25.2625 40.9379 25.2125 40.9129 25.1625C40.8855 25.1116 40.8413 25.0719 40.7879 25.0499L40.5504 24.9874L40.3879 24.95H40.3754Z" fill="white"/>
<path d="M41.3252 26.7626L41.9127 25.1125L42.6002 25.3625C42.7877 25.425 42.9002 25.4875 42.9752 25.5375C43.0377 25.6 43.0877 25.6626 43.1002 25.7626C43.1127 25.8626 43.1252 25.95 43.1002 26.05C43.0502 26.175 42.9752 26.2626 42.8752 26.3251C42.7752 26.3751 42.6502 26.3875 42.5002 26.3625C42.5502 26.425 42.6002 26.4875 42.6252 26.5625L42.7252 26.9L42.8002 27.2875L42.4127 27.15L42.2877 26.7001C42.265 26.5983 42.2357 26.4981 42.2002 26.4C42.1836 26.3612 42.1579 26.3269 42.1252 26.3C42.1002 26.2625 42.0502 26.2375 41.9627 26.2125L41.9002 26.1875L41.6502 26.8876L41.3252 26.7626V26.7626Z" fill="#309E3A"/>
<path d="M42.0003 25.9249L42.2378 26.0125C42.4003 26.075 42.5003 26.1 42.5503 26.1C42.5878 26.1 42.6253 26.1 42.6628 26.0625C42.7003 26.0375 42.7253 26 42.7378 25.95C42.7628 25.9 42.7628 25.8499 42.7378 25.7999C42.7193 25.7515 42.6837 25.7115 42.6378 25.6875L42.3878 25.6L42.1378 25.5125L41.9878 25.9249H42.0003Z" fill="white"/>
<path d="M43.3748 26.6999C43.4178 26.5535 43.4901 26.4174 43.5873 26.2999C43.6505 26.2245 43.7267 26.161 43.8123 26.1124C43.8898 26.0686 43.9745 26.039 44.0623 26.0249C44.1873 26.0249 44.3123 26.0249 44.4498 26.0749C44.5616 26.1025 44.6661 26.1536 44.7566 26.2247C44.8472 26.2958 44.9215 26.3854 44.9748 26.4874C45.0748 26.6874 45.0748 26.9249 44.9998 27.1999C44.938 27.4362 44.7852 27.6384 44.5748 27.7624C44.3873 27.8749 44.1623 27.8874 43.9248 27.8124C43.8134 27.784 43.7091 27.7327 43.6187 27.6616C43.5283 27.5906 43.4537 27.5014 43.3998 27.3999C43.3497 27.2906 43.3218 27.1725 43.3175 27.0524C43.3132 26.9323 43.3327 26.8125 43.3748 26.6999V26.6999Z" fill="#309E3A"/>
<path d="M43.7249 26.8C43.6749 26.9875 43.6624 27.15 43.7249 27.275C43.7874 27.4 43.8749 27.475 44.0124 27.525C44.1374 27.5625 44.2624 27.55 44.3874 27.475C44.5124 27.4125 44.5874 27.275 44.6499 27.075C44.7124 26.8875 44.7124 26.7375 44.6499 26.6125C44.6253 26.5532 44.5878 26.5001 44.5403 26.4569C44.4928 26.4137 44.4363 26.3815 44.3749 26.3625C44.3134 26.3413 44.2481 26.3336 44.1833 26.3401C44.1186 26.3466 44.056 26.367 43.9999 26.4C43.8749 26.475 43.7874 26.6 43.7249 26.8V26.8Z" fill="white"/>
<path d="M46.7876 29.1374L47.5876 27.5874L48.2501 27.9249C48.375 27.9848 48.489 28.0651 48.5876 28.1624C48.6501 28.2249 48.6876 28.2999 48.6876 28.3999C48.6876 28.4999 48.6876 28.5874 48.6376 28.6749C48.5895 28.7873 48.5 28.8768 48.3876 28.9249C48.2626 28.9499 48.1376 28.9499 48.0001 28.8999C48.0501 28.9749 48.0751 29.0499 48.1001 29.1124C48.1251 29.1874 48.1376 29.2999 48.1501 29.4624L48.1751 29.8624L47.8001 29.6749L47.7501 29.2124C47.7442 29.1076 47.7317 29.0032 47.7126 28.8999C47.7041 28.8531 47.6824 28.8098 47.6501 28.7749L47.5001 28.6874L47.4376 28.6499L47.1001 29.2999L46.7876 29.1374V29.1374Z" fill="#309E3A"/>
<path d="M47.5625 28.4L47.8 28.525C47.95 28.6 48.05 28.65 48.0875 28.65C48.125 28.65 48.175 28.65 48.2125 28.625C48.25 28.6125 48.275 28.575 48.3 28.525C48.325 28.475 48.3375 28.425 48.325 28.375C48.3096 28.3252 48.279 28.2815 48.2375 28.25C48.1643 28.2051 48.0893 28.1634 48.0125 28.125L47.7625 28L47.5625 28.4V28.4Z" fill="white"/>
<path d="M53.2623 32.3376C53.3432 32.2091 53.4495 32.0985 53.5748 32.0126C53.6589 31.9588 53.7521 31.9207 53.8498 31.9001C53.9405 31.8816 54.0341 31.8816 54.1248 31.9001C54.2498 31.9251 54.3623 31.9751 54.4748 32.0501C54.5721 32.1107 54.6557 32.1909 54.7202 32.2856C54.7848 32.3803 54.8289 32.4874 54.8498 32.6001C54.8873 32.8126 54.8248 33.0501 54.6748 33.2876C54.5493 33.4942 54.347 33.6425 54.1123 33.7001C54.0004 33.7243 53.8846 33.7245 53.7726 33.7008C53.6606 33.6772 53.5548 33.63 53.4623 33.5626C53.365 33.502 53.2814 33.4218 53.2169 33.3271C53.1523 33.2324 53.1082 33.1253 53.0873 33.0126C53.0498 32.7876 53.1123 32.5626 53.2623 32.3376Z" fill="#309E3A"/>
<path d="M53.575 32.5377C53.45 32.7002 53.4125 32.8502 53.4375 32.9877C53.4467 33.051 53.4693 33.1116 53.5038 33.1655C53.5383 33.2194 53.5839 33.2653 53.6375 33.3002C53.7625 33.3877 53.8875 33.4127 54.0125 33.3752C54.1375 33.3377 54.2625 33.2502 54.375 33.0752C54.4875 32.9002 54.5375 32.7502 54.5125 32.6252C54.5 32.5002 54.425 32.3877 54.3125 32.3002C54.2 32.2127 54.0625 32.2002 53.9375 32.2377C53.8125 32.2627 53.6875 32.3627 53.5625 32.5377H53.575Z" fill="white"/>
<path d="M37.7251 25.5624L38.0126 24.3374L38.9126 24.5499L38.8751 24.7499L38.2126 24.5999L38.1501 24.8749L38.7626 25.0124L38.7126 25.2249L38.1001 25.0749L38.0251 25.4124L38.7126 25.5749L38.6626 25.7749L37.7251 25.5624V25.5624Z" fill="#309E3A"/>
</g>
</svg>
