<svg width="485" height="500" viewBox="0 0 485 500" fill="none" xmlns="http://www.w3.org/2000/svg">
<g filter="url(#filter0_f_129_154)">
<path d="M100 296L186.603 346V446L100 496L13.3975 446V346L100 296Z" fill="#10222A"/>
</g>
<g filter="url(#filter1_f_129_154)">
<path d="M385 249L471.603 299V399L385 449L298.397 399V299L385 249Z" fill="#10222A"/>
</g>
<g filter="url(#filter2_f_129_154)">
<path d="M231 221L274.301 246V296L231 321L187.699 296V246L231 221Z" fill="#10222A" fill-opacity="0.8"/>
</g>
<g filter="url(#filter3_f_129_154)">
<path d="M307.5 154L318.325 160.25V172.75L307.5 179L296.675 172.75V160.25L307.5 154Z" fill="#10222A" fill-opacity="0.4"/>
</g>
<g filter="url(#filter4_f_129_154)">
<path d="M210.5 157L221.325 163.25V175.75L210.5 182L199.675 175.75V163.25L210.5 157Z" fill="#10222A" fill-opacity="0.4"/>
</g>
<g filter="url(#filter5_f_129_154)">
<path d="M169.5 296L180.325 302.25V314.75L169.5 321L158.675 314.75V302.25L169.5 296Z" fill="#10222A" fill-opacity="0.4"/>
</g>
<g filter="url(#filter6_f_129_154)">
<path d="M357.5 21L368.325 27.25V39.75L357.5 46L346.675 39.75V27.25L357.5 21Z" fill="#10222A" fill-opacity="0.1"/>
</g>
<g filter="url(#filter7_f_129_154)">
<path d="M285 346L336.962 376V436L285 466L233.038 436V376L285 346Z" fill="#10222A" fill-opacity="0.8"/>
</g>
<g filter="url(#filter8_f_129_154)">
<path d="M86 169L120.641 189V229L86 249L51.359 229V189L86 169Z" fill="#10222A" fill-opacity="0.7"/>
</g>
<g filter="url(#filter9_f_129_154)">
<path d="M374 156L408.641 176V216L374 236L339.359 216V176L374 156Z" fill="#10222A" fill-opacity="0.7"/>
</g>
<g filter="url(#filter10_f_129_154)">
<path d="M139 249L160.651 261.5V286.5L139 299L117.349 286.5V261.5L139 249Z" fill="#10222A" fill-opacity="0.6"/>
</g>
<g filter="url(#filter11_f_129_154)">
<path d="M374 69L395.651 81.5V106.5L374 119L352.349 106.5V81.5L374 69Z" fill="#10222A" fill-opacity="0.2"/>
</g>
<g filter="url(#filter12_f_129_154)">
<path d="M170 196L187.321 206V226L170 236L152.679 226V206L170 196Z" fill="#10222A" fill-opacity="0.6"/>
</g>
<g filter="url(#filter13_f_129_154)">
<path d="M305 46L322.321 56V76L305 86L287.679 76V56L305 46Z" fill="#10222A" fill-opacity="0.2"/>
</g>
<g filter="url(#filter14_f_129_154)">
<path d="M259 119L276.321 129V149L259 159L241.679 149V129L259 119Z" fill="#10222A" fill-opacity="0.2"/>
</g>
<g filter="url(#filter15_f_129_154)">
<path d="M142 184L150.66 189V199L142 204L133.34 199V189L142 184Z" fill="#10222A" fill-opacity="0.6"/>
</g>
<g filter="url(#filter16_f_129_154)">
<path d="M320 109L328.66 114V124L320 129L311.34 124V114L320 109Z" fill="#10222A" fill-opacity="0.2"/>
</g>
<g filter="url(#filter17_f_129_154)">
<path d="M291 196L299.66 201V211L291 216L282.34 211V201L291 196Z" fill="#10222A" fill-opacity="0.6"/>
</g>
<g filter="url(#filter18_f_129_154)">
<path d="M404 4L412.66 9V19L404 24L395.34 19V9L404 4Z" fill="#10222A" fill-opacity="0.1"/>
</g>
<g filter="url(#filter19_f_129_154)">
<path d="M61 296L82.6506 308.5V333.5L61 346L39.3494 333.5V308.5L61 296Z" fill="#10222A" fill-opacity="0.6"/>
</g>
<g filter="url(#filter20_f_129_154)">
<path d="M225 296L246.651 308.5V333.5L225 346L203.349 333.5V308.5L225 296Z" fill="#10222A" fill-opacity="0.6"/>
</g>
<g filter="url(#filter21_f_129_154)">
<path d="M320 246L341.651 258.5V283.5L320 296L298.349 283.5V258.5L320 246Z" fill="#10222A" fill-opacity="0.6"/>
</g>
<defs>
<filter id="filter0_f_129_154" x="9.39746" y="292" width="181.205" height="208" filterUnits="userSpaceOnUse" color-interpolation-filters="sRGB">
<feFlood flood-opacity="0" result="BackgroundImageFix"/>
<feBlend mode="normal" in="SourceGraphic" in2="BackgroundImageFix" result="shape"/>
<feGaussianBlur stdDeviation="2" result="effect1_foregroundBlur_129_154"/>
</filter>
<filter id="filter1_f_129_154" x="294.397" y="245" width="181.205" height="208" filterUnits="userSpaceOnUse" color-interpolation-filters="sRGB">
<feFlood flood-opacity="0" result="BackgroundImageFix"/>
<feBlend mode="normal" in="SourceGraphic" in2="BackgroundImageFix" result="shape"/>
<feGaussianBlur stdDeviation="2" result="effect1_foregroundBlur_129_154"/>
</filter>
<filter id="filter2_f_129_154" x="183.699" y="217" width="94.6025" height="108" filterUnits="userSpaceOnUse" color-interpolation-filters="sRGB">
<feFlood flood-opacity="0" result="BackgroundImageFix"/>
<feBlend mode="normal" in="SourceGraphic" in2="BackgroundImageFix" result="shape"/>
<feGaussianBlur stdDeviation="2" result="effect1_foregroundBlur_129_154"/>
</filter>
<filter id="filter3_f_129_154" x="292.675" y="150" width="29.6504" height="33" filterUnits="userSpaceOnUse" color-interpolation-filters="sRGB">
<feFlood flood-opacity="0" result="BackgroundImageFix"/>
<feBlend mode="normal" in="SourceGraphic" in2="BackgroundImageFix" result="shape"/>
<feGaussianBlur stdDeviation="2" result="effect1_foregroundBlur_129_154"/>
</filter>
<filter id="filter4_f_129_154" x="195.675" y="153" width="29.6504" height="33" filterUnits="userSpaceOnUse" color-interpolation-filters="sRGB">
<feFlood flood-opacity="0" result="BackgroundImageFix"/>
<feBlend mode="normal" in="SourceGraphic" in2="BackgroundImageFix" result="shape"/>
<feGaussianBlur stdDeviation="2" result="effect1_foregroundBlur_129_154"/>
</filter>
<filter id="filter5_f_129_154" x="154.675" y="292" width="29.6504" height="33" filterUnits="userSpaceOnUse" color-interpolation-filters="sRGB">
<feFlood flood-opacity="0" result="BackgroundImageFix"/>
<feBlend mode="normal" in="SourceGraphic" in2="BackgroundImageFix" result="shape"/>
<feGaussianBlur stdDeviation="2" result="effect1_foregroundBlur_129_154"/>
</filter>
<filter id="filter6_f_129_154" x="342.675" y="17" width="29.6504" height="33" filterUnits="userSpaceOnUse" color-interpolation-filters="sRGB">
<feFlood flood-opacity="0" result="BackgroundImageFix"/>
<feBlend mode="normal" in="SourceGraphic" in2="BackgroundImageFix" result="shape"/>
<feGaussianBlur stdDeviation="2" result="effect1_foregroundBlur_129_154"/>
</filter>
<filter id="filter7_f_129_154" x="229.039" y="342" width="111.923" height="128" filterUnits="userSpaceOnUse" color-interpolation-filters="sRGB">
<feFlood flood-opacity="0" result="BackgroundImageFix"/>
<feBlend mode="normal" in="SourceGraphic" in2="BackgroundImageFix" result="shape"/>
<feGaussianBlur stdDeviation="2" result="effect1_foregroundBlur_129_154"/>
</filter>
<filter id="filter8_f_129_154" x="47.3589" y="165" width="77.2822" height="88" filterUnits="userSpaceOnUse" color-interpolation-filters="sRGB">
<feFlood flood-opacity="0" result="BackgroundImageFix"/>
<feBlend mode="normal" in="SourceGraphic" in2="BackgroundImageFix" result="shape"/>
<feGaussianBlur stdDeviation="2" result="effect1_foregroundBlur_129_154"/>
</filter>
<filter id="filter9_f_129_154" x="335.359" y="152" width="77.2822" height="88" filterUnits="userSpaceOnUse" color-interpolation-filters="sRGB">
<feFlood flood-opacity="0" result="BackgroundImageFix"/>
<feBlend mode="normal" in="SourceGraphic" in2="BackgroundImageFix" result="shape"/>
<feGaussianBlur stdDeviation="2" result="effect1_foregroundBlur_129_154"/>
</filter>
<filter id="filter10_f_129_154" x="113.35" y="245" width="51.3008" height="58" filterUnits="userSpaceOnUse" color-interpolation-filters="sRGB">
<feFlood flood-opacity="0" result="BackgroundImageFix"/>
<feBlend mode="normal" in="SourceGraphic" in2="BackgroundImageFix" result="shape"/>
<feGaussianBlur stdDeviation="2" result="effect1_foregroundBlur_129_154"/>
</filter>
<filter id="filter11_f_129_154" x="348.35" y="65" width="51.3008" height="58" filterUnits="userSpaceOnUse" color-interpolation-filters="sRGB">
<feFlood flood-opacity="0" result="BackgroundImageFix"/>
<feBlend mode="normal" in="SourceGraphic" in2="BackgroundImageFix" result="shape"/>
<feGaussianBlur stdDeviation="2" result="effect1_foregroundBlur_129_154"/>
</filter>
<filter id="filter12_f_129_154" x="148.68" y="192" width="42.6406" height="48" filterUnits="userSpaceOnUse" color-interpolation-filters="sRGB">
<feFlood flood-opacity="0" result="BackgroundImageFix"/>
<feBlend mode="normal" in="SourceGraphic" in2="BackgroundImageFix" result="shape"/>
<feGaussianBlur stdDeviation="2" result="effect1_foregroundBlur_129_154"/>
</filter>
<filter id="filter13_f_129_154" x="283.68" y="42" width="42.6406" height="48" filterUnits="userSpaceOnUse" color-interpolation-filters="sRGB">
<feFlood flood-opacity="0" result="BackgroundImageFix"/>
<feBlend mode="normal" in="SourceGraphic" in2="BackgroundImageFix" result="shape"/>
<feGaussianBlur stdDeviation="2" result="effect1_foregroundBlur_129_154"/>
</filter>
<filter id="filter14_f_129_154" x="237.68" y="115" width="42.6406" height="48" filterUnits="userSpaceOnUse" color-interpolation-filters="sRGB">
<feFlood flood-opacity="0" result="BackgroundImageFix"/>
<feBlend mode="normal" in="SourceGraphic" in2="BackgroundImageFix" result="shape"/>
<feGaussianBlur stdDeviation="2" result="effect1_foregroundBlur_129_154"/>
</filter>
<filter id="filter15_f_129_154" x="129.34" y="180" width="25.3203" height="28" filterUnits="userSpaceOnUse" color-interpolation-filters="sRGB">
<feFlood flood-opacity="0" result="BackgroundImageFix"/>
<feBlend mode="normal" in="SourceGraphic" in2="BackgroundImageFix" result="shape"/>
<feGaussianBlur stdDeviation="2" result="effect1_foregroundBlur_129_154"/>
</filter>
<filter id="filter16_f_129_154" x="307.34" y="105" width="25.3203" height="28" filterUnits="userSpaceOnUse" color-interpolation-filters="sRGB">
<feFlood flood-opacity="0" result="BackgroundImageFix"/>
<feBlend mode="normal" in="SourceGraphic" in2="BackgroundImageFix" result="shape"/>
<feGaussianBlur stdDeviation="2" result="effect1_foregroundBlur_129_154"/>
</filter>
<filter id="filter17_f_129_154" x="278.34" y="192" width="25.3203" height="28" filterUnits="userSpaceOnUse" color-interpolation-filters="sRGB">
<feFlood flood-opacity="0" result="BackgroundImageFix"/>
<feBlend mode="normal" in="SourceGraphic" in2="BackgroundImageFix" result="shape"/>
<feGaussianBlur stdDeviation="2" result="effect1_foregroundBlur_129_154"/>
</filter>
<filter id="filter18_f_129_154" x="391.34" y="0" width="25.3203" height="28" filterUnits="userSpaceOnUse" color-interpolation-filters="sRGB">
<feFlood flood-opacity="0" result="BackgroundImageFix"/>
<feBlend mode="normal" in="SourceGraphic" in2="BackgroundImageFix" result="shape"/>
<feGaussianBlur stdDeviation="2" result="effect1_foregroundBlur_129_154"/>
</filter>
<filter id="filter19_f_129_154" x="35.3496" y="292" width="51.3008" height="58" filterUnits="userSpaceOnUse" color-interpolation-filters="sRGB">
<feFlood flood-opacity="0" result="BackgroundImageFix"/>
<feBlend mode="normal" in="SourceGraphic" in2="BackgroundImageFix" result="shape"/>
<feGaussianBlur stdDeviation="2" result="effect1_foregroundBlur_129_154"/>
</filter>
<filter id="filter20_f_129_154" x="199.35" y="292" width="51.3008" height="58" filterUnits="userSpaceOnUse" color-interpolation-filters="sRGB">
<feFlood flood-opacity="0" result="BackgroundImageFix"/>
<feBlend mode="normal" in="SourceGraphic" in2="BackgroundImageFix" result="shape"/>
<feGaussianBlur stdDeviation="2" result="effect1_foregroundBlur_129_154"/>
</filter>
<filter id="filter21_f_129_154" x="294.35" y="242" width="51.3008" height="58" filterUnits="userSpaceOnUse" color-interpolation-filters="sRGB">
<feFlood flood-opacity="0" result="BackgroundImageFix"/>
<feBlend mode="normal" in="SourceGraphic" in2="BackgroundImageFix" result="shape"/>
<feGaussianBlur stdDeviation="2" result="effect1_foregroundBlur_129_154"/>
</filter>
</defs>
</svg>
